<svg width="40" height="46" viewBox="0 0 40 46" fill="none" xmlns="http://www.w3.org/2000/svg">
<g id="Group">
<path id="Vector" d="M32.139 7.19065C27.8244 7.19857 23.6385 8.60406 20.2565 11.1803C16.8527 8.58881 12.6368 7.18197 8.29539 7.18899H0L0.00465538 26.4388C0.00465538 31.5385 2.1113 36.4294 5.8612 40.0354C9.61109 43.6414 14.6971 45.6673 20.0002 45.6673C25.3034 45.6673 30.3893 43.6414 34.1392 40.0354C37.8891 36.4294 39.9958 31.5385 39.9958 26.4388V7.19065H32.139ZM37.1494 9.92897V12.6956H26.1769C24.7368 12.7014 23.3072 12.9326 21.9443 13.3802C24.8488 11.1444 28.4584 9.9266 32.1788 9.92729L37.1494 9.92897ZM8.33292 18.1695H2.85163V15.4339H8.29307C10.6725 15.4355 12.9807 16.2154 14.8382 17.6454C14.3811 18.5344 13.9994 19.4574 13.6969 20.4054C13.0092 19.7002 12.1785 19.1379 11.256 18.7534C10.3335 18.369 9.33888 18.1704 8.33348 18.17M18.5779 23.8933V42.8631C17.6124 42.7843 16.6557 42.6263 15.7182 42.3908V30.5702C15.7142 29.3308 15.9648 28.103 16.4555 26.957C16.9462 25.811 17.6675 24.7695 18.5779 23.8922M21.4243 21.9474C22.3304 21.5288 23.293 21.2341 24.2839 21.0717V42.388C23.3464 42.6235 22.3897 42.7815 21.4243 42.8604V21.9474ZM26.1775 18.1689C24.3364 18.1557 22.512 18.5053 20.8169 19.1963C19.1217 19.8872 17.5918 20.9048 16.3214 22.1863C17.0419 20.2144 18.3805 18.5059 20.1528 17.2961C21.9251 16.0863 24.044 15.4347 26.2174 15.4311H37.1505V18.1667L26.1775 18.1689ZM8.29363 9.92841C11.8368 9.92556 15.2855 11.0277 18.122 13.0696C17.4519 13.7502 16.8359 14.4783 16.2792 15.2478C13.9738 13.5905 11.1726 12.695 8.2942 12.695H2.85276V9.92897L8.29363 9.92841ZM2.8522 26.4399V20.9078H8.33348C9.53654 20.9091 10.6899 21.3693 11.5406 22.1873C12.3913 23.0054 12.8698 24.1145 12.8712 25.2714V41.4184C9.88613 40.105 7.35549 37.9957 5.57962 35.3408C3.80374 32.6858 2.85717 29.5967 2.8522 26.4399ZM27.1309 41.4184V20.9083H37.1499V26.4405C37.145 29.5972 36.1984 32.6864 34.4225 35.3413C32.6466 37.9962 30.116 40.1056 27.1309 41.419" fill="#212427"/>
<path id="Vector_2" d="M40 0.333008H0.0527344V3.07132H40V0.333008Z" fill="#212427"/>
</g>
</svg>
