<svg width="38" height="14" viewBox="0 0 38 14" fill="none" xmlns="http://www.w3.org/2000/svg">
<g id="Group">
<path id="Vector" d="M37.2823 8.1897H0.717896V9.47045H37.2823V8.1897Z" fill="#00BC51"/>
<g id="Group_2">
<path id="Vector_2" d="M1.33917 12.8616H1.9708C1.97478 13.2816 2.13547 13.49 2.49663 13.49C2.81483 13.49 2.97949 13.3134 2.97949 12.9793C2.97949 12.2371 2.09649 12.2331 2.09649 11.1497H2.73607C2.73607 12.0406 3.64294 12.0526 3.64294 12.9793C3.64294 13.6308 3.18394 13.9999 2.5006 13.9999C1.74727 13.9999 1.34633 13.6038 1.33838 12.8616H1.33917Z" fill="#34383E"/>
<path id="Vector_3" d="M3.93005 13.0183V12.9872C3.93005 12.4765 4.27132 12.175 4.88386 12.0565C5.26093 11.9817 5.44946 11.907 5.44946 11.7304C5.44946 11.6047 5.35559 11.518 5.16308 11.518C4.97057 11.518 4.82181 11.6086 4.8059 11.8242H4.23712C4.26019 11.3414 4.64919 11.1099 5.16388 11.1099C5.72152 11.1099 6.03574 11.3334 6.03574 11.6866C6.03574 11.895 5.92597 12.0517 5.67857 12.1416C6.11848 12.2713 6.37304 12.5815 6.37304 12.9737V13.0055C6.37304 13.6101 5.85119 13.9983 5.14797 13.9983C4.44474 13.9983 3.93085 13.6093 3.93085 13.0167L3.93005 13.0183ZM5.708 13.0071V12.9912C5.708 12.646 5.48048 12.4336 5.15035 12.4336C4.82022 12.4336 4.59271 12.646 4.59271 12.9872V13.0071C4.59271 13.3524 4.81624 13.5648 5.15035 13.5648C5.48446 13.5648 5.708 13.3492 5.708 13.0071Z" fill="#34383E"/>
<path id="Vector_4" d="M7.70239 12.0804C7.93389 12.0804 8.16538 12.1742 8.29902 12.4574C8.4446 12.1981 8.70313 12.0804 9.0094 12.0804C9.57898 12.0804 9.88127 12.4296 9.88127 13.062V13.093C9.88127 13.5011 9.75558 13.8154 9.66887 13.957H9.02133C9.12714 13.7684 9.23691 13.4781 9.23691 13.1599V13.0811C9.23691 12.751 9.13509 12.5632 8.91474 12.5632C8.69438 12.5632 8.58858 12.7558 8.58858 13.0771V13.3993H7.97207V13.0732C7.97207 12.755 7.87024 12.5624 7.65387 12.5624C7.43749 12.5624 7.32374 12.7629 7.32374 13.0843V13.175C7.32374 13.4892 7.43352 13.7676 7.54329 13.9562H6.89178C6.80587 13.8034 6.68018 13.4184 6.68018 12.9157V12.8019C6.68018 11.7852 7.0652 11.2674 8.17174 11.2236L8.42312 11.2157C8.8861 11.1998 9.1693 11.1608 9.33794 11.1099V11.5848C9.16134 11.6516 8.8861 11.6755 8.48198 11.6906L8.18765 11.6946C7.44147 11.7296 7.26487 11.9539 7.19805 12.3071C7.28794 12.1695 7.4884 12.0796 7.7008 12.0796L7.70239 12.0804Z" fill="#34383E"/>
<path id="Vector_5" d="M10.3013 12.6769V12.5274C10.3013 11.5927 10.7332 11.1106 11.4826 11.1106C12.232 11.1106 12.6567 11.5895 12.6567 12.5274V12.6801C12.6567 13.1869 12.5231 13.6459 12.3704 13.9561H11.7308C11.9114 13.583 12.0172 13.1511 12.0172 12.6451V12.4995C12.0172 11.9499 11.8676 11.6126 11.4834 11.6126C11.0992 11.6126 10.9416 11.9228 10.9416 12.5035V12.6451C10.9416 13.1439 11.0435 13.6029 11.228 13.9561H10.5845C10.4039 13.6268 10.3021 13.1359 10.3021 12.6761L10.3013 12.6769Z" fill="#34383E"/>
</g>
<g id="Group_3">
<path id="Vector_6" d="M6.89416 0C6.29117 0 5.80194 0.188535 5.48771 0.627651C5.03587 0.175807 4.39549 0 3.66681 0C2.33594 0 1.24292 0.615718 1.24292 2.42389V3.85579C1.24292 5.66396 2.33514 6.27968 3.66681 6.27968C4.99848 6.27968 6.0907 5.66396 6.0907 3.85579V2.36105C6.0907 1.62043 6.35481 1.44463 6.74381 1.44463C7.13281 1.44463 7.39691 1.62043 7.39691 2.36105V6.17865H8.84075V2.42389C8.84075 0.615718 7.96172 0 6.89416 0ZM4.64607 3.47873C4.64607 4.48344 4.42015 4.83505 3.66681 4.83505C2.91347 4.83505 2.68755 4.48344 2.68755 3.47873V2.80096C2.68755 1.79624 2.91347 1.44463 3.66681 1.44463C4.42015 1.44463 4.64607 1.79624 4.64607 2.80096V3.47873Z" fill="#34383E"/>
<path id="Vector_7" d="M12.0226 0C10.6918 0 9.59875 0.615718 9.59875 2.42389H11.0426C11.0426 1.70794 11.3815 1.44463 12.0218 1.44463C12.7752 1.44463 13.0011 1.79624 13.0011 2.80096V3.47873C13.0011 4.48344 12.7752 4.83505 12.0218 4.83505C11.2685 4.83505 11.0426 4.48344 11.0426 3.47873H9.59875V3.85579C9.59875 5.66396 10.691 6.27968 12.0226 6.27968C13.3543 6.27968 14.4465 5.66396 14.4465 3.85579V2.42389C14.4465 0.615718 13.3662 0 12.0226 0Z" fill="#34383E"/>
<path id="Vector_8" d="M22.8471 0C21.5162 0 20.4232 0.615718 20.4232 2.42389H21.867C21.867 1.70794 22.2059 1.44463 22.8463 1.44463C23.5996 1.44463 23.8256 1.79624 23.8256 2.80096V3.47873C23.8256 4.48344 23.5996 4.83505 22.8463 4.83505C22.093 4.83505 21.867 4.48344 21.867 3.47873H20.4232V3.85579C20.4232 5.66396 21.5154 6.27968 22.8471 6.27968C24.1788 6.27968 25.271 5.66396 25.271 3.85579V2.42389C25.271 0.615718 24.1907 0 22.8471 0Z" fill="#34383E"/>
<path id="Vector_9" d="M29.3941 0.879105V0.113037H27.9749V3.4788H29.3941V2.08508C29.7712 2.2235 29.896 2.6125 29.896 3.35311V3.4788C29.896 4.48352 29.6829 4.83513 28.9287 4.83513H28.4514C27.6981 4.83513 27.4722 4.48352 27.4722 3.4788V1.39379H26.0283V3.8678C26.0283 5.67597 27.1205 6.27896 28.4522 6.27896H28.9295C30.2604 6.27896 31.3407 5.66324 31.3407 3.8678V3.26481C31.3407 1.68256 30.499 1.01673 29.3941 0.879105Z" fill="#34383E"/>
<path id="Vector_10" d="M35.8782 1.97139C35.6141 1.73274 35.5139 1.64523 35.4137 1.55693C34.7104 0.953945 34.4217 0.828256 34.4217 0.376411V0.112305H32.9778V0.489371C32.9778 1.43124 33.304 1.59432 33.9826 2.17186C33.991 2.18034 34.2297 2.37285 34.6985 2.74939C35.1504 3.11373 35.3142 3.23942 35.3142 3.86707C35.3015 4.48279 35.0883 4.8344 34.335 4.8344C33.5816 4.8344 33.3557 4.48279 33.3557 3.47807H31.9119V3.85513C31.9119 5.66331 33.0041 6.27903 34.3358 6.27903C35.6674 6.27903 36.7596 5.66331 36.7596 3.85513V3.61648C36.7596 2.68734 36.3078 2.37312 35.8806 1.97139H35.8782Z" fill="#34383E"/>
<path id="Vector_11" d="M18.9094 2.35632C19.238 2.10494 19.3907 1.73901 19.3907 1.38501C19.3907 0.507576 18.6763 0.00561523 17.5229 0.00561523C16.3694 0.00561523 15.4665 0.369158 15.4665 1.71037H16.9079C16.9079 1.38422 17.0209 1.19648 17.4218 1.19648C17.8228 1.19648 17.9485 1.38422 17.9485 1.6356C17.9485 1.93629 17.7106 2.09937 17.3471 2.09937C16.0345 2.11608 15.0146 2.5003 15.0146 4.19313C15.0146 5.88596 16.0679 6.27416 17.4346 6.27416C18.8012 6.27416 19.8545 5.82311 19.8545 4.19313C19.8545 3.17728 19.487 2.63315 18.9094 2.35632ZM17.4346 4.83192C16.8332 4.83192 16.4569 4.65611 16.4569 4.12949C16.4569 3.54002 16.8332 3.41513 17.4346 3.41513C18.036 3.41513 18.4122 3.54082 18.4122 4.12949C18.4122 4.65611 18.036 4.83192 17.4346 4.83192Z" fill="#34383E"/>
</g>
</g>
</svg>
