<svg width="68" height="14" viewBox="0 0 68 14" fill="none" xmlns="http://www.w3.org/2000/svg">
<g id="autogallerys 2" clip-path="url(#clip0_382_27921)">
<path id="Vector" fill-rule="evenodd" clip-rule="evenodd" d="M27.6338 12.2689C28.3154 9.72385 27.7591 11.8 28.8873 7.58496H27.0322L25.6298 12.8224C25.4841 13.3634 25.8069 13.804 26.349 13.804H32.4392L32.8497 12.2689H27.6338Z" fill="#0F0F0F"/>
<path id="Vector_2" fill-rule="evenodd" clip-rule="evenodd" d="M35.5608 12.2689C36.2424 9.72385 35.6861 11.8 36.8142 7.58496H34.9592L33.5568 12.8224C33.4111 13.3634 33.7339 13.804 34.276 13.804H40.3663L40.7767 12.2689H35.5608Z" fill="#0F0F0F"/>
<path id="Vector_3" fill-rule="evenodd" clip-rule="evenodd" d="M55.0377 13.804H57.007L56.3414 11.3092H56.6969C57.2374 11.3076 57.7938 10.867 57.9396 10.326C58.0961 9.73952 58.2527 9.15308 58.4093 8.56659C58.555 8.02561 58.2325 7.58496 57.6916 7.58496H51.0533L50.6426 9.12014H56.3068L56.0764 9.98102C54.5112 9.98102 52.9491 9.99669 51.3855 10.003C50.8446 10.0045 50.2886 10.4452 50.1444 10.9862C49.8922 11.9255 49.6416 12.8663 49.389 13.8056H51.3463C51.567 12.9776 51.7896 12.1513 52.0103 11.3249C52.7941 11.3249 53.5743 11.3218 54.3546 11.3186L55.0393 13.8056L55.0377 13.804Z" fill="#0F0F0F"/>
<path id="Vector_4" fill-rule="evenodd" clip-rule="evenodd" d="M61.418 7.58789L62.731 9.38495L65.0088 7.58789H67.6317L63.6912 10.6974L63.2039 11.0816L62.4769 13.7991H60.6218L61.3489 11.0816L61.0683 10.6974L58.7952 7.58789H61.418Z" fill="#0F0F0F"/>
<path id="Vector_5" fill-rule="evenodd" clip-rule="evenodd" d="M44.319 9.12014C44.2284 9.46197 44.1748 9.65801 44.0843 9.99829H48.2175L47.8631 11.3202H43.7299C43.6172 11.7389 43.5873 11.8502 43.4761 12.2689H48.9414L48.5307 13.804H42.237C41.6728 13.804 41.3359 13.343 41.4863 12.7785C41.8577 11.3892 42.2304 9.99984 42.6019 8.6105C42.7522 8.04599 43.3366 7.58496 43.9008 7.58496H50.1945L49.7842 9.12014H44.319Z" fill="#0F0F0F"/>
<path id="Vector_6" fill-rule="evenodd" clip-rule="evenodd" d="M12.0803 9.12005C11.8719 9.89623 11.6212 10.8356 11.2373 12.2688H14.9193L15.0964 11.6086H13.2475L13.6189 10.224H16.0208C16.5613 10.224 16.8841 10.6646 16.7384 11.2056L16.4532 12.2688L16.3075 12.8145C16.1634 13.3539 15.6087 13.793 15.0697 13.7961L15.0635 13.8039H9.95249C9.41195 13.8039 9.0892 13.3617 9.23332 12.8223L10.3724 8.56806C10.5166 8.02708 11.0759 7.58643 11.618 7.58643H17.5015L17.0909 9.1216H12.0803V9.12005Z" fill="#0F0F0F"/>
<path id="Vector_7" fill-rule="evenodd" clip-rule="evenodd" d="M25.0002 13.804H23.0104L22.7566 12.7989H19.2813L18.4901 13.804H16.5002L21.4388 7.58496H23.3911L25.0002 13.804ZM22.4228 11.477L21.9136 9.46042L20.3248 11.477H22.4244H22.4228Z" fill="#0F0F0F"/>
<path id="Vector_8" fill-rule="evenodd" clip-rule="evenodd" d="M41.3281 6.41341C40.7627 6.41341 40.4258 5.95238 40.5777 5.38787C40.9492 3.99856 41.3218 2.60921 41.6933 1.21987C41.8452 0.655356 42.4281 0.194336 42.9939 0.194336H48.6515C49.2157 0.194336 49.5541 0.655356 49.4022 1.21987C49.0307 2.60921 48.6577 3.99856 48.2866 5.38787C48.1343 5.95238 47.5514 6.41341 46.986 6.41341H41.3281ZM43.412 1.72951C42.9076 3.61593 43.1034 2.88363 42.5691 4.87827H46.5675C47.1018 2.88363 46.906 3.61436 47.4107 1.72951H43.412Z" fill="#0F0F0F"/>
<path id="Vector_9" fill-rule="evenodd" clip-rule="evenodd" d="M24.5351 6.41341C23.9694 6.41341 23.6326 5.95238 23.7845 5.38787L25.1743 0.194336H27.0294L25.776 4.87827H29.7745L31.0279 0.194336H32.883L31.4933 5.38787C31.3429 5.95238 30.7585 6.41341 30.1928 6.41341H24.5351Z" fill="#0F0F0F"/>
<path id="Vector_10" fill-rule="evenodd" clip-rule="evenodd" d="M41.1761 0.194336L40.7658 1.72951H38.1725L36.9191 6.41341H35.0639L36.319 1.72951H33.729L34.1395 0.194336H36.7295H38.5846H41.1761Z" fill="#0F0F0F"/>
<path id="Vector_11" fill-rule="evenodd" clip-rule="evenodd" d="M22.9022 6.41341H20.9123L20.6585 5.40829H17.1833L16.3921 6.41341H14.4022L19.3424 0.194336H21.2947L22.9038 6.41341H22.9022ZM20.3248 4.08637L19.8156 2.06978L18.2268 4.08637H20.3263H20.3248Z" fill="#0F0F0F"/>
<path id="Vector_12" d="M11.3813 0.194336L12.7256 6.41341H7.49402L11.3813 0.194336Z" fill="#0F0F0F"/>
<path id="Vector_13" d="M3.13513 13.8039H7.52224L11.3813 0.194336H6.8861L3.13513 13.8039Z" fill="#0F0F0F"/>
<path id="Vector_14" d="M0.368042 13.8039H2.2639L6.12295 0.194336H4.11901L0.368042 13.8039Z" fill="#0F0F0F"/>
</g>
<defs>
<clipPath id="clip0_382_27921">
<rect width="68" height="14" fill="white"/>
</clipPath>
</defs>
</svg>
