<svg width="54" height="30" viewBox="0 0 54 30" fill="none" xmlns="http://www.w3.org/2000/svg">
<g id="Geely_Auto_2023 1" clip-path="url(#clip0_371_27286)">
<g id="Clip path group">
<mask id="mask0_371_27286" style="mask-type:luminance" maskUnits="userSpaceOnUse" x="0" y="0" width="54" height="30">
<g id="clip0_2331_38776">
<path id="Vector" d="M54 0H0V29.7894H54V0Z" fill="white"/>
</g>
</mask>
<g mask="url(#mask0_371_27286)">
<g id="Group">
<path id="Vector_2" d="M23.4586 0.0256568C23.4336 0.0512272 21.5153 0.0853209 19.19 0.0938445L14.963 0.110891L15.0212 1.78149C15.0876 3.69074 15.154 5.43806 15.1956 6.17956C15.2122 6.46085 15.2288 6.75918 15.2288 6.8359C15.2371 7.03192 15.3865 7.04046 18.9409 7.24502C25.4101 7.61153 28.6572 7.62007 34.3374 7.28763C35.5001 7.21945 36.8703 7.13423 37.3686 7.10865C38.5229 7.04046 38.7305 7.02343 38.772 6.98077C38.8053 6.93816 38.9962 2.2588 39.0212 0.997329L39.0295 0.170555L38.3651 0.127938C37.2523 0.0767974 23.5001 -0.0254839 23.4586 0.0256568Z" fill="black"/>
<path id="Vector_3" d="M9.13384 0.230785C7.33177 0.273402 3.61134 0.443872 2.82242 0.512058C1.64317 0.631387 1.16151 0.801858 0.688157 1.2877C0.106843 1.88433 0.0154936 2.28494 0.0570162 4.17714C0.073625 5.04653 0.115147 5.73694 0.164975 5.78809C0.214801 5.8307 0.588505 5.89035 0.995422 5.92446C1.41065 5.95004 2.13314 6.00969 2.6148 6.0523C3.61964 6.14606 3.85217 6.16309 6.6425 6.39323C7.78849 6.47845 9.09232 6.58075 9.54904 6.60633C10.0058 6.63191 10.8279 6.69155 11.376 6.73416C11.9241 6.78531 12.6882 6.83646 13.0785 6.87053C13.4688 6.89611 13.9255 6.93023 14.0999 6.94726L14.4072 6.97284V6.58075C14.4072 6.35916 14.349 4.98687 14.2826 3.53788C14.2162 2.08037 14.1581 0.733667 14.1581 0.529107V0.162598L12.0653 0.188168C10.911 0.205215 9.59056 0.222262 9.13384 0.230785Z" fill="black"/>
<path id="Vector_4" d="M39.7435 3.12019C39.6853 4.7567 39.6272 6.26535 39.6106 6.46991C39.594 6.68302 39.594 6.87049 39.6106 6.90461C39.6272 6.93018 39.9843 6.93018 40.4161 6.89607C40.8397 6.862 41.5788 6.81085 42.0605 6.78527C42.5421 6.7512 43.1234 6.70854 43.3476 6.69151C43.5801 6.67447 44.0618 6.64035 44.4272 6.61483C45.4154 6.54664 50.3319 6.14602 52.2333 5.98407L53.8944 5.83915L53.944 5.32778C54.044 4.29643 53.9692 2.45536 53.8112 2.01214C53.6205 1.46664 53.1553 0.997853 52.5905 0.784766C51.7934 0.477923 49.0113 0.307453 43.0487 0.205172L39.8515 0.145508L39.7435 3.12019Z" fill="black"/>
<path id="Vector_5" d="M0.247829 7.00713C0.47205 8.49874 0.829145 9.52154 1.36894 10.2546C2.36547 11.6013 4.15925 12.5048 7.54746 13.34C9.79803 13.8941 14.9717 14.9339 15.0215 14.8402C15.0382 14.8146 14.9883 13.9793 14.9053 12.9991C14.8222 12.0104 14.6893 10.4421 14.6146 9.50451C14.5399 8.56693 14.4734 7.79979 14.4651 7.7913C14.4568 7.78276 13.2527 7.69754 11.7911 7.59523C10.3295 7.49298 8.95092 7.39068 8.71842 7.37364C8.4942 7.35661 8.02083 7.314 7.68033 7.28842C7.33989 7.26285 6.84992 7.22873 6.60078 7.20315C6.35164 7.17757 5.90319 7.14351 5.60421 7.11793C3.11288 6.9304 0.696271 6.72585 0.47205 6.68324L0.189697 6.64062L0.247829 7.00713Z" fill="black"/>
<path id="Vector_6" d="M51.9852 6.81923C51.0717 6.90445 49.9922 6.99821 49.577 7.03233C49.17 7.05791 48.68 7.10052 48.4973 7.11755C48.3146 7.13459 47.8496 7.16871 47.4593 7.20277C47.0689 7.22835 46.5706 7.27096 46.3381 7.28804C45.8233 7.33915 45.4745 7.36472 42.2274 7.59486C40.7907 7.69716 39.5949 7.79093 39.5866 7.80796C39.5534 7.83354 38.9886 14.2517 38.9886 14.6267V14.891L40.4669 14.6182C41.2807 14.4648 42.8752 14.1409 44.0129 13.8937C48.7963 12.8709 50.6813 12.1719 51.9936 10.9616C52.9567 10.0667 53.3639 9.24842 53.6795 7.56079C53.8207 6.79365 53.8207 6.63171 53.6959 6.65728C53.6711 6.66582 52.8987 6.7425 51.9852 6.81923Z" fill="black"/>
<path id="Vector_7" d="M15.3457 8.62591C15.4122 9.69986 15.8108 14.4645 15.8606 14.7969L15.9021 15.0526L17.0481 15.2486C18.8752 15.5555 21.8814 15.9987 23.5422 16.2032C25.5353 16.4504 28.3173 16.4675 30.1444 16.2544C32.9014 15.922 37.9755 15.1293 38.0917 15.01C38.1166 14.9844 38.1665 14.7458 38.1914 14.49C38.2412 13.9872 38.2412 13.9701 38.4904 10.8676C38.5817 9.74247 38.6814 8.60033 38.7063 8.31905L38.7561 7.82471L37.8592 7.88435C37.3609 7.91847 36.7879 7.95254 36.5803 7.96962C36.3727 7.98666 35.7249 8.02072 35.127 8.05484C34.5374 8.08891 33.9063 8.12303 33.7319 8.14006C31.4731 8.35316 23.1436 8.35316 20.262 8.14006C20.0377 8.12303 19.4149 8.08891 18.8918 8.05484C18.3685 8.02927 17.7125 7.98666 17.4385 7.96962C17.1644 7.95254 16.5665 7.90993 16.118 7.88435L15.2959 7.82471L15.3457 8.62591Z" fill="black"/>
<path id="Vector_8" d="M0.67179 21.9309C0.0406494 22.2974 0.0406494 22.323 0.0406494 25.7409C0.0406494 29.1588 0.0406494 29.1844 0.67179 29.5509L0.995666 29.7469H5.62958H10.2552V27.403V25.059L6.91677 25.076L3.57006 25.1016V25.7409V26.3802L6.2109 26.4057L8.84343 26.4228V27.403V28.3832H5.14789H1.45241V25.7409C1.45241 24.2834 1.47733 23.0986 1.51885 23.0986C1.55207 23.0986 3.52024 23.0901 5.89532 23.0731L10.2136 23.056L10.2386 22.3912L10.2635 21.7349H5.62958H0.995666L0.67179 21.9309Z" fill="black"/>
<path id="Vector_9" d="M12.5808 25.2555C12.5808 29.2274 12.5725 29.1848 13.2203 29.5513C13.5525 29.7474 13.5525 29.7474 18.0286 29.7474L22.5047 29.7559V29.091V28.4262L18.2528 28.4006L13.9926 28.3836V27.4034V26.4232L18.1282 26.4062L22.2556 26.3806V25.7414V25.1021L18.1199 25.0765L13.9843 25.0595L14.0092 24.0708L14.0341 23.0905L18.2694 23.0735L22.5047 23.0565L22.5296 22.3916L22.5545 21.7354H17.5635H12.5808V25.2555Z" fill="black"/>
<path id="Vector_10" d="M24.6388 25.3318C24.6637 28.7838 24.672 28.9457 24.8298 29.1673C24.9211 29.2952 25.1288 29.4742 25.2948 29.5679C25.5938 29.7469 25.7018 29.7469 30.0948 29.7469H34.5876V29.065V28.3832H30.3108H26.0339V27.403V26.4228L30.1696 26.4057L34.2969 26.3802L34.3219 25.7154L34.3468 25.059H30.1862H26.0257L26.0506 24.0788L26.0755 23.0901L30.3108 23.0731L34.5461 23.056L34.571 22.3912L34.5959 21.7349H29.6049H24.6139L24.6388 25.3318Z" fill="black"/>
<path id="Vector_11" d="M36.7457 25.2807C36.7457 28.7411 36.754 28.8434 36.9201 29.1247C37.0197 29.2781 37.2357 29.4827 37.4184 29.5765C37.7173 29.7384 37.9166 29.7469 41.6454 29.7469H45.5485V29.065V28.3832H41.853H38.1575V25.059V21.7349H37.4516H36.7457V25.2807Z" fill="black"/>
<path id="Vector_12" d="M45.3243 24.1901L47.7077 26.6363V28.179C47.7077 29.0229 47.7243 29.7388 47.7409 29.7559C47.7575 29.773 48.0814 29.7815 48.4468 29.7644L49.1194 29.7304V28.2302V26.7216L51.5443 24.2327L53.9777 21.7354H53.0642H52.1507L50.3072 23.6275L48.4551 25.5283L46.6032 23.6275L44.7596 21.7354H43.8461H42.9326L45.3243 24.1901Z" fill="black"/>
</g>
</g>
</g>
</g>
<defs>
<clipPath id="clip0_371_27286">
<rect width="54" height="30" fill="white"/>
</clipPath>
</defs>
</svg>
