<svg width="42" height="12" viewBox="0 0 42 12" fill="none" xmlns="http://www.w3.org/2000/svg">
<g id="BOMAG_201x_logo 1" clip-path="url(#clip0_371_27089)">
<path id="path3208" d="M2.74396 5.4726L4.81902 3.41462L3.618 2.22349L0.341919 5.4726L5.50965 10.5978L6.71067 9.40666L2.74396 5.4726ZM8.27549 5.4726L4.30878 1.53854L5.5098 0.347168L10.6775 5.4726L7.40145 8.72171L6.20043 7.53058L8.27549 5.4726ZM6.89403 5.4726L5.5096 6.84563L4.12542 5.4726L5.5096 4.09957L6.89403 5.4726Z" fill="#FFD800"/>
<path id="path3216" fill-rule="evenodd" clip-rule="evenodd" d="M34.4536 5.79436L34.0273 3.68362L33.5393 5.79436H34.4536ZM33.275 6.9373H34.6844L34.9747 8.37466H36.8214L35.2264 2.59416H33.0111L31.2803 8.37466H32.9426L33.275 6.9373ZM21.5087 3.92375C21.3355 3.65319 20.9738 3.5732 20.701 3.74498C20.6376 3.7804 20.5511 3.86737 20.5163 3.93073C20.4199 4.07023 20.3222 4.34368 20.3089 4.51233C20.2251 5.01345 20.229 5.9386 20.3169 6.439C20.3312 6.60018 20.4262 6.86182 20.5188 6.99505C20.6854 7.262 21.0386 7.34415 21.3078 7.17888C21.3671 7.14635 21.4501 7.06637 21.4846 7.0083C21.5772 6.88326 21.6719 6.63608 21.6867 6.48164C21.7883 5.93739 21.7878 4.93924 21.6852 4.39499C21.6718 4.25791 21.5889 4.03626 21.5087 3.92375ZM23.4146 6.84592C23.6903 6.04918 23.6509 4.70121 23.3293 3.92134C23.1651 3.34529 22.5541 2.76177 21.9675 2.62059C21.4899 2.44857 20.6571 2.43074 20.1725 2.58204C19.5688 2.70009 18.9207 3.26771 18.7278 3.84713C18.3406 4.67832 18.2971 6.09689 18.6328 6.94952C18.7861 7.5275 19.3837 8.13318 19.9631 8.29773C20.6129 8.56564 21.666 8.50999 22.2835 8.17486C22.7883 7.97297 23.2987 7.37355 23.4146 6.84592ZM41.3248 4.1937C41.1606 4.03349 40.819 3.8593 40.5921 3.82051C40.3876 3.76341 40.021 3.7557 39.8143 3.80365C39.3466 3.86918 38.9023 4.2908 38.8159 4.7512C38.7017 5.14752 38.681 5.85946 38.7721 6.26156C38.7928 6.42804 38.9026 6.6933 39.0058 6.82629C39.1999 7.11973 39.6151 7.24284 39.9399 7.10359L39.9034 5.45494L41.6581 5.42916L41.6488 8.17667C40.9643 8.44723 39.7302 8.55637 39.0083 8.41061C38.483 8.36411 37.789 7.9702 37.4827 7.54472C37.2364 7.27368 36.9806 6.721 36.9342 6.35889C36.7707 5.69129 36.8929 4.58906 37.1989 3.97278C37.4246 3.34878 38.1439 2.73563 38.7996 2.60794C39.3119 2.44989 40.2185 2.43279 40.7364 2.57156C40.9293 2.60649 41.274 2.71949 41.4496 2.8055L41.3248 4.1937ZM15.7129 5.9937C15.5795 5.97081 15.3278 5.96117 15.193 5.97394V7.32938C15.3516 7.36191 15.6198 7.33517 15.7687 7.27156C15.9009 7.23181 16.0396 7.09135 16.077 6.95957C16.1436 6.79791 16.1569 6.5153 16.1062 6.34834C16.0702 6.16981 15.8953 6.01225 15.7129 5.9937ZM16.0538 3.9191C16.0118 3.74852 15.8366 3.60421 15.66 3.59457C15.5444 3.57819 15.3267 3.57603 15.2106 3.58975V4.87171C15.3408 4.89123 15.5704 4.87345 15.6957 4.83365C15.8517 4.80064 16.0096 4.64958 16.0485 4.49611C16.106 4.34144 16.1085 4.07473 16.0538 3.9191ZM17.9333 6.09272C17.8699 5.83638 17.6175 5.52727 17.3777 5.41235C17.2279 5.31935 16.9378 5.23021 16.7612 5.22274L16.9427 5.15408C17.1985 5.07409 17.5055 4.80425 17.6163 4.56213C17.8303 4.20821 17.8378 3.62806 17.6335 3.26884C17.5286 3.02454 17.2266 2.76724 16.9674 2.70074C16.7833 2.63449 16.4335 2.57329 16.2379 2.57281C16.0045 2.56148 15.5461 2.55498 15.3126 2.56028H13.4397V8.37452H15.66C15.9027 8.38101 16.3562 8.33958 16.5938 8.28971C17.5344 8.11673 18.1558 7.22025 17.9817 6.28714C17.9732 6.23679 17.9493 6.14139 17.9333 6.09272ZM24.1141 8.37459H25.595L25.6577 4.28369L26.6454 8.37459H27.9686L28.9265 4.20226L28.9785 8.37459H30.7622L30.4669 2.59408H28.1523L27.4813 5.68804L26.7268 2.59408H24.3646L24.1141 8.37459Z" fill="#0055A0"/>
<path id="path3224" fill-rule="evenodd" clip-rule="evenodd" d="M30.7377 11.1376L30.9982 11.1378C31.4374 11.1378 31.7932 10.8212 31.7932 10.4304C31.7932 10.0401 31.4374 9.72355 30.9982 9.72355H30.1992V11.589H30.6466V11.1375L30.6748 11.1379L30.7377 11.1376ZM30.6466 10.092L30.9525 10.0924C31.1633 10.0924 31.3344 10.2444 31.3344 10.4321C31.3344 10.6197 31.1633 10.7718 30.9525 10.7718H30.6466V10.092ZM17.6661 10.7674V11.589H17.192V10.7674L16.1926 9.73095H16.7797L17.4305 10.372L18.0779 9.73095H18.6682L17.6661 10.7674ZM28.7958 11.0174C28.8113 11.1104 28.8973 11.2094 28.9877 11.2383C29.0793 11.2817 29.2316 11.2817 29.3232 11.2383C29.4135 11.2094 29.4995 11.1104 29.5151 11.0174C29.5294 10.9622 29.5401 10.8581 29.5372 10.8013V9.72363H29.9849V10.8699C29.9958 11.1887 29.7573 11.5142 29.4483 11.6021C29.2743 11.6696 28.9843 11.6619 28.8142 11.5852C28.5317 11.4901 28.3145 11.1766 28.3262 10.881V9.72363H28.7737V10.8013C28.771 10.8581 28.7817 10.9622 28.7958 11.0174ZM23.4146 10.4957V10.912H23.8096V11.2093C23.684 11.2678 23.4637 11.283 23.3308 11.2425C23.1785 11.2139 23.0153 11.0717 22.9672 10.9255C22.9111 10.804 22.8989 10.592 22.9404 10.4651C22.9623 10.3564 23.0648 10.2314 23.1676 10.1878C23.2385 10.148 23.3726 10.1167 23.454 10.121H24.2041L24.2032 9.72374H23.4933C23.4132 9.72134 23.265 9.7365 23.187 9.75506C22.6725 9.86131 22.3424 10.3607 22.4495 10.8713C22.4876 11.1228 22.7106 11.4138 22.9451 11.5174C23.3114 11.727 23.875 11.6885 24.209 11.4314V10.4957H23.4146ZM20.4303 10.1482V11.5889H20.9011V10.1482H21.4292V9.7309H19.8611V10.1482H20.4303ZM13.4398 11.589H13.9106V10.9228H14.5665V10.499H13.9106V10.141H15.0791V9.73095H13.4398V11.589ZM27.6437 10.464C27.571 10.1756 27.2761 9.99994 26.9851 10.0722C26.7976 10.1098 26.6202 10.2903 26.5869 10.4772C26.558 10.5801 26.5602 10.7605 26.5916 10.8627C26.664 11.1513 26.9584 11.3267 27.2494 11.2549C27.4345 11.2183 27.6116 11.0405 27.6463 10.8564C27.6774 10.7516 27.676 10.5683 27.6437 10.464ZM27.8499 11.3616C28.2422 11 28.2648 10.3912 27.9004 10.0019L27.8557 9.95754C27.4722 9.58748 26.8372 9.567 26.4303 9.91176C26.0156 10.2532 25.9583 10.8634 26.3025 11.2744C26.3326 11.313 26.3979 11.3771 26.4368 11.4067C26.8401 11.7438 27.4692 11.7238 27.8499 11.3616ZM18.8377 10.7845L19.0988 10.2475L19.3515 10.7845H18.8377ZM18.903 9.73095L17.9678 11.589H18.4514L18.6329 11.2049H19.5521L19.7397 11.589H20.2685L19.3211 9.73095H18.903ZM15.721 10.2474L15.9731 10.7844H15.4593L15.721 10.2474ZM15.9425 9.73085H15.5249L14.5897 11.5889H15.0733L15.2546 11.2048H16.174L16.3616 11.5889H16.8904L15.9425 9.73085ZM24.8653 10.0918L25.2338 10.0916C25.3808 10.0916 25.5001 10.1902 25.5001 10.3118C25.5001 10.4335 25.3808 10.532 25.2338 10.532L24.8653 10.5322V10.0918ZM24.9666 9.72346H24.4176V11.5887H24.8653V10.9035H25.0528L25.5846 11.5887H26.1441L25.5061 10.8377L25.5091 10.837C25.7602 10.7531 25.9381 10.5452 25.9381 10.3004C25.9381 9.98168 25.6359 9.72341 25.2635 9.72341H25.0283L24.9666 9.72346Z" fill="#0055A0"/>
</g>
<defs>
<clipPath id="clip0_371_27089">
<rect width="42" height="12" fill="white"/>
</clipPath>
</defs>
</svg>
