<svg width="62" height="12" viewBox="0 0 62 12" fill="none" xmlns="http://www.w3.org/2000/svg">
<path id="Vector" d="M5.96923 6.59391C5.96923 8.35406 5.5728 8.97077 4.25138 8.97077C2.92996 8.97077 2.53353 8.35406 2.53353 6.59391V5.40609C2.53353 3.64594 2.92996 3.03043 4.25138 3.03043C5.5728 3.03043 5.96923 3.64594 5.96923 5.40609V6.59391ZM9.91308 0.5C8.85474 0.5 7.99582 0.829952 7.44803 1.60024C6.65277 0.808355 5.52595 0.5 4.25138 0.5C1.92207 0.5 0 1.57984 0 4.74618V7.25382C0 10.4226 1.92207 11.5 4.25138 11.5C6.60832 11.5 8.50276 10.4202 8.50276 7.25382V4.6358C8.50276 3.33759 8.96526 3.03043 9.6488 3.03043C10.3323 3.03043 10.7936 3.33759 10.7936 4.6358V11.3248H13.3272V4.74618C13.3272 1.57984 11.7847 0.5 9.91308 0.5ZM17.0584 6.59391C17.0584 8.35406 17.4548 8.97077 18.7762 8.97077C20.0977 8.97077 20.4953 8.35406 20.4953 6.59391V5.40609C20.4953 3.64594 20.0977 3.03043 18.7762 3.03043C17.653 3.03043 17.0584 3.49236 17.0584 4.74618H14.5285C14.5285 1.57984 16.4457 0.5 18.7798 0.5C21.1428 0.5 23.0312 1.57984 23.0312 4.74618V7.25382C23.0312 10.4226 21.1368 11.5 18.7798 11.5C16.4457 11.5 14.5285 10.4202 14.5285 7.25382V6.59391H17.0584ZM36.0076 6.59391C36.0076 8.35406 36.404 8.97077 37.7254 8.97077C39.0469 8.97077 39.4433 8.35406 39.4433 6.59391V5.40609C39.4433 3.64594 39.0469 3.03043 37.7254 3.03043C36.6022 3.03043 36.0076 3.49236 36.0076 4.74618H33.4741C33.4741 1.57984 35.3901 0.5 37.7206 0.5C40.0776 0.5 41.972 1.57984 41.972 4.74618V7.25382C41.972 10.4226 40.0776 11.5 37.7206 11.5C35.3853 11.5 33.4693 10.4202 33.4693 7.25382V6.59391H36.0076ZM43.1745 7.27661C43.1745 10.4442 45.0966 11.5 47.4259 11.5H48.2668C50.6021 11.5 52.4966 10.4202 52.4966 7.27661V6.22077C52.4966 3.44797 51.0202 2.28174 49.0813 2.04058V0.697971H46.5886V6.59391H49.0777V4.15227C49.7384 4.39223 49.9594 5.07613 49.9594 6.37435V6.59391C49.9594 8.35406 49.5846 8.97077 48.2632 8.97077H47.4223C46.1009 8.97077 45.7044 8.35406 45.7044 6.59391V2.94164H43.1745V7.27661ZM59.4713 7.27661C59.4713 6.17637 59.1842 5.95681 58.3901 5.3185C57.1564 4.32864 57.1564 4.32864 57.1348 4.30585C55.9467 3.29439 55.3797 3.00764 55.3797 1.35788V0.697971H57.9024V1.1599C57.9024 1.95179 58.4093 2.17256 59.6431 3.2284C59.8185 3.38198 59.995 3.53556 60.4575 3.9543C61.2059 4.6586 62 5.20812 62 6.83388V7.25142C62 10.4202 60.0779 11.4976 57.7486 11.4976C55.4193 11.4976 53.4972 10.4178 53.4972 7.25142V6.59151H56.0296C56.0296 8.35166 56.426 8.96837 57.7486 8.96837C59.0712 8.96837 59.4497 8.35406 59.4713 7.27661ZM28.9596 5.18772C30.8733 5.18772 31.7142 4.02389 31.7142 2.92605C31.7142 1.38787 30.4552 0.509599 28.4322 0.509599C26.4753 0.509599 24.8284 1.14671 24.8284 3.49716H27.3571C27.3571 2.92605 27.5553 2.5961 28.2592 2.5961C28.9632 2.5961 29.1818 2.92605 29.1818 3.36518C29.1818 3.89191 28.765 4.17746 28.1271 4.17746L28.9596 5.18772ZM28.2785 8.96597C27.2225 8.96597 26.563 8.65761 26.563 7.73615C26.563 6.7031 27.2225 6.48353 28.2785 6.48353C29.3344 6.48353 29.9939 6.7031 29.9939 7.73615C29.9939 8.65881 29.3344 8.96597 28.2785 8.96597ZM28.2785 11.4856C30.6751 11.4856 32.5226 10.6949 32.5226 7.83933C32.5226 4.80857 30.6534 4.17147 28.2785 4.17147C25.9035 4.17147 24.0343 4.81937 24.0343 7.84533C24.0343 10.6985 25.8819 11.4916 28.2785 11.4916V11.4856Z" fill="#35393C"/>
</svg>
