<svg width="38" height="20" viewBox="0 0 38 20" fill="none" xmlns="http://www.w3.org/2000/svg">
<g id="Group">
<path id="Vector" d="M38.0001 8.78784H0V10.1189H38.0001V8.78784Z" fill="#F9A11E"/>
<g id="Group_2">
<path id="Vector_2" d="M2.97051 11.865V13.7698C2.97051 14.4469 2.50176 14.8264 1.81226 14.8264C1.12276 14.8264 0.694513 14.394 0.677979 13.7781H1.3063C1.31043 14.0715 1.45345 14.3163 1.80812 14.3163C2.16279 14.3163 2.30995 14.1245 2.30995 13.7326V13.1084C2.30995 12.8108 2.20413 12.619 1.92635 12.619C1.64857 12.619 1.53861 12.8066 1.53861 13.1167V13.2225H0.939227V13.1167C0.939227 12.5206 1.14343 12.1295 1.70644 12.1295C2.01233 12.1295 2.20826 12.2519 2.30995 12.4156V11.865H2.97051Z" fill="#34383E"/>
<path id="Vector_3" d="M4.39083 14.782H3.72613C3.5707 14.4844 3.44421 13.8478 3.44421 13.3989V13.203C3.44421 12.2812 3.79475 11.824 4.46027 11.824C4.80667 11.824 5.06379 12.0034 5.19855 12.3134C5.33744 11.9992 5.59869 11.824 5.95749 11.824C6.64285 11.824 6.93634 12.2729 6.93634 13.203V13.3989C6.93634 13.8437 6.80159 14.4761 6.65112 14.782H5.98643C6.14516 14.4232 6.27992 13.8883 6.27992 13.4154V13.1054C6.27992 12.5383 6.16169 12.3465 5.89218 12.3465C5.62266 12.3465 5.49204 12.5383 5.49204 13.0442V13.8478H4.88852V13.0401C4.88852 12.5383 4.76617 12.3465 4.50492 12.3465C4.22713 12.3465 4.10064 12.5383 4.10064 13.1095V13.4154C4.10064 13.8925 4.223 14.4315 4.39 14.782H4.39083Z" fill="#34383E"/>
<path id="Vector_4" d="M7.38535 13.8106V12.7822C7.38535 12.1332 7.63833 11.8645 8.29889 11.8645H9.57206V12.3663H8.42538C8.12362 12.3663 8.02937 12.5011 8.02937 12.7987V13.1294C8.16827 12.9335 8.44109 12.7822 8.81229 12.7822C9.3753 12.7822 9.72997 13.1534 9.72997 13.761V13.7933C9.72997 14.4538 9.23228 14.8259 8.54278 14.8259C7.85328 14.8259 7.38452 14.4381 7.38452 13.8098L7.38535 13.8106ZM9.07024 13.8106V13.79C9.07024 13.4469 8.87843 13.2352 8.55187 13.2352C8.20878 13.2352 8.02937 13.4436 8.02937 13.7858V13.8065C8.02937 14.1413 8.22531 14.3488 8.55187 14.3488C8.87843 14.3488 9.07024 14.1364 9.07024 13.8106Z" fill="#34383E"/>
<path id="Vector_5" d="M12.159 12.7298C12.1102 12.8075 12.0978 12.8852 12.0978 12.9579C12.0978 13.268 12.526 13.3622 12.526 13.888V13.9087C12.526 14.5048 12.049 14.8264 11.3794 14.8264C10.6452 14.8264 10.1674 14.4551 10.1674 13.721V11.865H10.8321V13.7012C10.8321 14.0972 11.0156 14.2972 11.3827 14.2972C11.7092 14.2972 11.8845 14.1542 11.8845 13.8773V13.8607C11.8845 13.5102 11.4686 13.3837 11.4686 12.9794C11.4686 12.9017 11.481 12.8124 11.5298 12.7306H12.1581L12.159 12.7298Z" fill="#34383E"/>
<path id="Vector_6" d="M15.7941 12.3465C15.4675 12.3465 15.3286 12.5995 15.3286 13.1625V13.3865C15.3286 14.2802 14.8839 14.8267 14.0761 14.8267C13.2684 14.8267 12.8278 14.2802 12.8278 13.4477V13.2071C12.8278 12.3382 13.2932 11.824 14.0761 11.824C14.5085 11.824 14.7946 12.0075 14.9897 12.3217C15.1649 12.0075 15.4708 11.824 15.8751 11.824C16.5687 11.824 16.8912 12.3093 16.8912 13.174V13.4311C16.8912 13.8553 16.7812 14.4753 16.5977 14.7812H15.8999C16.1281 14.4307 16.2265 13.8222 16.2265 13.4311V13.1616C16.2265 12.5986 16.1 12.3456 15.7941 12.3456V12.3465ZM14.64 13.4518V13.1823C14.64 12.6482 14.4564 12.3456 14.0811 12.3456C13.7058 12.3456 13.5181 12.6309 13.5181 13.1897V13.451C13.5181 14.0181 13.7347 14.2992 14.0852 14.2992C14.473 14.2992 14.64 14.0099 14.64 13.451V13.4518Z" fill="#34383E"/>
<path id="Vector_7" d="M18.3694 12.8315C18.61 12.8315 18.8505 12.929 18.9894 13.2233C19.1407 12.9538 19.4094 12.8315 19.7277 12.8315C20.3197 12.8315 20.6338 13.1944 20.6338 13.8517V13.8839C20.6338 14.308 20.5032 14.6346 20.4139 14.7817H19.7409C19.8509 14.5858 19.965 14.284 19.965 13.9533V13.8715C19.965 13.5292 19.8592 13.3333 19.6302 13.3333C19.4012 13.3333 19.2912 13.5334 19.2912 13.8674V14.2022H18.6505V13.8632C18.6505 13.5325 18.5447 13.3325 18.3198 13.3325C18.0949 13.3325 17.9767 13.5408 17.9767 13.8748V13.9682C17.9767 14.2948 18.0908 14.5841 18.2049 14.7801H17.5278C17.4377 14.6213 17.3079 14.2212 17.3079 13.6987V13.5805C17.3079 12.5239 17.708 11.9857 18.858 11.9402L19.1192 11.932C19.6004 11.9154 19.8947 11.8749 20.07 11.822V12.3156C19.8864 12.385 19.6012 12.409 19.1804 12.4255L18.8745 12.4297C18.099 12.466 17.9155 12.6992 17.8461 13.0663C17.9403 12.9232 18.1478 12.8298 18.3686 12.8298L18.3694 12.8315Z" fill="#34383E"/>
<path id="Vector_8" d="M20.9397 13.6436H21.5961C21.6002 14.0801 21.7672 14.2968 22.1426 14.2968C22.4733 14.2968 22.6444 14.1132 22.6444 13.766C22.6444 12.9946 21.7267 12.9905 21.7267 11.8645H22.3914C22.3914 12.7904 23.3339 12.8028 23.3339 13.766C23.3339 14.4431 22.8569 14.8267 22.1467 14.8267C21.3638 14.8267 20.9471 14.415 20.9388 13.6436H20.9397Z" fill="#34383E"/>
<path id="Vector_9" d="M25.9051 11.865V13.7698C25.9051 14.4469 25.4363 14.8264 24.7468 14.8264C24.0573 14.8264 23.6291 14.394 23.6125 13.7781H24.2409C24.245 14.0715 24.388 14.3163 24.7427 14.3163C25.0974 14.3163 25.2445 14.1245 25.2445 13.7326V13.1084C25.2445 12.8108 25.1387 12.619 24.8609 12.619C24.5831 12.619 24.4732 12.8066 24.4732 13.1167V13.2225H23.8738V13.1167C23.8738 12.5206 24.078 12.1295 24.641 12.1295C24.9469 12.1295 25.1428 12.2519 25.2445 12.4156V11.865H25.9051Z" fill="#34383E"/>
<path id="Vector_10" d="M26.3456 13.8434V13.8103C26.3456 13.2307 26.7292 12.8678 27.3005 12.8678C27.6312 12.8678 27.8957 12.9902 28.0346 13.1944V12.6272C28.0346 12.4106 27.937 12.2767 27.7287 12.2767C27.4964 12.2767 27.4063 12.4197 27.4063 12.6355V12.6686H26.8681V12.6355C26.8681 12.4114 26.7986 12.2767 26.5663 12.2767C26.5051 12.2767 26.4481 12.285 26.4076 12.3015V11.8526C26.4564 11.836 26.5506 11.8245 26.6118 11.8245C26.8606 11.8245 27.0524 11.9022 27.1748 12.1056C27.3096 11.9096 27.5584 11.8245 27.8312 11.8245C28.4149 11.8245 28.6919 12.1469 28.6919 12.6529V13.8078C28.6919 14.4568 28.2107 14.828 27.5129 14.828C26.8152 14.828 26.3464 14.4568 26.3464 13.845L26.3456 13.8434ZM28.0346 13.8351V13.8144C28.0346 13.4961 27.8469 13.3002 27.508 13.3002C27.169 13.3002 26.9896 13.4961 26.9896 13.8186V13.8351C26.9896 14.1492 27.1855 14.3493 27.508 14.3493C27.8304 14.3493 28.0346 14.1534 28.0346 13.8351Z" fill="#34383E"/>
<path id="Vector_11" d="M31.3111 13.7536C31.3111 14.4794 30.8498 14.8267 30.1727 14.8267C29.4385 14.8267 29.0301 14.3819 29.0186 13.7296H29.651C29.651 14.0479 29.794 14.2967 30.1652 14.2967C30.4918 14.2967 30.6505 14.1413 30.6505 13.742V12.8814C30.6505 12.5226 30.4835 12.3547 30.1776 12.3547C29.8511 12.3547 29.6923 12.5217 29.6923 12.8318H29.093C29.0682 12.2241 29.489 11.824 30.19 11.824C30.8911 11.824 31.3119 12.1704 31.3119 12.8442V13.7536H31.3111Z" fill="#34383E"/>
<path id="Vector_12" d="M31.7392 13.8106V12.7822C31.7392 12.1332 31.9922 11.8645 32.6528 11.8645H33.9259V12.3663H32.7793C32.4775 12.3663 32.3833 12.5011 32.3833 12.7987V13.1294C32.5221 12.9335 32.795 12.7822 33.1662 12.7822C33.7292 12.7822 34.0839 13.1534 34.0839 13.761V13.7933C34.0839 14.4538 33.5862 14.8259 32.8967 14.8259C32.2072 14.8259 31.7384 14.4381 31.7384 13.8098L31.7392 13.8106ZM33.4241 13.8106V13.79C33.4241 13.4469 33.2323 13.2352 32.9058 13.2352C32.5627 13.2352 32.3833 13.4436 32.3833 13.7858V13.8065C32.3833 14.1413 32.5792 14.3488 32.9058 14.3488C33.2323 14.3488 33.4241 14.1364 33.4241 13.8106Z" fill="#34383E"/>
<path id="Vector_13" d="M2.94656 18.6493C2.94656 19.3752 2.48524 19.7224 1.80815 19.7224C1.07401 19.7224 0.665599 19.2776 0.653198 18.6254H1.28565C1.28565 18.9436 1.42868 19.1925 1.79988 19.1925C2.12644 19.1925 2.28518 19.0371 2.28518 18.6378V17.7771C2.28518 17.4183 2.11817 17.2505 1.81228 17.2505C1.48572 17.2505 1.32699 17.4175 1.32699 17.7275H0.727606C0.702804 17.1199 1.12361 16.7197 1.82468 16.7197C2.52575 16.7197 2.94656 17.0661 2.94656 17.7399V18.6493Z" fill="#34383E"/>
<path id="Vector_14" d="M5.56158 16.761V18.6666C5.56158 19.3437 5.09282 19.7232 4.40332 19.7232C3.71383 19.7232 3.28558 19.2908 3.26904 18.6749H3.89736C3.9015 18.9684 4.04452 19.2131 4.39919 19.2131C4.75386 19.2131 4.90102 19.0213 4.90102 18.6294V18.0052C4.90102 17.7076 4.7952 17.5158 4.51741 17.5158C4.23963 17.5158 4.12967 17.7035 4.12967 18.0135V18.1193H3.53029V18.0135C3.53029 17.4174 3.7345 17.0264 4.2975 17.0264C4.60339 17.0264 4.79933 17.1487 4.90102 17.3116V16.761H5.56158Z" fill="#34383E"/>
<path id="Vector_15" d="M5.91697 18.7352H6.54528C6.55355 19.0047 6.69658 19.2411 7.07935 19.2411C7.41418 19.2411 7.58118 19.0741 7.58118 18.8129C7.58118 18.5516 7.44642 18.4086 7.06282 18.4086H6.73212V17.9597H7.07522C7.38111 17.9597 7.50347 17.8009 7.50347 17.5678C7.50347 17.3347 7.35218 17.2049 7.08762 17.2049C6.78173 17.2049 6.63871 17.3479 6.59406 17.6166H6.01039C6.0757 17.0618 6.44277 16.7188 7.11986 16.7188C7.74818 16.7188 8.14419 17.0453 8.14419 17.5223C8.14419 17.8406 7.96479 18.0812 7.64236 18.1672C8.00116 18.2201 8.24588 18.4896 8.24588 18.8567C8.24588 19.3585 7.84987 19.7215 7.10333 19.7215C6.35679 19.7215 5.94507 19.3097 5.91614 18.7343L5.91697 18.7352Z" fill="#34383E"/>
<path id="Vector_16" d="M8.59326 18.3476V18.1921C8.59326 17.2207 9.04218 16.7197 9.82096 16.7197C10.5997 16.7197 11.0404 17.2174 11.0404 18.1921V18.3509C11.0404 18.8775 10.9015 19.3545 10.7428 19.677H10.0781C10.2657 19.2892 10.3757 18.8403 10.3757 18.3145V18.1632C10.3757 17.5919 10.2203 17.2414 9.82096 17.2414C9.42165 17.2414 9.25796 17.5638 9.25796 18.1673V18.3145C9.25796 18.8329 9.36378 19.3099 9.55558 19.677H8.88675C8.69909 19.3347 8.59326 18.8246 8.59326 18.3467V18.3476Z" fill="#34383E"/>
<path id="Vector_17" d="M11.3884 17.6746V17.6539C11.3884 17.0827 11.8125 16.7197 12.5351 16.7197C12.9104 16.7197 13.2122 16.8214 13.4247 17.0744C13.5834 16.8421 13.8976 16.7197 14.2655 16.7197C14.8326 16.7197 15.2038 16.9644 15.2038 17.4216V17.4423C15.2038 17.7928 14.9384 18.0094 14.6697 18.0706C14.9508 18.1153 15.2493 18.3525 15.2493 18.7684V18.7849C15.2493 19.405 14.7152 19.7233 13.7116 19.7233C12.7079 19.7233 12.2631 19.405 12.1573 18.9031H12.8551C12.9815 19.1561 13.2792 19.2495 13.7157 19.2495C14.2423 19.2495 14.5565 19.1024 14.5565 18.756V18.7436C14.5565 18.4699 14.3729 18.3352 14.0952 18.3352H13.9769V17.8821H14.0869C14.368 17.8821 14.5069 17.735 14.5069 17.5109C14.5069 17.3067 14.3763 17.1844 14.1439 17.1844C13.8256 17.1844 13.6909 17.3638 13.6826 17.6779V17.682C13.6578 18.2451 13.2097 18.5956 12.5318 18.5956C11.8539 18.5956 11.3893 18.2327 11.3893 17.6738L11.3884 17.6746ZM13.0245 17.6787V17.6465C13.0245 17.3646 12.8451 17.1777 12.5351 17.1777C12.2251 17.1777 12.0457 17.3613 12.0457 17.6424V17.6746C12.0457 17.9524 12.2168 18.1359 12.5351 18.1359C12.8534 18.1359 13.0245 17.9483 13.0245 17.6787Z" fill="#34383E"/>
<path id="Vector_18" d="M15.6147 18.7394V18.7072C15.6147 18.1359 16.0066 17.7647 16.5977 17.7647C16.9202 17.7647 17.1897 17.8953 17.3195 18.083V17.6953C17.3195 17.3522 17.1566 17.1934 16.8466 17.1934C16.5366 17.1934 16.353 17.3117 16.3125 17.6052H15.7173C15.7743 17.0422 16.186 16.7197 16.8755 16.7197C17.565 16.7197 17.9652 17.0909 17.9652 17.7151V18.7229C17.9652 19.3388 17.4716 19.7224 16.7862 19.7224C16.1009 19.7224 15.6156 19.3554 15.6156 18.7394H15.6147ZM17.3203 18.727V18.7105C17.3203 18.3881 17.1368 18.1921 16.7978 18.1921C16.4588 18.1921 16.2753 18.3922 16.2753 18.7105V18.7312C16.2753 19.0453 16.4671 19.2454 16.7978 19.2454C17.1285 19.2454 17.3203 19.0453 17.3203 18.727Z" fill="#34383E"/>
<path id="Vector_19" d="M20.5883 18.6493C20.5883 19.3752 20.127 19.7224 19.4499 19.7224C18.7158 19.7224 18.3074 19.2776 18.2958 18.6254H18.9282C18.9282 18.9436 19.0713 19.1925 19.4425 19.1925C19.769 19.1925 19.9278 19.0371 19.9278 18.6378V17.7771C19.9278 17.4183 19.7608 17.2505 19.4549 17.2505C19.1283 17.2505 18.9696 17.4175 18.9696 17.7275H18.3702C18.3454 17.1199 18.7662 16.7197 19.4673 16.7197C20.1683 16.7197 20.5891 17.0661 20.5891 17.7399V18.6493H20.5883Z" fill="#34383E"/>
<path id="Vector_20" d="M21.0174 18.7064V17.6779C21.0174 17.0289 21.2704 16.7603 21.931 16.7603H23.2041V17.2621H22.0575C21.7557 17.2621 21.6615 17.3968 21.6615 17.6945V18.0252C21.8003 17.8292 22.0732 17.6788 22.4444 17.6788C23.0074 17.6788 23.362 18.05 23.362 18.6576V18.6907C23.362 19.3512 22.8644 19.7224 22.1749 19.7224C21.4854 19.7224 21.0166 19.3347 21.0166 18.7064H21.0174ZM22.7023 18.7064V18.6857C22.7023 18.3435 22.5105 18.131 22.184 18.131C21.8409 18.131 21.6615 18.3393 21.6615 18.6816V18.7023C21.6615 19.0371 21.8574 19.2446 22.184 19.2446C22.5105 19.2446 22.7023 19.0321 22.7023 18.7064Z" fill="#34383E"/>
<path id="Vector_21" d="M26.6839 17.2422C26.3573 17.2422 26.2184 17.4952 26.2184 18.0582V18.2823C26.2184 19.176 25.7736 19.7224 24.9659 19.7224C24.1582 19.7224 23.7175 19.176 23.7175 18.3434V18.1029C23.7175 17.234 24.183 16.7197 24.9659 16.7197C25.3983 16.7197 25.6843 16.9033 25.8794 17.2174C26.0547 16.9033 26.3606 16.7197 26.7649 16.7197C27.4585 16.7197 27.7809 17.205 27.7809 18.0698V18.3269C27.7809 18.751 27.671 19.3711 27.4874 19.677H26.7897C27.0179 19.3264 27.1162 18.7179 27.1162 18.3269V18.0574C27.1162 17.4944 26.9897 17.2414 26.6839 17.2414V17.2422ZM25.5297 18.3476V18.0781C25.5297 17.544 25.3462 17.2414 24.9709 17.2414C24.5955 17.2414 24.4079 17.5266 24.4079 18.0855V18.3467C24.4079 18.9139 24.6245 19.195 24.975 19.195C25.3627 19.195 25.5297 18.9056 25.5297 18.3467V18.3476Z" fill="#34383E"/>
</g>
<g id="Group_3">
<path id="Vector_22" d="M6.41878 0.276611C5.79212 0.276611 5.28368 0.472546 4.95712 0.928904C4.48753 0.459319 3.82201 0.276611 3.06472 0.276611C1.68159 0.276611 0.545654 0.916505 0.545654 2.79567V4.2838C0.545654 6.16297 1.68076 6.80286 3.06472 6.80286C4.44867 6.80286 5.58378 6.16297 5.58378 4.2838V2.73036C5.58378 1.96067 5.85825 1.77796 6.26253 1.77796C6.6668 1.77796 6.94128 1.96067 6.94128 2.73036V6.69786H8.4418V2.79567C8.4418 0.916505 7.52826 0.276611 6.41878 0.276611ZM4.08243 3.89192C4.08243 4.93609 3.84764 5.30151 3.06472 5.30151C2.2818 5.30151 2.04701 4.93609 2.04701 3.89192V3.18755C2.04701 2.14338 2.2818 1.77796 3.06472 1.77796C3.84764 1.77796 4.08243 2.14338 4.08243 3.18755V3.89192Z" fill="#34383E"/>
<path id="Vector_23" d="M11.7488 0.276611C10.3657 0.276611 9.22974 0.916505 9.22974 2.79567H10.7303C10.7303 2.05161 11.0824 1.77796 11.748 1.77796C12.5309 1.77796 12.7657 2.14338 12.7657 3.18755V3.89192C12.7657 4.93609 12.5309 5.30151 11.748 5.30151C10.9651 5.30151 10.7303 4.93609 10.7303 3.89192H9.22974V4.2838C9.22974 6.16297 10.3648 6.80286 11.7488 6.80286C13.1328 6.80286 14.2679 6.16297 14.2679 4.2838V2.79567C14.2679 0.916505 13.1452 0.276611 11.7488 0.276611Z" fill="#34383E"/>
<path id="Vector_24" d="M22.9983 0.276611C21.6152 0.276611 20.4792 0.916505 20.4792 2.79567H21.9798C21.9798 2.05161 22.332 1.77796 22.9975 1.77796C23.7804 1.77796 24.0152 2.14338 24.0152 3.18755V3.89192C24.0152 4.93609 23.7804 5.30151 22.9975 5.30151C22.2146 5.30151 21.9798 4.93609 21.9798 3.89192H20.4792V4.2838C20.4792 6.16297 21.6144 6.80286 22.9983 6.80286C24.3823 6.80286 25.5174 6.16297 25.5174 4.2838V2.79567C25.5174 0.916505 24.3947 0.276611 22.9983 0.276611Z" fill="#34383E"/>
<path id="Vector_25" d="M29.8022 1.18995V0.393799H28.3273V3.89172H29.8022V2.44328C30.1941 2.58713 30.3239 2.9914 30.3239 3.76109V3.89172C30.3239 4.93588 30.1023 5.3013 29.3186 5.3013H28.8226C28.0396 5.3013 27.8048 4.93588 27.8048 3.89172V1.72484H26.3043V4.29599C26.3043 6.17516 27.4394 6.80183 28.8234 6.80183H29.3194C30.7026 6.80183 31.8253 6.16193 31.8253 4.29599V3.66932C31.8253 2.02495 30.9506 1.33297 29.8022 1.18995Z" fill="#34383E"/>
<path id="Vector_26" d="M36.541 2.32563C36.2666 2.07761 36.1624 1.98667 36.0582 1.8949C35.3274 1.26824 35.0273 1.13761 35.0273 0.668029V0.393555H33.5268V0.785426C33.5268 1.76428 33.8657 1.93376 34.5709 2.53397C34.5798 2.54279 34.8278 2.74286 35.315 3.13418C35.7846 3.51283 35.9549 3.64345 35.9549 4.29574C35.9417 4.93564 35.7201 5.30105 34.9372 5.30105C34.1543 5.30105 33.9195 4.93564 33.9195 3.89147H32.4189V4.28334C32.4189 6.16251 33.5541 6.80241 34.938 6.80241C36.322 6.80241 37.4571 6.16251 37.4571 4.28334V4.03532C37.4571 3.0697 36.9875 2.74314 36.5435 2.32563H36.541Z" fill="#34383E"/>
<path id="Vector_27" d="M18.9058 2.72523C19.2473 2.46398 19.406 2.08368 19.406 1.71579C19.406 0.803899 18.6636 0.282227 17.4649 0.282227C16.2661 0.282227 15.3277 0.660046 15.3277 2.05392H16.8258C16.8258 1.71496 16.9432 1.51985 17.3599 1.51985C17.7765 1.51985 17.9072 1.71496 17.9072 1.97621C17.9072 2.28871 17.66 2.45819 17.2821 2.45819C15.918 2.47556 14.8582 2.87487 14.8582 4.63416C14.8582 6.39346 15.9528 6.7969 17.3731 6.7969C18.7934 6.7969 19.888 6.32814 19.888 4.63416C19.888 3.57842 19.5061 3.01293 18.9058 2.72523ZM17.3731 5.29803C16.7481 5.29803 16.357 5.11532 16.357 4.56802C16.357 3.95541 16.7481 3.82562 17.3731 3.82562C17.9981 3.82562 18.3891 3.95624 18.3891 4.56802C18.3891 5.11532 17.9981 5.29803 17.3731 5.29803Z" fill="#34383E"/>
</g>
</g>
</svg>
