<svg width="80" height="80" viewBox="0 0 80 80" fill="none" xmlns="http://www.w3.org/2000/svg">
<path d="M0 4C0 1.79086 1.79086 0 4 0H76C78.2091 0 80 1.79086 80 4V76C80 78.2091 78.2091 80 76 80H4C1.79086 80 0 78.2091 0 76V4Z" fill="#0E8102"/>
<path d="M39.8036 44.5736C18.8736 44.5736 4 45.8643 4 45.8643V46.4255H41.0382L41.431 44.5736C40.9574 44.5718 40.3872 44.5736 39.8036 44.5736ZM42.5534 44.5736L42.2167 46.4255H76V45.8643C76 45.8643 62.0445 44.6791 42.5534 44.5736Z" fill="#FFEA00"/>
<path d="M13.1472 33.5742L11.1831 42.8338H18.254L18.5346 41.0941H13.7084L14.1574 38.9616H18.5346L18.8713 37.1097H14.4941L14.8869 35.37H19.7692L20.0498 33.5742H13.1472ZM36.7731 35.819C34.0166 35.819 32.9032 37.2848 32.452 39.4105C32.0008 41.5341 33.0536 43.0582 35.2579 43.0582C37.8775 43.0582 39.1279 41.5902 39.5791 39.4667C40.0325 37.3409 39.3164 35.819 36.7731 35.819ZM52.5424 35.819C49.7859 35.819 48.7286 37.287 48.2774 39.4105C47.8262 41.5363 48.8229 43.0582 51.0272 43.0582C53.263 43.0582 54.5268 41.9942 55.1239 40.3646H53.0475C52.7647 41.0268 52.309 41.4869 51.3639 41.4869C50.1271 41.4869 50.0126 40.4296 50.2416 39.3544C50.4705 38.2792 51.025 37.2219 52.2618 37.2219C53.2158 37.2219 53.4785 37.8908 53.4403 38.681H55.4606C55.5818 36.9772 54.758 35.819 52.5424 35.819ZM45.3031 35.9312C44.6836 35.9312 43.6802 36.0793 43.1706 36.6046L43.2829 36.0995H41.2626C41.1953 36.544 39.1862 46.4253 39.1862 46.4253H41.1504L41.9921 42.3848C42.3805 42.9864 43.4759 43.1144 43.9563 43.1144C45.9339 43.1144 46.843 41.1996 47.2112 39.4667C47.5973 37.6507 47.2291 35.9312 45.3031 35.9312ZM60.2307 35.9312C56.7019 35.8346 56.8635 38.1198 56.8635 38.1198H58.7155C58.7155 38.1198 58.6907 37.2219 60.0062 37.2219C60.0062 37.2219 61.1936 37.168 61.0163 38.0076C61.0163 38.0076 60.9915 38.7326 60.1745 38.681C60.1745 38.681 56.2642 38.2747 55.9656 41.1502C55.9656 41.1502 55.804 43.1705 58.0981 43.1705C58.0981 43.1705 59.6044 43.1256 60.2868 42.3848C60.2868 42.3848 60.4776 42.8338 61.1285 42.8338H62.2509L62.5876 41.4869L62.4194 41.3747C62.4194 41.3747 62.2825 41.3926 62.3633 41.038L63.0929 37.5025C63.4094 35.9604 60.2308 35.9312 60.2308 35.9312H60.2307ZM20.7232 36.0995L19.7692 40.4767C19.7198 40.7057 19.639 41.1254 19.657 41.5429C19.6908 42.5239 20.8938 43.002 21.565 43.002C22.5056 43.002 23.1049 42.7686 23.5853 42.3847V42.8337H25.6056C25.6505 42.4296 25.702 42.0592 25.7738 41.6552L26.9523 36.0995H24.932L24.0903 39.9716C23.8546 40.9548 23.134 41.1501 22.6312 41.1501C21.7647 41.1501 21.7086 40.773 21.8455 40.14L22.7434 36.0995H20.7232ZM28.2992 36.0995C28.2208 36.5978 26.9524 42.8337 26.9524 42.8337H29.0849L29.8144 39.3543C29.9042 38.9144 29.875 38.4587 30.1512 38.0636C30.3711 37.7471 30.9323 37.6416 31.2735 37.6147H32.2275L32.6204 36.0995C31.6933 36.0995 31.0894 36.0792 30.3195 36.6045V36.0995H28.2992ZM64.9446 36.0995C64.8659 36.5978 63.5978 42.8337 63.5978 42.8337H65.7303L66.4037 39.3543C66.4935 38.9144 66.5204 38.4587 66.7965 38.0636C67.0187 37.7471 67.5777 37.6416 67.9189 37.6147H68.8168L69.2657 36.0995C68.3387 36.0995 67.7348 36.0792 66.9649 36.6045V36.0995H64.9446ZM36.4925 37.2218C37.7294 37.2218 37.7878 38.3352 37.5588 39.4104C37.3298 40.4857 36.9594 41.4868 35.5946 41.4868C34.3578 41.4868 34.2433 40.4296 34.4723 39.3543C34.7012 38.2791 35.2557 37.2218 36.4925 37.2218ZM44.4052 37.5024C45.3233 37.5024 45.5792 38.3756 45.3593 39.4104C45.1393 40.4475 44.5983 41.3185 43.5635 41.3185C42.4748 41.3185 42.3558 40.3375 42.5533 39.4104C42.7509 38.4811 43.3165 37.5024 44.4052 37.5024ZM60.5112 39.8594C60.5112 39.8594 60.2172 41.7113 58.7155 41.7113C58.7155 41.7113 57.8737 41.7673 57.8737 41.094C57.8737 41.094 57.894 40.232 59.1083 40.0839C59.1083 40.0839 60.0511 40.0189 60.5112 39.8594Z" fill="white"/>
</svg>
