<svg width="38" height="22" viewBox="0 0 38 22" fill="none" xmlns="http://www.w3.org/2000/svg">
<g id="Group 11">
<path id="Vector" d="M2.99156 15.4571H8.22439V13.6045H0.881592V21.9976H2.99156V18.9894H5.92962V17.0735H2.99156V15.4571Z" fill="#0054A1"/>
<path id="Vector_2" d="M12.2314 18.3648H9.92963L11.0992 15.939L12.2291 18.3648H12.2314ZM10.222 13.6045L6.04419 21.9999H8.21264L9.02435 20.2642H13.132L13.9718 21.9999H16.3367L12.0957 13.6045H10.222Z" fill="#0054A1"/>
<path id="Vector_3" d="M15.8455 13.6045L18.7601 16.5004L21.6631 13.6045H24.3064L19.8175 18.2853V21.9976H17.6935V18.2853L13.2139 13.6045H15.8455Z" fill="#0054A1"/>
<path id="Vector_4" d="M27.6843 18.3648H25.3825L26.5521 15.939L27.682 18.3648H27.6843ZM25.6749 13.6045L21.483 21.9999H23.6515L24.4632 20.2642H28.5826L29.4223 21.9999H31.792L27.5486 13.6045H25.6749Z" fill="#0054A1"/>
<path id="Vector_5" d="M30.0913 13.6045V15.4899H32.6411V21.9976H34.751V15.4899H37.1183V13.6045H30.0913Z" fill="#0054A1"/>
<g id="Group 12">
<path id="Vector_6" d="M25.2937 6.52826L18.7649 -0.000488281L17.2257 1.53638L22.255 6.56569L19.6257 9.19497L21.1299 10.6991L25.2937 6.52826Z" fill="#FFD800"/>
<path id="Vector_7" d="M20.5053 6.57493L18.7556 4.8252L17.0059 6.57493L18.7556 8.32466L20.5053 6.57493Z" fill="#FFD800"/>
<path id="Vector_8" d="M20.2877 11.5339L15.2771 6.52329L17.8666 3.93612L16.3485 2.41797L12.2291 6.53499L18.7579 13.0637L20.2877 11.5339Z" fill="#FFD800"/>
</g>
</g>
</svg>
