<svg width="40" height="14" viewBox="0 0 40 14" fill="none" xmlns="http://www.w3.org/2000/svg">
<g id="Group 8">
<path id="Subtract" fill-rule="evenodd" clip-rule="evenodd" d="M31.1263 3.73084L36.122 0.846191H22.9809L17.9778 3.73084H31.1263ZM18.4712 11.0383H5.3037L1.63464 13.1538H14.8076L18.4712 11.0383Z" fill="#81B151"/>
<path id="Subtract_2" fill-rule="evenodd" clip-rule="evenodd" d="M22.4292 11.0383L18.7822 13.1538H15.5769L19.2239 11.0383H22.4292ZM35.027 3.73084L40.0001 0.846191H36.795L31.8219 3.73084H35.027Z" fill="#559452"/>
<path id="Vector" fill-rule="evenodd" clip-rule="evenodd" d="M0 4.50011H5.54476L5.83335 5.87845H3.26923L3.49341 6.80796H6.02544L6.24963 8.12188H3.78223L4.26292 10.2053H1.63461L0 4.50011ZM20.8653 4.46802L20.3849 10.2374H25.8333L25.9617 10.2053L26.1217 10.1732L26.2178 10.1411L26.3143 10.1086L26.4743 10.0446L26.5703 9.98068L26.6347 9.91673L26.7947 9.75627L26.8908 9.56418L26.9229 9.43581L26.9554 9.33976L26.9875 9.14722L27.0835 8.73071L27.3401 7.5126L27.7245 5.74985V5.36521L27.6924 5.23707L27.6284 5.10871L27.5645 5.01266L27.5001 4.88452L27.404 4.82057L27.308 4.72452L27.1796 4.66034L27.0517 4.59616L26.9233 4.5322L26.7954 4.50011L26.6675 4.46802H20.8653ZM23.3974 5.87822L22.9809 8.95535H24.2629L24.359 8.92326L24.4234 8.89117L24.4873 8.85908L24.5194 8.79467L24.5515 8.73071V8.69862L24.9359 6.23077L24.968 6.19868L24.9359 6.13449V6.07054L24.9038 6.00636L24.8717 5.9424L24.7757 5.87822H23.3974ZM27.9807 5.87822H29.4872L28.4612 10.2053H31.1216L32.4355 5.87822H34.1341L34.5831 4.49988H28.301L27.9807 5.87822ZM13.0769 10.2053L12.7241 4.50011H15.8331L18.0126 7.73747L18.1728 4.50011H19.8716L19.487 10.2053H16.6666L14.5192 7.25633L14.5513 10.2053H13.0769ZM6.31427 4.50011L7.30773 10.2053H12.3076L12.2116 8.95535H9.77559L9.67954 8.12188H12.1474L12.0513 6.77587H9.48722L9.32699 5.84635H11.9872L11.8909 4.50011H6.31427Z" fill="#605F5C"/>
</g>
</svg>
