<svg width="24" height="30" viewBox="0 0 24 30" fill="none" xmlns="http://www.w3.org/2000/svg">
<g id="Layer_2">
<g id="Group">
<g id="Group_2">
<path id="Vector" d="M6.41956 26.7715C5.45856 26.7985 4.70037 27.5432 4.72533 28.4345C4.75029 29.3259 5.54905 30.0268 6.51005 29.9998C7.47105 29.9728 8.23028 29.2291 8.20532 28.3368C8.18036 27.4455 7.38056 26.7445 6.41956 26.7715ZM6.46532 29.1792C6.02747 29.1792 5.67177 28.8235 5.67177 28.3857C5.67177 27.9478 6.02747 27.5931 6.46532 27.5931C6.90318 27.5931 7.25888 27.9478 7.25888 28.3857C7.25888 28.8235 6.90318 29.1792 6.46532 29.1792Z" fill="#E63312"/>
</g>
<g id="Group_3">
<path id="Vector_2" d="M16.3687 26.7652C15.4077 26.7922 14.6495 27.5369 14.6744 28.4282C14.6994 29.3195 15.4981 30.0205 16.4591 29.9935C17.4201 29.9664 18.1794 29.2217 18.1544 28.3304C18.1295 27.4391 17.3297 26.7381 16.3687 26.7652ZM16.4144 29.1718C15.9755 29.1718 15.6209 28.8172 15.6209 28.3793C15.6209 27.9414 15.9755 27.5858 16.4144 27.5858C16.8523 27.5858 17.2069 27.9414 17.2069 28.3793C17.2069 28.8172 16.8523 29.1718 16.4144 29.1718Z" fill="#E63312"/>
</g>
<g id="Group_4">
<path id="Vector_3" d="M10.8367 29.1014V29.9199H8.61206V26.8486H9.53354V29.1014H10.8367Z" fill="#E63312"/>
</g>
<g id="Group_5">
<path id="Vector_4" d="M12.9645 26.8486H11.3077V29.9199H12.8678C12.8678 29.9199 14.3509 29.8367 14.3509 28.3848C14.3509 26.9318 12.9645 26.8486 12.9645 26.8486ZM12.8366 29.1024H12.2375V27.6567H12.874C12.874 27.6567 13.4076 27.6963 13.4076 28.3796C13.4076 29.0629 12.8366 29.1024 12.8366 29.1024Z" fill="#E63312"/>
</g>
<g id="Group_6">
<path id="Vector_5" d="M20.5704 26.8486H21.4971V29.9199H20.7576L19.4742 28.3432V29.9199H18.561V26.8486H19.313L20.5704 28.3796V26.8486Z" fill="#E63312"/>
</g>
<g id="Group_7">
<path id="Vector_6" d="M22.9677 26.8486H22.0493V29.9199H22.9677V26.8486Z" fill="#E63312"/>
</g>
<g id="Group_8">
<path id="Vector_7" d="M3.35354 27.8241H4.32598C4.32598 27.8241 4.08781 26.8246 2.71911 26.7788C1.08728 26.7788 1.01656 28.2047 1.01656 28.2047C1.01656 28.2047 0.855351 29.9873 2.72223 29.9873C4.64319 29.9873 4.40294 28.1329 4.40294 28.1329H2.88344L2.72223 28.7643H3.43674C3.43674 28.7643 3.38578 29.2084 2.71911 29.2084C2.03996 29.2084 1.92348 28.6197 1.92348 28.3326C1.92348 28.004 2.16893 27.5599 2.71911 27.5599C3.12161 27.5412 3.35354 27.8241 3.35354 27.8241Z" fill="#E63312"/>
</g>
<g id="Group_9">
<path id="Vector_8" d="M23.0966 21.4169C22.6057 23.0362 21.8143 23.4293 14.8668 23.9005C14.6494 23.915 14.431 23.9192 14.2136 23.9192C6.62962 23.9192 2.07111 23.5978 1.22347 22.1906C0.42888 20.8719 -0.109862 16.4995 0.0378241 10.9831C0.190711 5.25249 0.580727 3.67475 0.909381 2.46934C1.23803 1.26393 2.31448 0.947753 2.31448 0.947753C4.7773 0.102197 11.9172 -0.204615 16.1855 0.136519C20.4539 0.477653 21.8912 0.833348 22.5309 1.47402C23.1715 2.11364 23.5262 4.12821 23.5543 4.86664C23.5823 5.60611 22.9406 5.63731 22.9406 5.63731L6.13352 5.66331C5.56774 5.66435 5.24012 6.30606 5.5719 6.76472L13.6905 17.9837C13.8298 18.1761 14.0503 18.2905 14.2875 18.2936L16.7222 18.3279C17.2422 18.3352 17.5948 17.8027 17.3847 17.3274L15.1289 12.2073C14.9417 11.7829 15.2516 11.3066 15.7154 11.3055C17.7976 11.3014 22.5152 11.2972 23.1798 11.3274C24.0368 11.3659 23.9786 11.9681 23.9786 11.9681C24.0524 14.5026 23.5969 19.7694 23.0966 21.4169Z" fill="#E63312"/>
</g>
</g>
</g>
</svg>
