<?xml version="1.0" encoding="utf-8"?>
<!-- Generator: Adobe Illustrator 26.0.1, SVG Export Plug-In . SVG Version: 6.00 Build 0)  -->
<svg version="1.1" id="Layer_1" xmlns="http://www.w3.org/2000/svg" xmlns:xlink="http://www.w3.org/1999/xlink" x="0px" y="0px"
	 viewBox="0 0 708.44 242.5" style="enable-background:new 0 0 708.44 242.5;" xml:space="preserve">
<style type="text/css">
	.st0{fill:#E41E26;}
</style>
<g>
	<polygon class="st0" points="255.64,71.32 255.64,161.69 209.83,161.69 209.83,122.87 142.46,122.87 142.46,161.69 98.13,161.69 
		98.13,71.32 142.46,71.32 142.46,107.32 209.83,107.32 209.83,71.32 	"/>
	<path class="st0" d="M313.27,90.69v17h98.9v15.33h-98.9v19.72c0.15,0.87,0.91,3.63,4.18,3.63h94.72v15.32H296.88
		c-15.57,0-28.2-12.63-28.2-28.2V95.15c0-13.16,10.67-23.83,23.83-23.83h119.66V86.8h-94.68C313.61,86.8,313.27,90.69,313.27,90.69z
		"/>
	<polygon class="st0" points="469.42,146.79 469.42,147.32 469.13,147.32 	"/>
	<path class="st0" d="M474.58,147.32c-0.14-0.02-0.33-0.03-0.55-0.03c-4.42,0-4.61-4.52-4.61-4.52V71.32h-44.15v63.11
		c0,15.05,12.21,27.26,27.26,27.26H562.9v-14.37H474.58z M468.75,147.32h0.38l0.29-0.53v0.53h-0.29l-0.38,0.68V147.32z"/>
	<polygon class="st0" points="468.75,147.32 469.13,147.32 468.75,148 	"/>
	<polygon class="st0" points="469.42,146.79 469.42,147.32 469.13,147.32 	"/>
	<polygon class="st0" points="469.13,147.32 468.75,148 468.75,147.32 	"/>
	<rect x="575.65" y="72.36" class="st0" width="44.63" height="89.33"/>
</g>
</svg>
