<svg width="32" height="28" viewBox="0 0 32 28" fill="none" xmlns="http://www.w3.org/2000/svg">
<g id="Group">
<path id="Vector" fill-rule="evenodd" clip-rule="evenodd" d="M30.5653 6.11682C27.9001 2.48146 23.9748 0.741841 19.7707 0.212149C19.0013 0.173119 17.9921 -0.027606 17.507 0.658206C17.3843 0.897961 17.5906 1.14329 17.7914 1.30499C20.3004 2.07444 22.7649 2.92194 24.7833 4.78423C25.5137 5.67634 26.3612 6.60191 25.9988 7.77838C25.2293 8.94928 23.696 8.6705 22.4025 8.87122L15.1262 9.07195L8.01156 8.94928C7.24212 8.87122 6.43364 8.70953 5.94855 8.05717C5.62516 7.41039 5.94855 6.67997 6.23291 6.15585C8.08405 3.40703 11.1172 2.31977 13.9497 1.38862C14.1504 1.26596 14.3567 1.0262 14.2731 0.780871C14.1114 0.334815 13.6263 0.212149 13.1802 0.212149C10.7158 0.334815 8.49107 0.981597 6.42806 2.02983C3.03246 3.80848 -0.402178 7.20409 0.0383032 11.3691C0.88581 16.5434 6.34443 19.6992 10.9946 20.5468C12.0484 20.6304 13.2973 21.0318 14.2675 20.4631C14.3902 20.3405 14.5073 20.1397 14.4292 19.939C14.3511 19.7773 14.1839 19.6546 14.0222 19.5766C11.5967 18.8517 9.24937 17.9596 7.26999 16.181C6.5117 15.3335 5.74225 14.4469 5.94298 13.276C6.06564 12.9526 6.35 12.6683 6.62879 12.5066C8.08405 11.9825 9.78464 12.1442 11.357 12.0215L17.139 11.8598L22.1125 11.9434C23.4897 12.1442 25.2238 11.6591 26.0322 12.9526C26.3166 13.5994 25.9932 14.2852 25.6698 14.854C23.8075 17.5637 20.858 18.612 18.0701 19.5431C17.7858 19.6268 17.6241 19.9055 17.6687 20.1899C18.1928 21.0374 19.4473 20.5914 20.2948 20.5523C24.8613 19.8665 29.7568 17.2348 31.6135 12.5902C32.4276 10.4436 31.8979 7.85644 30.5653 6.11682ZM7.48187 9.35073L11.4462 9.51243L20.1778 9.42879C22.2408 9.30613 24.4655 9.35073 26.4058 8.74298C26.6065 8.62031 26.8909 8.38056 27.1362 8.62031C27.2979 8.70395 27.4596 8.82104 27.6213 8.94371C27.4987 9.18346 27.1753 9.14443 26.9355 9.22807L24.1477 9.51243L18.5664 9.63509L10.5206 9.71315C8.61932 9.71315 6.80164 9.67412 4.93935 9.4734C4.73862 9.38976 4.45426 9.43437 4.37063 9.18904C4.57135 9.02734 4.85571 8.82662 5.14007 8.78759C5.82031 9.18904 6.67339 9.23364 7.48187 9.35073ZM31.2511 10.806V10.845L31.1284 10.7224C30.9667 8.78201 30.2363 7.00336 28.742 5.62616C28.703 5.62616 28.5803 5.58713 28.5803 5.7098C29.5895 7.20408 30.32 8.86565 30.2363 10.806C29.991 15.2108 25.3855 18.3666 21.5828 19.4985C20.7744 19.6992 19.9268 19.9836 19.0347 20.0226C19.8042 19.7383 20.5736 19.5766 21.3375 19.2532C24.4934 18.244 28.2123 15.8576 29.1825 12.3393C29.2662 11.9379 29.3442 11.4082 29.0208 11.0848C28.4521 10.477 27.6046 10.477 26.7571 10.477H20.3394L12.7007 10.5997L6.46709 10.6443C5.25159 10.8841 3.43391 10.3209 2.78713 11.6981C2.66446 13.3987 3.71827 14.6477 4.7665 15.9022C7.11387 18.2496 10.0634 19.2588 13.0576 20.0672L12.9739 20.1453C8.36283 19.4149 2.98785 16.8724 1.85598 11.8598C1.44896 9.71873 2.14034 7.69475 3.31124 6.03876C3.31124 5.99973 3.27221 5.95513 3.22761 5.9161C2.82058 6.07779 2.58083 6.52385 2.29646 6.84724C1.48799 8.17983 0.880235 9.59606 0.802175 11.174H0.724115C0.400724 7.65572 3.11052 4.78423 5.9374 3.04461C8.03944 1.79007 10.3422 0.942567 12.8513 0.819901C12.8903 0.819901 12.8903 0.858931 12.8903 0.858931C10.8663 1.42765 8.92598 2.07444 7.14733 3.2063C5.08432 4.42181 3.183 6.47924 2.69791 8.78759C2.69791 9.11098 2.77597 9.39534 3.02131 9.59606C3.75172 10.2038 4.83899 10.1202 5.77013 10.1648L10.2586 10.2038L22.9154 10.0812C24.616 9.99751 26.3947 9.99751 28.0506 9.75776C28.4967 9.63509 29.0599 9.35073 29.1825 8.82662C29.2215 7.73378 28.5748 6.84724 28.0506 5.99416C25.7033 2.88291 22.3077 1.62838 18.873 0.819901C18.834 0.697236 18.9121 0.780871 18.9567 0.736266C21.9508 0.858931 24.577 1.86813 26.9634 3.48509C29.4725 5.23029 31.4574 7.77281 31.2511 10.806Z" fill="#D03836"/>
<path id="Vector_2" fill-rule="evenodd" clip-rule="evenodd" d="M12.6561 27.483C12.6561 27.5332 12.6227 27.5666 12.5725 27.5666H10.7437C10.6935 27.5666 10.6433 27.5332 10.6433 27.483V23.8588C10.6433 23.8086 10.6935 23.7752 10.7437 23.7752H12.5725C12.6227 23.7752 12.6561 23.8086 12.6561 23.8588V27.483ZM8.88136 23.7752H7.03581C6.98562 23.7752 6.95217 23.8086 6.95217 23.8588V24.5558C6.95217 24.7565 6.7849 24.9238 6.58417 24.9238H4.73861C4.53789 24.9238 4.37062 24.7565 4.37062 24.5558V23.8588C4.37062 23.8086 4.33716 23.7752 4.28698 23.7752H2.45815C2.40797 23.7752 2.35779 23.8086 2.35779 23.8588V27.483C2.35779 27.5332 2.40797 27.5666 2.45815 27.5666H4.28698C4.33716 27.5666 4.37062 27.5332 4.37062 27.483V26.6522C4.37062 26.4515 4.53789 26.2842 4.73861 26.2842H6.58417C6.7849 26.2842 6.95217 26.4515 6.95217 26.6522V27.483C6.95217 27.5332 6.98562 27.5666 7.03581 27.5666H8.88136C8.93155 27.5666 8.965 27.5332 8.965 27.483V23.8588C8.965 23.8086 8.93155 23.7752 8.88136 23.7752ZM21.0754 23.7752H19.2466C19.1964 23.7752 19.1462 23.8086 19.1462 23.8588V25.0409C18.979 25.2249 18.5831 25.0074 18.5831 25.0074C18.5831 25.0074 18.1984 24.7565 17.323 24.277C16.5591 23.8309 16.3249 23.7807 16.2748 23.7807H14.4459C14.3957 23.7807 14.3456 23.8142 14.3456 23.8644V27.4886C14.3456 27.5388 14.3957 27.5722 14.4459 27.5722H16.2748C16.3249 27.5722 16.3751 27.5388 16.3751 27.4886V25.9608C16.6093 25.643 16.9383 25.8103 16.9383 25.8103C16.9383 25.8103 17.3397 26.011 18.1816 26.5407C18.9121 27.0035 19.0961 27.1708 19.1462 27.338V27.4886C19.1462 27.5388 19.1964 27.5722 19.2466 27.5722H21.0754C21.1256 27.5722 21.1591 27.5388 21.1591 27.4886V23.8644C21.1591 23.8086 21.1256 23.7752 21.0754 23.7752ZM27.822 23.6748H24.4487C23.4507 23.6748 22.6366 24.3049 22.6366 25.2862V26.2341C22.6366 27.2321 23.4507 27.8454 24.4487 27.8454H27.822C28.8201 27.8454 29.6341 27.2321 29.6341 26.2341V25.2862C29.6341 24.3049 28.8201 23.6748 27.822 23.6748ZM27.7217 25.9999C27.7217 26.4961 27.3537 26.8139 26.9076 26.8139H25.3799C24.9171 26.8139 24.5491 26.4961 24.5491 25.9999V25.5204C24.5491 25.0241 24.9171 24.7063 25.3799 24.7063H26.9076C27.3537 24.7063 27.7217 25.0241 27.7217 25.5204V25.9999Z" fill="#1D1D1B"/>
</g>
</svg>
