<svg width="42" height="16" viewBox="0 0 42 16" fill="none" xmlns="http://www.w3.org/2000/svg">
<g id="jcb-4 (1) 1" clip-path="url(#clip0_371_2193)">
<path id="Vector" d="M0.00866699 0H41.9912V16H0.00866699V0Z" fill="#FCAF26"/>
<g id="Clip path group">
<mask id="mask0_371_2193" style="mask-type:luminance" maskUnits="userSpaceOnUse" x="2" y="2" width="38" height="12">
<g id="b">
<path id="Vector_2" d="M2.35889 2.2854H39.5298V13.8709H2.35889V2.2854Z" fill="white"/>
</g>
</mask>
<g mask="url(#mask0_371_2193)">
<path id="Vector_3" d="M39.5534 13.208C39.5534 13.5727 39.3248 13.871 39.0456 13.871H2.86314C2.58386 13.871 2.35535 13.5727 2.35535 13.208V2.94839C2.35535 2.58366 2.58386 2.2854 2.86314 2.2854H39.0455C39.3247 2.2854 39.5533 2.58366 39.5533 2.94839L39.5534 13.208Z" fill="#231F20"/>
</g>
</g>
<g id="Group">
<path id="Vector_4" d="M35.6385 9.5686C35.6399 9.58838 35.6408 9.6087 35.6408 9.62925L35.6409 9.62551C35.641 9.60627 35.6396 9.58755 35.6385 9.5686Z" fill="#204595"/>
<path id="Vector_5" d="M11.7309 11.8959C11.1228 12.4977 10.2226 12.6353 8.89658 12.6353H7.01111C4.37146 12.6353 3.5321 11.996 3.5321 9.79019V8.5867H6.06224C6.06224 8.69956 6.05005 8.81237 6.05005 8.9127C6.05005 10.0155 6.31769 10.3666 7.37612 10.3666H8.59256C9.56568 10.3666 9.73594 9.99061 9.73594 9.0757V3.42268H12.4365V9.9656C12.4365 10.7552 12.1566 11.4698 11.7309 11.8959ZM22.6376 6.61882C22.6376 5.89203 22.1873 5.59116 21.2143 5.59116H19.0489C17.2973 5.59116 16.8716 5.82918 16.8716 7.3835V8.6496C16.8716 10.0785 17.4676 10.3666 19.0489 10.3666H20.6183C22.1144 10.3666 22.7105 10.2037 22.7105 9.11312V9.01285H25.4474C25.4596 9.25117 25.4718 9.46425 25.4718 9.67738C25.4718 10.8053 25.2162 11.5575 24.5837 12.0339C23.9147 12.5476 22.8564 12.648 21.3116 12.648H18.2948C16.8958 12.648 15.9106 12.5854 15.1442 11.971C14.4021 11.3696 14.1223 10.5422 14.1223 9.30125V6.81948C14.1223 4.08697 15.2779 3.30981 18.2948 3.30981H21.3116C22.8565 3.30981 23.9026 3.38508 24.5474 3.89891C25.119 4.3503 25.3623 5.10222 25.3623 6.19267C25.3623 6.35561 25.3623 6.53114 25.3501 6.70661H22.6377V6.61882H22.6376ZM27.2096 12.5352V3.42268H35.1773C37.1601 3.42268 38.1211 4.25003 38.1211 5.96718C38.1211 6.94488 37.7076 7.54632 36.8197 7.89757C37.9386 8.08546 38.4255 8.76223 38.4255 10.0659C38.4255 11.8208 37.5495 12.5352 35.5909 12.5352H27.2096ZM35.3476 6.21773C35.3476 5.76663 35.0678 5.466 34.6543 5.466H29.9101V6.96989H34.6543C35.1044 6.96989 35.3476 6.70667 35.3476 6.21773ZM35.6395 9.62719C35.6395 9.13836 35.3476 8.82496 34.8975 8.82496H29.9101V10.4671H34.8975C35.3719 10.4671 35.6395 10.1661 35.6395 9.62719Z" fill="white"/>
<path id="Vector_6" d="M3.5321 3.36182H7.20915V6.99462H3.5321V3.36182Z" fill="#FCAF26"/>
<path id="Vector_7" d="M6.21895 5.20326C6.21895 5.20326 6.27947 5.201 6.29647 5.19982C6.31371 5.19863 6.34595 5.19702 6.36557 5.23587C6.37069 5.24591 6.40116 5.34244 6.40506 5.35373C6.40884 5.36525 6.41779 5.41741 6.37776 5.42667C6.37032 5.42828 6.29921 5.44271 6.29921 5.44271L6.21895 5.20326ZM6.08239 4.7597C6.08239 4.7597 6.1607 4.76564 6.18008 4.76725C6.19933 4.76903 6.21292 4.77806 6.22066 4.79552C6.2256 4.80633 6.25491 4.89508 6.25832 4.9047C6.26167 4.91433 6.27654 4.96755 6.23309 4.9688C6.22645 4.96898 6.14851 4.9688 6.14851 4.9688L6.08239 4.7597ZM5.80628 4.50576C5.80628 4.50576 6.13535 4.55429 6.166 4.55946C6.30311 4.58203 6.36277 4.69597 6.37953 4.74931C6.38525 4.76677 6.42328 4.8908 6.42815 4.90429C6.46557 5.00878 6.37069 5.06271 6.37069 5.06271C6.37069 5.06271 6.47904 5.08309 6.51572 5.17285C6.51572 5.17285 6.5844 5.37945 6.59122 5.4003C6.5978 5.42139 6.6468 5.58629 6.47989 5.64694C6.45759 5.65501 6.18897 5.72879 6.18897 5.72879L5.80628 4.50576ZM4.47473 4.30005L5.01403 4.38333L5.10111 4.68593L4.97534 4.67494C4.97534 4.67494 5.2852 5.69832 5.29605 5.7301C5.33487 5.8454 5.35851 5.96486 5.1888 6.02236C5.1668 6.02984 5.00867 6.07683 4.98947 6.08152C4.89155 6.10516 4.76693 6.10558 4.71867 5.9487L4.52153 5.31589L4.76376 5.29836C4.76376 5.29836 4.86394 5.62312 4.87168 5.64717C4.8938 5.71513 4.90757 5.74121 4.97643 5.72475C5.02707 5.71263 5.02494 5.69161 5.01159 5.64682C5.00599 5.62781 4.71434 4.65379 4.71434 4.65379L4.57638 4.6431L4.47473 4.30005Z" fill="#231F20"/>
<path id="Vector_8" d="M4.47473 4.30005L5.01403 4.38333L5.10111 4.68593L4.97534 4.67494C4.97534 4.67494 5.2852 5.69832 5.29605 5.7301C5.33487 5.8454 5.35851 5.96486 5.1888 6.02236C5.1668 6.02984 5.00867 6.07683 4.98947 6.08152C4.89155 6.10516 4.76693 6.10558 4.71867 5.9487L4.52153 5.31589L4.76376 5.29836C4.76376 5.29836 4.86394 5.62312 4.87168 5.64717C4.8938 5.71513 4.90757 5.74121 4.97643 5.72475C5.02707 5.71263 5.02494 5.69161 5.01159 5.64682C5.00599 5.62781 4.71434 4.65379 4.71434 4.65379L4.57638 4.6431L4.47473 4.30005Z" stroke="#231F20" stroke-width="0.326453" stroke-miterlimit="3.864"/>
<path id="Vector_9" d="M5.27913 4.42069C5.30259 4.42455 5.47608 4.45289 5.50521 4.45782C5.53458 4.46281 5.69595 4.48995 5.73885 4.64321C5.74927 4.68093 5.83452 4.95044 5.83452 4.95044L5.62965 4.94842C5.62965 4.94842 5.59156 4.81809 5.58339 4.7957C5.56365 4.74063 5.56249 4.72649 5.50088 4.71705C5.43867 4.70974 5.4419 4.73653 5.45591 4.7818C5.46292 4.8052 5.64933 5.44075 5.65768 5.46795C5.67955 5.5403 5.68504 5.56888 5.75067 5.55575C5.80764 5.54215 5.7968 5.51078 5.78223 5.45756C5.76136 5.38802 5.74021 5.31856 5.7188 5.24917L5.92227 5.23367C5.92227 5.23367 6.02586 5.57131 6.03135 5.58705C6.03683 5.6028 6.08016 5.7396 5.957 5.79841C5.9411 5.80595 5.9411 5.80714 5.92483 5.81272C5.90856 5.81825 5.74378 5.86595 5.72812 5.87034C5.71246 5.8745 5.55548 5.92416 5.5046 5.76485C5.49954 5.74946 5.1678 4.62955 5.15019 4.57454C5.12033 4.48152 5.15208 4.4021 5.27913 4.42069Z" fill="#231F20"/>
<path id="Vector_10" d="M5.27913 4.42069C5.30259 4.42455 5.47608 4.45289 5.50521 4.45782C5.53458 4.46281 5.69595 4.48995 5.73885 4.64321C5.74927 4.68093 5.83452 4.95044 5.83452 4.95044L5.62965 4.94842C5.62965 4.94842 5.59156 4.81809 5.58339 4.7957C5.56365 4.74063 5.56249 4.72649 5.50088 4.71705C5.43867 4.70974 5.4419 4.73653 5.45591 4.7818C5.46292 4.8052 5.64933 5.44075 5.65768 5.46795C5.67955 5.5403 5.68504 5.56888 5.75067 5.55575C5.80764 5.54215 5.7968 5.51078 5.78223 5.45756C5.76136 5.38802 5.74021 5.31856 5.7188 5.24917L5.92227 5.23367C5.92227 5.23367 6.02586 5.57131 6.03135 5.58705C6.03683 5.6028 6.08016 5.7396 5.957 5.79841C5.9411 5.80595 5.9411 5.80714 5.92483 5.81272C5.90856 5.81825 5.74378 5.86595 5.72812 5.87034C5.71246 5.8745 5.55548 5.92416 5.5046 5.76485C5.49954 5.74946 5.1678 4.62955 5.15019 4.57454C5.12033 4.48152 5.15208 4.4021 5.27913 4.42069Z" stroke="#231F20" stroke-width="0.326453" stroke-miterlimit="3.864"/>
<path id="Vector_11" d="M4.25685 4.12378C4.35813 4.14083 6.11667 4.43576 6.19474 4.44925C6.27286 4.46273 6.40424 4.48186 6.45927 4.65021C6.46999 4.68306 6.70856 5.41875 6.71825 5.45053C6.72782 5.48243 6.79717 5.65036 6.60125 5.71309C6.57206 5.72254 4.91888 6.25401 4.87878 6.26636C4.83875 6.27902 4.68238 6.34626 4.61821 6.11382C4.61821 6.11382 4.11353 4.46523 4.09031 4.39068C4.07124 4.33033 4.05783 4.28179 4.05491 4.24407C4.04491 4.10887 4.12632 4.10442 4.19317 4.1138C4.21816 4.11731 4.24064 4.12117 4.25685 4.12378ZM4.21091 4.03177C4.25533 4.03854 6.17524 4.36514 6.22423 4.37321C6.27371 4.38171 6.46262 4.4025 6.53818 4.62478C6.55281 4.66755 6.79168 5.40806 6.80314 5.44507C6.84519 5.58199 6.82721 5.72509 6.6522 5.78532C6.59437 5.80511 4.94691 6.34418 4.92656 6.35089C4.88128 6.36574 4.6393 6.47635 4.55124 6.18807C4.55124 6.18807 4.01792 4.4597 4.00213 4.40743C3.97745 4.32641 3.96204 4.25774 3.96191 4.20707C3.96185 3.98241 4.16801 4.0272 4.21091 4.03177Z" fill="#231F20"/>
</g>
</g>
<defs>
<clipPath id="clip0_371_2193">
<rect width="42" height="16" fill="white"/>
</clipPath>
</defs>
</svg>
