<svg width="38" height="8" viewBox="0 0 38 8" fill="none" xmlns="http://www.w3.org/2000/svg">
<g id="Group">
<path id="Vector" d="M0.00012207 2.0647H2.24172V7.33669H0.00012207V2.0647Z" fill="#21409A"/>
<path id="Vector_2" d="M0.00012207 7.33669V2.0647H2.24172V7.33669H0.00012207ZM3.36172 2.0647H5.85292L4.64972 4.6791L5.94732 7.33509H3.41452L2.24172 4.6791L3.36172 2.0647Z" fill="#21409A"/>
<path id="Vector_3" d="M3.3617 2.0647H5.8529L4.6497 4.6791L5.9473 7.3351H3.4145L2.2417 4.6791L3.3617 2.0647Z" fill="#21409A"/>
<path id="Vector_4" d="M8.41611 5.45824C8.82891 5.45824 9.16491 5.12384 9.16491 4.70944C9.16491 4.29504 8.83051 3.96064 8.41611 3.96064C8.00331 3.96704 7.67211 4.30624 7.67851 4.72064C7.68491 5.12704 8.01131 5.45344 8.41611 5.45824ZM5.56812 4.71104C5.56812 3.13824 6.84332 1.86304 8.41451 1.86304C9.98731 1.86304 11.2625 3.13824 11.2625 4.71104C11.2625 6.28383 9.98731 7.55903 8.41451 7.55903C6.84332 7.55743 5.56812 6.28383 5.56812 4.71104Z" fill="#21409A"/>
<path id="Vector_5" d="M8.41611 5.45824C8.82891 5.45824 9.16491 5.12384 9.16491 4.70944C9.16491 4.29504 8.83051 3.96064 8.41611 3.96064C8.00331 3.96704 7.67211 4.30624 7.67851 4.72064C7.68491 5.12704 8.01131 5.45344 8.41611 5.45824ZM5.56812 4.71104C5.56812 3.13824 6.84332 1.86304 8.41451 1.86304C9.98731 1.86304 11.2625 3.13824 11.2625 4.71104C11.2625 6.28383 9.98731 7.55903 8.41451 7.55903C6.84332 7.55743 5.56812 6.28383 5.56812 4.71104ZM11.3521 7.33663L12.1617 2.06464H14.1537L14.8177 4.08864L15.4817 2.06464H17.4945L18.2721 6.87903L19.9425 2.06464H22.1009L23.9489 7.33663H21.6449L21.0321 4.88704L20.4113 7.33663H16.2705L16.0001 5.49024L15.4401 7.33663H14.1953L13.6561 5.49024L13.3233 7.33663H11.3521Z" fill="#21409A"/>
<path id="Vector_6" d="M11.3521 7.33667L12.1616 2.06467H14.1536L14.8176 4.08867L15.4816 2.06467H17.4944L18.272 6.87907L19.9424 2.06467H22.1008L23.9488 7.33667H21.6448L21.032 4.88707L20.4112 7.33667H16.2704L16 5.49027L15.44 7.33667H14.1952L13.656 5.49027L13.3232 7.33667H11.3521ZM23.3264 2.06467H26.7296V0.440674H28.7888V2.51107H26.7552V7.33667H24.5504V4.03587H23.3264V2.06467Z" fill="#21409A"/>
<path id="Vector_7" d="M23.3265 2.06467H26.7297V0.440674H28.7889V2.51107H26.7553V7.33667H24.5505V4.03587H23.3265V2.06467Z" fill="#21409A"/>
<path id="Vector_8" d="M32.5201 2.47921L31.9697 3.92081C31.9697 3.92081 31.3889 3.49681 30.6465 3.46481C30.3345 3.45041 30.1889 3.78641 30.7137 3.88561C31.1569 3.96881 31.6353 4.10321 31.9857 4.40721C32.7409 5.06161 32.8257 6.50001 31.5633 7.16401C30.7233 7.60561 29.0209 7.52401 27.9105 6.77681L28.4817 5.35601C28.4817 5.35601 29.3633 5.97361 30.1009 5.94801C30.4129 5.93681 30.5585 5.57521 30.0337 5.47601C29.5905 5.39281 29.1073 5.27441 28.7553 4.96881C28.0001 4.31441 27.9313 2.90641 29.1777 2.21201C30.0209 1.74001 31.3489 1.74641 32.5201 2.47921Z" fill="#21409A"/>
<path id="Vector_9" d="M32.5201 2.47921L31.9697 3.92081C31.9697 3.92081 31.3889 3.49681 30.6465 3.46481C30.3345 3.45041 30.1889 3.78641 30.7137 3.88561C31.1569 3.96881 31.6353 4.10321 31.9857 4.40721C32.7409 5.06161 32.8257 6.50001 31.5633 7.16401C30.7233 7.60561 29.0209 7.52401 27.9105 6.77681L28.4817 5.35601C28.4817 5.35601 29.3633 5.97361 30.1009 5.94801C30.4129 5.93681 30.5585 5.57521 30.0337 5.47601C29.5905 5.39281 29.1073 5.27441 28.7553 4.96881C28.0001 4.31441 27.9313 2.90641 29.1777 2.21201C30.0209 1.74001 31.3489 1.74641 32.5201 2.47921ZM33.0817 2.06481H35.2705V5.28081C35.2705 5.64881 35.8209 5.64881 35.8209 5.28081V2.06481H38.0001V5.55121C38.0001 5.71761 38.0001 7.40881 35.5617 7.40881C33.0817 7.40881 33.0817 5.71761 33.0817 5.55121V2.06481Z" fill="#21409A"/>
<path id="Vector_10" d="M33.0817 2.0647H35.2705V5.2807C35.2705 5.6487 35.8209 5.6487 35.8209 5.2807V2.0647H38.0001V5.5511C38.0001 5.7175 38.0001 7.4087 35.5617 7.4087C33.0817 7.4087 33.0817 5.7175 33.0817 5.5511V2.0647Z" fill="#21409A"/>
</g>
</svg>
