<svg width="38" height="4" viewBox="0 0 38 4" fill="none" xmlns="http://www.w3.org/2000/svg">
<g id="Liebherr-Logo (1) 1" clip-path="url(#clip0_371_27083)">
<path id="Vector" d="M9.0782 3.07097H10.2714V4H6.8552V0H10.2372V0.929032H9.0744V1.56774H10.1346V2.40968H9.0744V3.07097H9.0782ZM3.8494 4H6.1028V0H3.8494V4ZM2.2192 0H0V4H3.2452V2.92903H2.2192V0ZM24.8558 2.40645H25.916V1.56452H24.8558V0.929032H26.0186V0H22.6366V4H26.0528V3.07097H24.8558V2.40645ZM16.0892 2.92581C16.0892 3.44839 15.7282 3.79032 15.1126 3.91613C14.8428 3.97097 14.4058 4 14.0106 4H10.9516V0H13.9916C14.3792 0 14.8048 0.0290323 15.0708 0.083871C15.6712 0.209677 16.0246 0.551613 16.0246 1.07419C16.0246 1.55484 15.6902 1.88387 15.2646 1.99032C15.7206 2.07742 16.0892 2.41935 16.0892 2.92581ZM13.0986 1.62258H13.4064C13.8168 1.62258 13.9536 1.44839 13.9536 1.20323C13.9536 0.958064 13.8168 0.783871 13.4064 0.783871H13.0986V1.62258ZM14.022 2.78387C14.022 2.52258 13.8814 2.34839 13.4406 2.34839H13.0986V3.21935H13.4406C13.8852 3.21613 14.022 3.04194 14.022 2.78387ZM19.646 1.47742H18.8936V0H16.6744V4H18.8936V2.46452H19.646V4H21.8652V0H19.646V1.47742ZM36.7802 2.33226C37.3616 2.10645 37.62 1.73226 37.62 1.22258C37.62 0.629032 37.202 0.241935 36.5028 0.0967742C36.195 0.0354839 35.6972 0 35.2488 0H32.5166V4H34.6332V2.72581H34.8232L35.625 4H38L36.7802 2.33226ZM34.941 1.88387H34.6332V0.929032H34.941C35.3514 0.929032 35.4882 1.10323 35.4882 1.40645C35.4882 1.70968 35.3514 1.88387 34.941 1.88387ZM30.9852 2.33226C31.5666 2.10645 31.825 1.73226 31.825 1.22258C31.825 0.629032 31.407 0.241935 30.7078 0.0967742C30.4 0.0354839 29.9022 0 29.4538 0H26.7216V4H28.8382V2.72581H29.0282L29.83 4H32.205L30.9852 2.33226ZM29.1422 1.88387H28.8344V0.929032H29.1422C29.5526 0.929032 29.6894 1.10323 29.6894 1.40645C29.6894 1.70968 29.5526 1.88387 29.1422 1.88387Z" fill="black"/>
</g>
<defs>
<clipPath id="clip0_371_27083">
<rect width="38" height="4" fill="white"/>
</clipPath>
</defs>
</svg>
