<svg width="68" height="28" viewBox="0 0 68 28" fill="none" xmlns="http://www.w3.org/2000/svg">
<g id="Group">
<path id="Vector" d="M68 16.2124H0V18.5943H68V16.2124Z" fill="#56668D"/>
<g id="Group_2">
<path id="Vector_2" d="M1.88481 26.5222V25.6893C2.13336 25.5872 2.45439 25.5221 2.76063 25.4851C1.80492 25.025 1.32263 24.3312 1.32263 23.3311C1.32263 22.2792 1.93659 21.6445 2.93668 21.6445C3.41157 21.6445 3.85688 21.8058 4.13353 22.2644C4.35988 21.8339 4.74749 21.6445 5.25789 21.6445C5.76829 21.6445 6.15589 21.8265 6.38225 22.2644C6.67369 21.8117 7.12639 21.6445 7.60128 21.6445C8.66055 21.6445 9.15616 22.2866 9.15616 23.5204V23.5648C9.15616 24.3829 8.9372 24.9229 8.76855 25.2366H7.5569C7.73887 24.9303 7.95783 24.346 7.95783 23.6447V23.6077C7.95783 22.9213 7.80397 22.5706 7.38085 22.5706C6.95774 22.5706 6.79648 22.8917 6.79648 23.6299V24.272H5.79639V23.6299C5.79639 22.871 5.64993 22.5706 5.25641 22.5706C4.84069 22.5706 4.68683 22.8547 4.68683 23.6299V24.272H3.68674V23.6299C3.68674 22.9065 3.52549 22.5706 3.10237 22.5706C2.67926 22.5706 2.5254 22.9435 2.5254 23.4982C2.5254 24.7839 3.46779 25.1626 4.78891 25.352C6.54794 25.5931 7.54063 25.9792 7.64271 26.9364H6.45325C6.31419 26.4689 5.49755 26.2574 4.20454 26.2574C3.22665 26.2574 2.47362 26.352 1.88333 26.5207L1.88481 26.5222Z" fill="#34383E"/>
<path id="Vector_3" d="M9.81445 24.5575V24.2794C9.81445 22.5425 10.6178 21.6445 12.0114 21.6445C13.405 21.6445 14.1935 22.5351 14.1935 24.2794V24.5634C14.1935 25.5058 13.945 26.3594 13.6609 26.9364H12.4715C12.8073 26.2426 13.0041 25.4392 13.0041 24.4983V24.2276C13.0041 23.2053 12.726 22.578 12.0114 22.578C11.2968 22.578 11.0039 23.155 11.0039 24.235V24.4983C11.0039 25.4259 11.1933 26.2796 11.5365 26.9364H10.3396C10.0038 26.3225 9.81445 25.4111 9.81445 24.556V24.5575Z" fill="#34383E"/>
<path id="Vector_4" d="M15.7779 25.1715V25.1123C15.7779 24.8859 15.843 24.6596 15.9821 24.4406C15.1936 24.3164 14.6906 23.8563 14.6906 23.0899V23.0322C14.6906 22.1194 15.4273 21.6445 16.4274 21.6445C17.4275 21.6445 18.1583 22.0972 18.1583 23.01V23.0692C18.1583 23.1343 18.1509 23.1935 18.1361 23.2586C19.2605 23.3177 20.1067 24.0249 20.1067 25.0916V25.1508C20.1067 26.2899 19.1791 27.0193 17.9379 27.0193C16.6966 27.0193 15.7764 26.2884 15.7764 25.1729L15.7779 25.1715ZM17.0561 23.0899V23.0455C17.0561 22.6298 16.7854 22.4257 16.4289 22.4257C16.0723 22.4257 15.8016 22.6224 15.8016 23.0529V23.0899C15.8016 23.5056 16.0723 23.7039 16.4289 23.7039C16.7854 23.7039 17.0561 23.5071 17.0561 23.0899ZM18.8743 25.1419V25.1123C18.8743 24.5131 18.5163 24.1344 17.9467 24.1344C17.3772 24.1344 17.0118 24.5072 17.0118 25.1123V25.1419C17.0118 25.7484 17.3624 26.1198 17.9467 26.1198C18.5311 26.1198 18.8743 25.747 18.8743 25.1419Z" fill="#34383E"/>
<path id="Vector_5" d="M20.6704 24.5575V24.2794C20.6704 22.5425 21.4737 21.6445 22.8673 21.6445C24.261 21.6445 25.0495 22.5351 25.0495 24.2794V24.5634C25.0495 25.5058 24.8009 26.3594 24.5169 26.9364H23.3274C23.6633 26.2426 23.86 25.4392 23.86 24.4983V24.2276C23.86 23.2053 23.5819 22.578 22.8673 22.578C22.1528 22.578 21.8599 23.155 21.8599 24.235V24.4983C21.8599 25.4259 22.0492 26.2796 22.3925 26.9364H21.1956C20.8598 26.3225 20.6704 25.4111 20.6704 24.556V24.5575Z" fill="#34383E"/>
<path id="Vector_6" d="M25.8544 25.1998V23.3594C25.8544 22.1981 26.3071 21.7173 27.4891 21.7173H29.7675V22.6153H27.7155C27.1755 22.6153 27.0069 22.8564 27.0069 23.389V23.9808C27.2554 23.6302 27.7436 23.3609 28.4079 23.3609C29.4153 23.3609 30.05 24.0252 30.05 25.1126V25.1717C30.05 26.3538 29.1594 27.018 27.9256 27.018C26.6917 27.018 25.8529 26.3242 25.8529 25.1998H25.8544ZM28.8694 25.1998V25.1628C28.8694 24.5489 28.5262 24.1702 27.9418 24.1702C27.3279 24.1702 27.0069 24.543 27.0069 25.1555V25.1924C27.0069 25.7916 27.3575 26.1629 27.9418 26.1629C28.5262 26.1629 28.8694 25.7827 28.8694 25.1998Z" fill="#34383E"/>
<path id="Vector_7" d="M30.6432 25.1922V25.1345C30.6432 24.1847 31.2779 23.624 32.417 23.4036C33.1183 23.2645 33.4689 23.1254 33.4689 22.797C33.4689 22.5633 33.2943 22.402 32.9363 22.402C32.5783 22.402 32.3016 22.5707 32.272 22.9716H31.2128C31.2571 22.0736 31.9791 21.6431 32.9363 21.6431C33.9734 21.6431 34.5577 22.0588 34.5577 22.7156C34.5577 23.1033 34.3536 23.3947 33.8935 23.5619C34.7116 23.803 35.185 24.38 35.185 25.1093V25.1685C35.185 26.2929 34.2145 27.0148 32.9067 27.0148C31.5989 27.0148 30.6432 26.2914 30.6432 25.1892V25.1922ZM33.9512 25.1715V25.1419C33.9512 24.4998 33.5281 24.1048 32.9141 24.1048C32.3001 24.1048 31.877 24.4983 31.877 25.1345V25.1715C31.877 25.8135 32.2927 26.2086 32.9141 26.2086C33.5355 26.2086 33.9512 25.8076 33.9512 25.1715Z" fill="#34383E"/>
<path id="Vector_8" d="M35.8048 24.5575V24.2794C35.8048 22.5425 36.6081 21.6445 38.0017 21.6445C39.3954 21.6445 40.1839 22.5351 40.1839 24.2794V24.5634C40.1839 25.5058 39.9353 26.3594 39.6513 26.9364H38.4618C38.7977 26.2426 38.9944 25.4392 38.9944 24.4983V24.2276C38.9944 23.2053 38.7163 22.578 38.0017 22.578C37.2872 22.578 36.9943 23.155 36.9943 24.235V24.4983C36.9943 25.4259 37.1836 26.2796 37.5269 26.9364H36.33C35.9942 26.3225 35.8048 25.4111 35.8048 24.556V24.5575Z" fill="#34383E"/>
</g>
<g id="Group_3">
<path id="Vector_9" d="M11.4862 0.981445C10.3648 0.981445 9.45499 1.33207 8.87062 2.14871C8.03031 1.3084 6.83938 0.981445 5.48423 0.981445C3.00916 0.981445 0.97644 2.12652 0.97644 5.48923V8.15219C0.97644 11.5149 3.00768 12.66 5.48423 12.66C7.96078 12.66 9.99202 11.5149 9.99202 8.15219V5.37236C9.99202 3.99502 10.4832 3.66807 11.2066 3.66807C11.9301 3.66807 12.4212 3.99502 12.4212 5.37236V12.4721H15.1064V5.48923C15.1064 2.12652 13.4716 0.981445 11.4862 0.981445ZM7.30539 7.45094C7.30539 9.31945 6.88524 9.97335 5.48423 9.97335C4.08322 9.97335 3.66307 9.31945 3.66307 7.45094V6.19048C3.66307 4.32197 4.08322 3.66807 5.48423 3.66807C6.88524 3.66807 7.30539 4.32197 7.30539 6.19048V7.45094Z" fill="#34383E"/>
<path id="Vector_10" d="M21.024 0.981445C18.549 0.981445 16.5162 2.12652 16.5162 5.48923H19.2014C19.2014 4.15776 19.8316 3.66807 21.0225 3.66807C22.4236 3.66807 22.8437 4.32197 22.8437 6.19048V7.45094C22.8437 9.31945 22.4236 9.97335 21.0225 9.97335C19.6215 9.97335 19.2014 9.31945 19.2014 7.45094H16.5162V8.15219C16.5162 11.5149 18.5475 12.66 21.024 12.66C23.5006 12.66 25.5318 11.5149 25.5318 8.15219V5.48923C25.5318 2.12652 23.5228 0.981445 21.024 0.981445Z" fill="#34383E"/>
<path id="Vector_11" d="M41.1544 0.981445C38.6793 0.981445 36.6466 2.12652 36.6466 5.48923H39.3317C39.3317 4.15776 39.962 3.66807 41.1529 3.66807C42.5539 3.66807 42.9741 4.32197 42.9741 6.19048V7.45094C42.9741 9.31945 42.5539 9.97335 41.1529 9.97335C39.7519 9.97335 39.3317 9.31945 39.3317 7.45094H36.6466V8.15219C36.6466 11.5149 38.6778 12.66 41.1544 12.66C43.6309 12.66 45.6622 11.5149 45.6622 8.15219V5.48923C45.6622 2.12652 43.6531 0.981445 41.1544 0.981445Z" fill="#34383E"/>
<path id="Vector_12" d="M53.3301 2.6156V1.19092H50.6908V7.45034H53.3301V4.85839C54.0313 5.11581 54.2636 5.83925 54.2636 7.21659V7.45034C54.2636 9.31884 53.8671 9.97274 52.4646 9.97274H51.577C50.176 9.97274 49.7558 9.31884 49.7558 7.45034V3.57278H47.0707V8.17377C47.0707 11.5365 49.1019 12.6579 51.5785 12.6579H52.4661C54.9412 12.6579 56.9502 11.5128 56.9502 8.17377V7.05237C56.9502 4.10981 55.385 2.87154 53.3301 2.6156Z" fill="#34383E"/>
<path id="Vector_13" d="M65.3888 4.64734C64.8977 4.20352 64.7113 4.04078 64.5249 3.87657C63.217 2.75517 62.68 2.52142 62.68 1.68111V1.18994H59.9949V1.89118C59.9949 3.64282 60.6014 3.9461 61.8634 5.02016C61.8792 5.03594 62.323 5.39395 63.1949 6.09421C64.0352 6.77179 64.3399 7.00554 64.3399 8.1728C64.3163 9.31787 63.9198 9.97177 62.5188 9.97177C61.1178 9.97177 60.6976 9.31787 60.6976 7.44936H58.0125V8.1506C58.0125 11.5133 60.0437 12.6584 62.5202 12.6584C64.9968 12.6584 67.028 11.5133 67.028 8.1506V7.70678C67.028 5.97882 66.1877 5.39445 65.3933 4.64734H65.3888Z" fill="#34383E"/>
<path id="Vector_14" d="M33.8314 5.36338C34.4424 4.89588 34.7264 4.21535 34.7264 3.55701C34.7264 1.92521 33.3979 0.991699 31.2527 0.991699C29.1076 0.991699 27.4284 1.66779 27.4284 4.16209H30.1092C30.1092 3.55553 30.3192 3.20639 31.0649 3.20639C31.8105 3.20639 32.0442 3.55553 32.0442 4.02303C32.0442 4.58225 31.6019 4.88553 30.9258 4.88553C28.4848 4.9166 26.5881 5.63115 26.5881 8.77936C26.5881 11.9276 28.5469 12.6495 31.0885 12.6495C33.6302 12.6495 35.5889 11.8107 35.5889 8.77936C35.5889 6.89014 34.9054 5.87822 33.8314 5.36338ZM31.0885 9.96733C29.9701 9.96733 29.2703 9.64038 29.2703 8.661C29.2703 7.56476 29.9701 7.33249 31.0885 7.33249C32.207 7.33249 32.9067 7.56623 32.9067 8.661C32.9067 9.64038 32.207 9.96733 31.0885 9.96733Z" fill="#34383E"/>
</g>
</g>
</svg>
