<svg width="184" height="32" viewBox="0 0 184 32" fill="none" xmlns="http://www.w3.org/2000/svg">
<g id="tegeta-logo-ge (1) 1" clip-path="url(#clip0_9_1972)">
<path id="Vector" d="M17.7138 17.7277C17.7138 22.8482 16.5374 24.6422 12.616 24.6422C8.69468 24.6422 7.51828 22.8482 7.51828 17.7277V14.2723C7.51828 9.15183 8.69468 7.36126 12.616 7.36126C16.5374 7.36126 17.7138 9.15183 17.7138 14.2723V17.7277ZM29.4172 0C26.2765 0 23.7277 0.95986 22.1021 3.2007C19.7422 0.897033 16.3983 0 12.616 0C5.70377 0 0 3.14136 0 12.3525V19.6475C0 28.8656 5.70377 32 12.616 32C19.6103 32 25.232 28.8586 25.232 19.6475V12.0314C25.232 8.2548 26.6045 7.36126 28.6329 7.36126C30.6613 7.36126 32.0302 8.2548 32.0302 12.0314V31.4904H39.5485V12.3525C39.5485 3.14136 34.9712 0 29.4172 0ZM50.6209 17.7277C50.6209 22.8482 51.7973 24.6422 55.7187 24.6422C59.64 24.6422 60.82 22.8482 60.82 17.7277V14.2723C60.82 9.15183 59.64 7.36126 55.7187 7.36126C52.3855 7.36126 50.6209 8.70506 50.6209 12.3525H43.1134C43.1134 3.14136 48.8029 0 55.7294 0C62.7415 0 68.3454 3.14136 68.3454 12.3525V19.6475C68.3454 28.8656 62.7236 32 55.7294 32C48.8029 32 43.1134 28.8586 43.1134 19.6475V17.7277H50.6209ZM106.853 17.7277C106.853 22.8482 108.029 24.6422 111.951 24.6422C115.872 24.6422 117.048 22.8482 117.048 17.7277V14.2723C117.048 9.15183 115.872 7.36126 111.951 7.36126C108.618 7.36126 106.853 8.70506 106.853 12.3525H99.3347C99.3347 3.14136 105.021 0 111.936 0C118.931 0 124.552 3.14136 124.552 12.3525V19.6475C124.552 28.8656 118.931 32 111.936 32C105.006 32 99.3204 28.8586 99.3204 19.6475V17.7277H106.853ZM128.121 19.7138C128.121 28.9284 133.825 32 140.737 32H143.232C150.162 32 155.784 28.8586 155.784 19.7138V16.6422C155.784 8.57592 151.403 5.18325 145.649 4.48168V0.575916H138.252V17.7277H145.639V10.6248C147.599 11.3229 148.255 13.3124 148.255 17.089V17.7277C148.255 22.8482 147.143 24.6422 143.222 24.6422H140.726C136.805 24.6422 135.628 22.8482 135.628 17.7277V7.10297H128.121V19.7138ZM176.482 19.7138C176.482 16.5131 175.63 15.8743 173.273 14.0175C169.612 11.1379 169.612 11.1379 169.548 11.0716C166.022 8.12914 164.34 7.29494 164.34 2.49564V0.575916H171.826V1.91972C171.826 4.22339 173.33 4.86562 176.991 7.93717C177.512 8.38394 178.036 8.83072 179.408 10.0489C181.629 12.0977 183.986 13.6963 183.986 18.4258V19.6405C183.986 28.8586 178.282 31.993 171.37 31.993C164.457 31.993 158.754 28.8517 158.754 19.6405V17.7208H166.268C166.268 22.8412 167.445 24.6353 171.37 24.6353C175.295 24.6353 176.418 22.8482 176.482 19.7138ZM85.938 13.637C91.6168 13.637 94.1122 10.2513 94.1122 7.05759C94.1122 2.5829 90.3762 0.0279232 84.373 0.0279232C78.5658 0.0279232 73.6784 1.88133 73.6784 8.71902H81.1824C81.1824 7.05759 81.7707 6.09773 83.8597 6.09773C85.9487 6.09773 86.5975 7.05759 86.5975 8.33508C86.5975 9.86736 85.3605 10.6981 83.4675 10.6981L85.938 13.637ZM83.9167 24.6283C80.7832 24.6283 78.8261 23.7312 78.8261 21.0506C78.8261 18.0454 80.7832 17.4066 83.9167 17.4066C87.0502 17.4066 89.0073 18.0454 89.0073 21.0506C89.0073 23.7347 87.0502 24.6283 83.9167 24.6283ZM83.9167 31.9581C91.0286 31.9581 96.5113 29.6579 96.5113 21.3508C96.5113 12.534 90.9644 10.6806 83.9167 10.6806C76.869 10.6806 71.3221 12.5654 71.3221 21.3682C71.3221 29.6684 76.8048 31.9756 83.9167 31.9756V31.9581Z" fill="#35393C"/>
</g>
<defs>
<clipPath id="clip0_9_1972">
<rect width="184" height="32" fill="white"/>
</clipPath>
</defs>
</svg>
