<svg width="34" height="20" viewBox="0 0 34 20" fill="none" xmlns="http://www.w3.org/2000/svg">
<path id="Vector" d="M24.9189 14.4953H22.2678V19.9998H24.9414V17.5163L28.0974 19.9998H30.7695V14.4953H28.0954V17.0009L24.9189 14.4953ZM16.9999 0C7.61083 0 0 8.0923 0 18.0745C0 18.7252 0.0324109 19.367 0.0953009 20H1.87561C1.80451 19.361 1.76896 18.718 1.76915 18.0745C1.76915 9.1312 8.58831 1.881 17 1.881C25.4117 1.881 32.2309 9.1312 32.2309 18.0745C32.2309 18.7262 32.1947 19.3686 32.1245 20H33.9047C33.9683 19.3604 34.0001 18.7177 34 18.0745C33.9996 8.0923 26.3887 0 16.9999 0ZM18.4266 14.4953H15.5838L12.2146 19.9998H14.9741L15.3486 19.3839H18.662L19.0368 19.9998H21.7961L18.4266 14.4953ZM17.7806 17.9208H16.23L17.0053 16.6473L17.7806 17.9208ZM5.68993 14.4953H3.18185V19.9998H5.85606V17.8231L7.4535 19.5213L9.05057 17.8231V19.9998H11.7247V14.4953H9.21656L7.45343 16.3701L5.68993 14.4953Z" fill="#222222"/>
</svg>
