<svg width="32" height="26" viewBox="0 0 32 26" fill="none" xmlns="http://www.w3.org/2000/svg">
<path id="Vector" d="M29.4679 4.7173C29.3588 4.58565 29.206 4.43207 29.0969 4.30042C25.8226 0.767932 20.4748 0 15.9782 0C11.4379 0 5.93724 0.767932 2.70668 4.51983C2.66303 4.58565 2.59754 4.65148 2.55389 4.7173C0.982265 6.62616 0 9.32489 0 12.9671C0 24.2008 9.08049 26 15.9782 26C22.8977 26 32 24.2008 32 12.9671C32 9.32489 31.0396 6.60422 29.4679 4.7173ZM5.56617 6.49451C7.72715 3.15949 11.809 2.34768 15.9782 2.34768C20.1473 2.34768 24.1637 3.11561 26.3465 6.38481C26.3902 6.45063 26.4338 6.5384 26.4775 6.62616C22.7449 8.84219 18.5102 8.92996 15.9782 14.4152C13.206 9.08354 9.01501 9.03966 5.34789 6.91139C5.41337 6.77975 5.50068 6.6481 5.56617 6.49451ZM15.9782 23.6523C9.77899 23.6962 3.99454 21.897 3.99454 12.9671C3.99454 12.3089 3.99454 11.6287 4.10368 11.0582C4.12551 10.9266 4.16917 10.7949 4.191 10.6633C6.26467 11.4093 8.31651 12.1114 10.412 12.8135C12.8568 13.8228 14.4939 15.2709 15.9782 18.5181C17.4625 15.2709 19.0559 13.6253 21.5225 12.616C23.6398 11.87 25.7135 11.1021 27.8308 10.3561C27.8527 10.4 27.8527 10.4658 27.8745 10.5097C27.9836 11.2338 28.0273 12.0895 28.0273 12.9671C28.0491 21.897 22.1774 23.7181 15.9782 23.6523Z" fill="black"/>
</svg>
