<svg width="32" height="32" viewBox="0 0 32 32" fill="none" xmlns="http://www.w3.org/2000/svg">
<g id="MitsubishiFUSO 1" clip-path="url(#clip0_371_1968)">
<g id="layer1">
<g id="g8696">
<path id="path8698" d="M2.12033 26.7426V27.8852H6.75795V29.0978H2.12033V31.2568H0.603394V25.421H7.0115V26.7426H2.12033Z" fill="#231F20"/>
</g>
<g id="g8708">
<path id="path8710" d="M31.3103 29.9444C31.2499 30.28 31.0915 30.5805 30.8566 30.7997C30.3404 31.2808 29.5593 31.2964 27.636 31.2964C25.2899 31.2964 24.6682 31.2808 24.1441 30.7481C23.7651 30.3608 23.6887 29.951 23.6887 28.4966C23.6887 28.1723 23.6887 27.851 23.6974 27.5171C23.7243 26.6362 23.8567 26.1869 24.1958 25.8552C24.6252 25.4545 25.2222 25.3485 27.313 25.3485C27.5744 25.3485 28.0897 25.3551 28.8699 25.372C29.9622 25.3941 30.3404 25.4545 30.7585 25.7163C31.2586 26.0249 31.3967 26.5642 31.3967 28.207C31.3967 29.0688 31.3654 29.6097 31.3103 29.9444ZM29.6145 26.8155C29.41 26.6523 28.589 26.6362 27.5384 26.6362C26.8138 26.6362 26.2003 26.6523 25.8764 26.6796C25.6984 26.6935 25.5534 26.737 25.4509 26.8155C25.2643 26.9605 25.2391 27.1681 25.2391 28.253C25.2391 28.4605 25.2391 28.6724 25.2491 28.8825C25.256 29.4282 25.2899 29.6358 25.4036 29.7673C25.4761 29.8554 25.6138 29.9158 25.7818 29.9444C26.1226 30.0018 26.8381 30.0378 27.636 30.0378C28.8521 30.0378 29.4499 30.0378 29.6575 29.809C29.8051 29.6458 29.8424 29.3744 29.8424 28.2274C29.8424 27.8679 29.885 27.0465 29.6145 26.8155Z" fill="#231F20"/>
</g>
<g id="g8712">
<path id="path8714" d="M22.3602 30.8762C22.0802 31.1823 21.7463 31.2695 21.0729 31.2695H15.8818V29.9745H20.5771C20.855 29.9745 20.967 29.9745 21.0807 29.9046C21.1806 29.8451 21.2127 29.737 21.2127 29.4305C21.2127 29.1865 21.1849 29.1096 21.0899 29.0298C21.0035 28.9599 20.9236 28.9421 20.6253 28.9421H17.67C16.8816 28.9421 16.6168 28.8826 16.2946 28.626C15.9725 28.3738 15.8488 27.9435 15.8488 27.0687C15.8488 26.4713 15.92 26.1778 16.121 25.8904C16.216 25.7589 16.348 25.6508 16.5052 25.583C16.8026 25.4515 16.945 25.4337 17.6422 25.4337H22.5256V26.6914H17.9592C17.476 26.6914 17.38 26.77 17.38 27.1911C17.38 27.5706 17.5046 27.6648 17.9396 27.6648H20.9926C21.8787 27.6648 22.3771 27.901 22.6051 28.4254C22.7197 28.6855 22.7622 28.9863 22.7622 29.5004C22.7622 30.195 22.658 30.5532 22.3602 30.8762Z" fill="#231F20"/>
</g>
<g id="g8716">
<path id="path8718" d="M14.3885 30.7766C14.0646 31.2112 13.5754 31.3809 12.4978 31.3883L11.5192 31.397L10.304 31.3883C9.16609 31.3809 8.6742 31.1964 8.31732 30.6854C8.09764 30.3802 8.01038 29.9882 8.01038 29.297V25.4873H9.53208V29.1476C9.53208 29.9265 9.68925 30.0485 10.6279 30.0581L11.4428 30.0663L12.2364 30.0485C13.1013 30.0294 13.2159 29.9178 13.2159 28.9801V25.4873H14.7558V28.9718C14.7558 30.0294 14.6768 30.3802 14.3885 30.7766Z" fill="#231F20"/>
</g>
<g id="g8720">
<path id="path8722" d="M19.4339 20.7549L11.6752 7.33186L15.5561 0.60342L19.4339 7.33837L19.4253 7.33186L11.6769 20.7549H3.92163L7.79819 14.0412H23.3057L27.2452 20.7549H19.4339Z" fill="#EE1D23"/>
</g>
</g>
</g>
<defs>
<clipPath id="clip0_371_1968">
<rect width="31" height="31" fill="white" transform="translate(0.5 0.5)"/>
</clipPath>
</defs>
</svg>
