<svg width="26" height="32" viewBox="0 0 26 32" fill="none" xmlns="http://www.w3.org/2000/svg">
<g id="Group 4">
<g id="Group 3">
<path id="Vector" fill-rule="evenodd" clip-rule="evenodd" d="M1.79468 29.0451H2.97956V31.474H3.77904V29.0451H4.9647V28.4248H1.79468V29.0451ZM10.9442 30.8941C11.6078 30.8941 11.7227 30.5297 11.7227 30.2204V28.4256H12.5292V30.2204C12.5292 31.1384 11.8478 31.5213 10.9442 31.5213C10.0406 31.5213 9.35921 31.1384 9.35921 30.2204V28.4256H10.1657V30.2204C10.1657 30.5297 10.2807 30.8941 10.9442 30.8941ZM7.39659 29.8801H6.39899V29.042H7.39659C7.71051 29.042 7.87986 29.2203 7.87986 29.4614C7.87986 29.7025 7.71051 29.8801 7.39659 29.8801ZM8.69956 29.4606C8.69956 28.8644 8.28078 28.424 7.50458 28.424H5.59793V31.4733H6.39899V30.4972H7.39272L7.92572 31.4733H8.80601L8.15491 30.3631C8.51231 30.1886 8.70034 29.8599 8.70034 29.4606H8.69956ZM18.4039 29.6529L19.5282 28.4481H20.5087L19.1056 29.9638L20.5087 31.4795H19.5282L18.403 30.2739H18.0721V31.474H17.2733V28.4248H18.0721V29.6529H18.4039ZM23.3843 29.8855C23.1332 29.7653 22.629 29.6839 22.288 29.6304L22.2871 29.6303C21.9979 29.5853 21.5636 29.5177 21.5636 29.2908C21.5636 29.1079 21.7658 29.0032 22.2421 29.0032C22.7183 29.0032 22.9337 29.1714 22.9337 29.3482H23.7122C23.7122 28.8171 23.2095 28.376 22.2305 28.376C21.2515 28.376 20.7449 28.8404 20.7449 29.3575C20.7449 29.5994 20.8676 29.7661 21.0564 29.9048C21.2771 30.0669 21.6384 30.1444 22.2567 30.2297C22.7961 30.3041 23.029 30.3654 23.029 30.5941C23.029 30.7468 22.8526 30.8972 22.3422 30.8972C21.8317 30.8972 21.5839 30.7398 21.5839 30.515H20.7386C20.7386 31.036 21.1845 31.5206 22.3305 31.5206C23.4075 31.5206 23.8123 31.0756 23.8123 30.5398C23.8123 30.2351 23.6461 30.0103 23.3843 29.8847V29.8855ZM15.4941 29.2218C15.3379 29.1079 15.1476 29.0404 14.9192 29.0404C14.6433 29.0404 14.4196 29.1234 14.2486 29.29C14.0777 29.456 13.9923 29.6754 13.9923 29.9483C13.9923 30.2204 14.0777 30.4398 14.2486 30.6065C14.4196 30.7724 14.6433 30.8561 14.9192 30.8561C15.1468 30.8561 15.3379 30.7887 15.4941 30.6747C15.6363 30.5708 15.7365 30.439 15.7917 30.2584H16.5741C16.5422 30.553 16.3488 30.9259 16.0504 31.16C15.7326 31.4097 15.3644 31.5206 14.9176 31.5206C14.4227 31.5206 14.0101 31.3702 13.6799 31.0701C13.3497 30.7701 13.185 30.3956 13.185 29.9483C13.185 29.5009 13.3497 29.1265 13.6799 28.8264C14.0101 28.5264 14.4227 28.376 14.9176 28.376C15.3644 28.376 15.7326 28.4868 16.0504 28.7365C16.3488 28.9698 16.5422 29.3435 16.5741 29.6381H15.7917C15.7365 29.4575 15.6363 29.3249 15.4941 29.2218Z" fill="#272727"/>
<path id="Vector_2" fill-rule="evenodd" clip-rule="evenodd" d="M2.41716 24.6784H1.41767V25.5296H2.41716C2.73163 25.5296 2.90133 25.3495 2.90133 25.1044C2.90133 24.8593 2.73163 24.6784 2.41716 24.6784ZM3.8284 27.1481H2.94725L2.41325 26.1568H1.41767V27.1481H0.615112V24.0513H2.52535C3.30299 24.0513 3.72256 24.4984 3.72256 25.1036C3.72256 25.5093 3.53415 25.8436 3.17608 26.0205L3.8284 27.1481ZM15.9241 24.052V25.8757C15.9241 26.8075 16.6068 27.1966 17.5122 27.1966C18.4175 27.1966 19.1002 26.8075 19.1002 25.8757V24.052H18.2922V25.8757C18.2922 26.1897 18.177 26.56 17.5122 26.56C16.8473 26.56 16.7322 26.1897 16.7322 25.8757V24.052H15.9241ZM5.39847 26.5178H7.27132V27.1481H4.59747V24.052H7.22072V24.6824H5.39847V25.2861H7.06349V25.8804H5.39847V26.5178ZM22.5508 26.5178H20.8064V24.052H20.0061V27.1481H22.5508V26.5178ZM13.7189 24.6894L13.1981 25.943H14.2396L13.7189 24.6894ZM15.5646 27.1481H14.7417L14.5028 26.5734H12.9366L12.6976 27.1481H11.8741L13.1997 24.0513H14.2389L15.5646 27.1481ZM22.2091 24.052V24.6816H23.3961V27.1481H24.197V24.6816H25.3849V24.052H22.2091ZM11.3401 24.052V27.1481H10.6481L8.8266 25.1146V27.1481H8.10732V24.052H8.78924L10.6239 26.0856V24.052H11.3401Z" fill="#272727"/>
</g>
<path id="Vector_3" fill-rule="evenodd" clip-rule="evenodd" d="M10.7876 0.478027L5.33313 10.6773L10.7876 20.8764H12.3466L17.8011 10.6773L14.2943 4.12016L13.5148 5.57762L16.2431 10.6773L11.5671 19.419L6.89112 10.6773L12.3466 0.478027H10.7876ZM13.9046 0.478027L8.45012 10.6773L11.9569 17.2343L12.7353 15.7768L10.0081 10.6773L14.6841 1.9355L19.3591 10.6773L13.9046 20.8764H15.4626L20.9181 10.6773L15.4626 0.478027H13.9046Z" fill="#272727"/>
</g>
</svg>
