<svg width="46" height="56" viewBox="0 0 46 56" fill="none" xmlns="http://www.w3.org/2000/svg">
<g id="sairme-logo 1" clip-path="url(#clip0_371_27354)">
<path id="Vector" d="M38.2087 1.20468C38.179 0.8546 38.1535 0.533353 38.1366 0.251232C38.1281 0.109142 38.0071 0 37.8606 0H37.4827C37.3235 0 37.1982 0.127675 37.2067 0.282121C37.2258 0.578657 37.2513 0.91226 37.281 1.27263C37.4551 3.46782 37.7183 6.78326 36.6123 9.4109C35.9966 10.8709 34.7441 12.3413 33.2092 13.8013C32.7485 14.2234 32.0649 14.7197 31.7911 14.5694C31.6149 14.4726 31.6637 14.1205 31.7635 13.7189C32.723 10.4714 32.1562 7.35368 31.8484 5.65684C31.8123 5.46326 31.7762 5.2594 31.7486 5.08642C31.7274 4.95668 31.6127 4.86195 31.4769 4.86195H31.0947C30.9249 4.86195 30.7975 5.0061 30.8209 5.16879C30.8464 5.34177 30.8846 5.55387 30.9334 5.8154C31.392 8.3339 32.4004 14.2049 27.6534 18.515C26.8 19.2893 25.1208 20.4836 23.0084 22.6788V22.6809L23.0063 22.6788C21.6731 21.2744 20.0278 19.8782 18.3634 18.517L18.3613 18.515C13.5634 14.1781 14.6228 8.3339 15.0814 5.8154C15.1281 5.55387 15.1663 5.34177 15.1939 5.16879C15.2193 5.0061 15.0898 4.86195 14.92 4.86195H14.5379C14.402 4.86195 14.2874 4.95668 14.2661 5.08642C14.2385 5.2594 14.2025 5.46532 14.1664 5.65684C13.8607 7.33515 13.3023 10.4076 14.2216 13.6201C14.3362 14.0628 14.4084 14.4664 14.2194 14.5714C13.9626 14.7115 13.3448 14.2852 12.8884 13.8836C11.3152 12.3969 10.0287 10.8998 9.40247 9.41296C8.2943 6.78532 8.55966 3.46782 8.73375 1.27469C8.76134 0.914319 8.78894 0.580716 8.80805 0.28418C8.8123 0.127675 8.68492 0 8.5257 0H8.14781C8.00133 0 7.88245 0.109142 7.87183 0.249173C7.85485 0.531294 7.82725 0.8546 7.79965 1.20262C7.6192 3.48018 7.34322 6.92741 8.53631 9.75068C9.78673 12.7202 13.2684 15.5558 16.7266 18.3605C18.1575 19.522 21.0001 21.8345 22.3716 23.344C21.3801 24.3963 20.3314 25.6112 19.8707 27.4605C19.582 26.3464 19.2466 25.3023 18.856 24.3736C16.0388 17.6439 8.97576 16.4557 8.97576 16.4557C8.97576 16.4557 8.74436 21.2023 11.7144 24.8246C13.6229 27.1516 16.3466 28.0638 18.0174 28.4283C18.1066 28.4489 18.1872 28.3666 18.166 28.2801C18.1044 28.0309 18.0407 27.7858 17.9749 27.5449C17.9643 27.5037 17.9325 27.4728 17.89 27.4625C16.3424 27.0754 14.056 26.2023 12.434 24.2583C11.2197 22.8024 10.4045 20.7987 10.2092 19.2028C10.1625 18.8259 10.2665 18.3955 10.4406 18.2761C10.7123 18.0887 11.156 18.1649 11.7016 18.3564C13.7397 19.3346 16.5695 21.2497 17.994 24.7093C18.1384 25.0594 19.3846 27.8764 19.8495 32.9814C19.9408 33.9822 20.0384 35.0489 20.0851 36.1609C20.0873 36.2268 20.1446 36.2804 20.2125 36.2804H20.8876C20.9598 36.2804 21.0171 36.2206 21.015 36.1506C20.9725 34.7997 20.7475 32.6766 20.6859 31.9044C20.5564 30.2714 20.4885 28.9823 20.7284 27.8785C21.102 26.1652 22.068 25.0079 23.0063 24.0132L23.639 23.344C25.2609 21.5606 28.9463 18.6344 29.2839 18.3605C32.6954 15.5887 36.2238 12.7181 37.4742 9.75068C38.6652 6.92741 38.3892 3.48224 38.2087 1.20468Z" fill="#383026"/>
<path id="Vector_2" d="M27.1525 24.3755C26.7618 25.3043 26.4264 26.3504 26.1377 27.4624C25.7874 26.0539 25.0975 25.0139 24.3459 24.1346C24.2971 24.077 24.2079 24.0749 24.1549 24.1305C24.0254 24.2664 23.8046 24.5012 23.6921 24.6227C23.6496 24.668 23.6496 24.7339 23.6878 24.7812C24.3799 25.6091 24.9998 26.5852 25.28 27.8804C25.5199 28.9842 25.4732 30.1786 25.3225 31.9063C25.2376 32.8783 25.0401 35.0138 24.9934 36.1526C24.9913 36.2226 25.0486 36.2823 25.1208 36.2823H25.7959C25.8638 36.2823 25.919 36.2288 25.9233 36.1629C25.97 35.0488 26.0761 33.9841 26.1589 32.9833C26.5474 28.2099 27.87 25.0613 28.0144 24.7112C29.4092 21.3237 32.1499 19.4189 34.1773 18.4201C34.7102 18.1895 35.2982 18.0886 35.5699 18.276C35.7334 18.3892 35.8289 18.7743 35.8098 19.1738C35.7568 20.2755 34.9755 22.5613 33.5744 24.2582C31.9652 26.2104 29.6682 27.0753 28.1205 27.4624C28.0781 27.4727 28.0441 27.5057 28.0335 27.5468C27.9677 27.7878 27.904 28.0308 27.8445 28.2799C27.8233 28.3664 27.904 28.4488 27.9932 28.4282C29.6639 28.0637 32.377 27.1432 34.2962 24.8245C37.2704 21.231 37.0348 16.4556 37.0348 16.4556C37.0348 16.4556 29.9717 17.6644 27.1525 24.3755Z" fill="#383026"/>
<path id="Vector_3" d="M19.5163 52.5814C19.1915 52.5814 18.9027 52.709 18.7308 52.9273C18.5588 52.709 18.2722 52.5814 17.9453 52.5814C17.7245 52.5814 17.525 52.6432 17.3636 52.7482C17.3912 52.6864 17.4252 52.6205 17.4698 52.5484C17.6714 52.2107 18.0493 51.9986 18.3699 51.9121C18.8624 51.7803 19.1978 51.8071 19.3825 51.803V51.5332C18.7924 51.5394 18.2043 51.56 17.6226 52.0171C17.232 52.324 16.9963 52.7173 16.9963 53.3104V54.8054H17.3233V53.3412C17.3233 53.0076 17.6014 52.8244 17.9453 52.8244C18.2892 52.8244 18.5673 53.0097 18.5673 53.3412V54.2782H18.8943V53.3412C18.8943 53.0076 19.1724 52.8244 19.5163 52.8244C19.8602 52.8244 20.1383 53.0097 20.1383 53.3412V54.8054H20.4652V53.4154C20.4652 52.9067 20.0385 52.5814 19.5163 52.5814Z" fill="#383026"/>
<path id="Vector_4" d="M28.0292 52.5814C27.7044 52.5814 27.4157 52.709 27.2437 52.9273C27.0718 52.709 26.7852 52.5814 26.4582 52.5814C26.2374 52.5814 26.0379 52.6432 25.8765 52.7482C25.9041 52.6864 25.9381 52.6205 25.9827 52.5484C26.1844 52.2107 26.5623 51.9986 26.8828 51.9121C27.3753 51.7803 27.7108 51.8071 27.8955 51.803V51.5332C27.3053 51.5394 26.7172 51.56 26.1355 52.0171C25.7449 52.324 25.5093 52.7173 25.5093 53.3104V54.8054H25.8362V53.3412C25.8362 53.0076 26.1143 52.8244 26.4582 52.8244C26.8022 52.8244 27.0803 53.0097 27.0803 53.3412V54.2782H27.4072V53.3412C27.4072 53.0076 27.6853 52.8244 28.0292 52.8244C28.3731 52.8244 28.6512 53.0097 28.6512 53.3412V54.8054H28.9782V53.4154C28.9782 52.9067 28.5536 52.5814 28.0292 52.5814Z" fill="#383026"/>
<path id="Vector_5" d="M33.9459 52.5815C33.4237 52.5815 32.9969 52.9069 32.9969 53.4176V54.8076H33.3239V53.3435C33.3239 53.0099 33.602 52.8266 33.9459 52.8266C34.2898 52.8266 34.5679 53.0119 34.5679 53.3435V54.8076H34.8949V53.4176C34.8949 52.9069 34.4682 52.5815 33.9459 52.5815Z" fill="#383026"/>
<path id="Vector_6" d="M23.7854 52.5815C23.4606 52.5815 23.1719 52.7092 22.9999 52.9275C22.828 52.7092 22.5414 52.5815 22.2145 52.5815C21.6922 52.5815 21.2655 52.9069 21.2655 53.4176V54.8076H21.5924V53.3435C21.5924 53.0099 21.8705 52.8266 22.2145 52.8266C22.5584 52.8266 22.8365 53.0119 22.8365 53.3435V54.2228H23.1655L23.1634 53.3435C23.1634 53.0099 23.4415 52.8266 23.7854 52.8266C24.1294 52.8266 24.4075 53.0119 24.4075 53.3435V54.8076H24.7344V53.4176C24.7365 52.9069 24.3098 52.5815 23.7854 52.5815Z" fill="#383026"/>
<path id="Vector_7" d="M15.3872 52.5815C15.1324 52.5815 14.9074 52.6721 14.763 52.8307C14.6187 52.6721 14.3936 52.5815 14.1389 52.5815C14.1325 52.5815 13.9181 52.5836 13.9181 52.5836V52.8245C13.9181 52.8245 14.1304 52.8245 14.1389 52.8245C14.3915 52.8245 14.5996 52.9399 14.5996 53.1849V53.8006H14.9265V53.1849C14.9265 52.9399 15.1324 52.8245 15.3872 52.8245C15.6398 52.8245 15.8478 52.9399 15.8478 53.1849V54.7603C15.8521 55.0259 15.8372 55.2112 15.8054 55.3245C15.7735 55.4419 15.6971 55.5428 15.5782 55.6272C15.4593 55.7116 15.315 55.7549 15.1452 55.7549C14.9753 55.7549 14.8182 55.6911 14.6802 55.5696C14.538 55.4481 14.4679 55.2977 14.4679 55.1248C14.4679 54.9106 14.5274 54.7108 14.6463 54.5296L14.3554 54.3752C14.1962 54.6058 14.1155 54.8138 14.1155 54.9991C14.1155 55.1968 14.1516 55.3719 14.228 55.5201C14.3002 55.6663 14.4212 55.7858 14.5826 55.8702C14.746 55.9567 14.935 56.002 15.1452 56.002C15.3574 56.002 15.5464 55.9567 15.7099 55.8702C15.8733 55.7858 15.9901 55.6663 16.0644 55.5201C16.1387 55.3719 16.1769 55.1145 16.1769 54.752V53.2632C16.1727 52.839 15.8224 52.5815 15.3872 52.5815Z" fill="#383026"/>
<path id="Vector_8" d="M12.7759 53.9368C12.9394 53.8194 13.0434 53.6423 13.0434 53.4138V52.6333H12.7165V53.492C12.7165 53.7371 12.5106 53.8524 12.2558 53.8524C12.2197 53.8524 12.1879 53.8503 12.156 53.8462V54.0933C12.156 54.0933 12.3705 54.0933 12.3768 54.0933C12.6295 54.0933 12.8375 54.2086 12.8375 54.4537V54.9459C12.8333 55.1147 12.8184 55.2383 12.7972 55.3248C12.7653 55.4422 12.6889 55.5431 12.57 55.6275C12.4511 55.7119 12.3068 55.7552 12.1369 55.7552C11.9671 55.7552 11.81 55.6913 11.672 55.5698C11.5298 55.4483 11.4597 55.298 11.4597 55.125C11.4597 54.9109 11.5192 54.7111 11.638 54.5299L11.3472 54.3754C11.188 54.6061 11.1073 54.8141 11.1073 54.9994C11.1073 55.1971 11.1434 55.3721 11.2198 55.5204C11.292 55.6666 11.413 55.7861 11.5743 55.8705C11.7378 55.957 11.9268 56.0023 12.1369 56.0023C12.3492 56.0023 12.5382 55.957 12.7016 55.8705C12.8651 55.7861 12.9819 55.6666 13.0562 55.5204C13.1071 55.4195 13.1687 55.2342 13.1687 55.0715V54.534C13.1623 54.2519 13.0073 54.046 12.7759 53.9368Z" fill="#383026"/>
<path id="Vector_9" d="M31.167 53.0922V52.5815H30.8401V53.0922C30.1798 53.1602 29.6852 53.6462 29.6852 54.4019V54.682C29.6852 55.5119 30.2817 56.002 31.0035 56.002C31.7487 56.002 32.324 55.4995 32.324 54.682V54.4019C32.324 53.6462 31.8294 53.1602 31.167 53.0922ZM31.9907 54.682C31.9907 55.3986 31.5088 55.7302 30.9972 55.7302C30.4855 55.7302 30.01 55.3966 30.01 54.682V54.4019C30.01 53.7615 30.3921 53.4279 30.8401 53.3641V54.2084H31.167V53.3641C31.6107 53.43 31.9907 53.7636 31.9907 54.3999V54.682Z" fill="#383026"/>
<path id="Vector_10" d="M3.488 45.0115C3.74488 45.446 4.16947 46.3335 4.16947 47.3426C4.16947 47.7483 3.84466 48.5514 2.86598 48.5514C2.10596 48.5514 1.48819 47.9542 1.48819 47.2149V42.2026H0V47.3838C0 48.6935 0.95108 49.7643 2.85324 49.7643C5.64704 49.7643 5.86358 47.9748 5.86358 47.3426C5.86358 46.313 5.39865 45.2586 5.29887 45.0012C4.87004 45.0074 4.00812 45.0156 3.488 45.0115Z" fill="#383026"/>
<path id="Vector_11" d="M28.7043 45.0078C27.9804 45.0078 27.3265 45.2508 26.8574 45.673C26.3882 45.2508 25.7343 45.0078 25.0125 45.0078C24.692 45.0078 24.3863 45.0572 24.1018 45.1478C24.5412 43.6405 25.6919 43.4881 26.9954 43.4881C27.524 43.4881 29.4113 43.4963 29.8635 43.484L30.3836 42.2134C29.9229 42.2422 27.7363 42.2422 26.9954 42.2422C25.0338 42.2422 22.4204 42.7241 22.4204 46.8797V49.6165H23.9107V47.2607C23.9107 46.6738 24.4032 46.2805 25.0125 46.2805C25.6218 46.2805 26.1122 46.6738 26.1122 47.2607V48.7578H27.6025V47.2607C27.6025 46.6738 28.095 46.2805 28.7043 46.2805C29.3094 46.2805 29.804 46.6738 29.804 47.2607V49.6206H31.2943V47.3492C31.2943 45.9613 30.1352 45.0078 28.7043 45.0078Z" fill="#383026"/>
<path id="Vector_12" d="M20.5373 44.6635C20.5373 43.1252 19.2529 42.0503 17.6671 42.0503C16.0813 42.0503 14.7969 43.1273 14.7969 44.6635V49.6449H16.2851V44.5564C16.2851 43.8172 16.9028 43.3003 17.665 43.3003C18.4292 43.3003 19.047 43.8172 19.047 44.5564V49.6449H20.5352L20.5373 44.6635Z" fill="#383026"/>
<path id="Vector_13" d="M43.0682 42.0381C41.4909 42.0381 40.6459 43.1151 40.5016 43.3519L41.4696 44.26C41.6289 44.0706 42.2827 43.3601 43.0661 43.3601C43.9811 43.3601 44.5097 43.875 44.5097 44.3156C44.5097 44.4927 44.5118 47.3098 44.5118 47.3098C44.5118 48.0285 43.911 48.4383 43.1701 48.4383C42.4313 48.4383 41.8327 48.0285 41.8305 47.3098L41.8242 46.5047C41.3019 46.5088 40.7139 46.5005 40.285 46.4944C40.1938 46.7312 40.1322 47.0339 40.1364 47.349C40.1577 48.947 41.4484 49.7645 43.0682 49.7645C44.688 49.7645 46 48.9181 46 47.349V44.3774C45.9809 43.2901 45.2591 42.0381 43.0682 42.0381Z" fill="#383026"/>
<path id="Vector_14" d="M10.4194 43.3764C9.53837 42.8513 9.89927 42.2026 9.89927 42.2026L8.34315 42.215C8.12024 43.6833 8.76986 43.953 9.95022 44.6594C11.4214 45.5387 11.621 46.2532 11.621 46.9143C11.621 47.9954 10.9607 48.4381 10.137 48.4381C9.49804 48.4381 8.90786 48.0283 8.90786 47.3096V46.5045C8.38561 46.5086 7.79119 46.5003 7.36235 46.4942C7.27106 46.731 7.21375 47.044 7.21375 47.3488C7.21375 48.92 8.52573 49.7643 10.1455 49.7643C11.8503 49.7643 13.3406 48.9221 13.3406 46.8525C13.3406 45.1206 12.035 44.3402 10.4194 43.3764Z" fill="#383026"/>
<path id="Vector_15" d="M38.6398 44.3774C38.6228 43.2901 37.8543 42.0381 35.7377 42.0381C33.8547 42.0381 33.1689 43.0286 33.0331 43.2675L33.9332 44.1303C34.12 43.9306 34.8418 43.3622 35.6974 43.3622C36.7567 43.3622 37.1537 43.877 37.1537 44.3177C37.1537 44.3383 37.1537 45.0446 37.1537 45.0446C36.8905 45.0302 36.4086 45.0055 36.1602 44.9993C34.258 44.9561 32.7783 45.7468 32.7783 47.3098C32.7783 48.7637 34.12 49.7645 35.7101 49.7645C37.2981 49.7645 38.6419 48.9017 38.6419 47.4375V44.3774H38.6398ZM37.1537 47.3098C37.1537 48.0285 36.5529 48.4383 35.812 48.4383C35.0987 48.4383 34.4746 47.9812 34.4746 47.3098C34.4746 46.7888 34.8524 46.2473 36.0519 46.2699C36.3258 46.274 36.6527 46.2884 37.1537 46.3152V47.3098Z" fill="#383026"/>
</g>
<defs>
<clipPath id="clip0_371_27354">
<rect width="46" height="56" fill="white"/>
</clipPath>
</defs>
</svg>
