<svg width="48" height="48" viewBox="0 0 48 48" fill="none" xmlns="http://www.w3.org/2000/svg">
<rect width="48" height="48" rx="4" fill="#F7F8F9"/>
<path d="M18.3242 16.7725V19.7256H15.4668V30H11.9531V19.7256H9.08203V16.7725H18.3242ZM28.3936 25.8301C28.3936 28.7012 26.7666 30.1982 23.8135 30.1982C20.751 30.1982 19.1104 28.4277 19.1104 25.085V21.7012C19.1104 18.3584 20.751 16.5879 23.8135 16.5879C26.7871 16.5879 28.3936 18.0645 28.3936 20.9697V22.3984L24.9346 22.3848V20.8604C24.9346 20.04 24.5176 19.5 23.8408 19.5C23.1641 19.5 22.7061 20.04 22.7061 20.8604V25.9258C22.7061 26.7461 23.1641 27.2861 23.8408 27.2861C24.5176 27.2861 24.9346 26.7461 24.9346 25.9258V24.3193H28.3936V25.8301ZM33.7461 27.0332H37.875V30H30.2188V16.7725H37.8203V19.7393H33.7461V21.8652H37.5127V24.709H33.7461V27.0332Z" fill="#323232"/>
</svg>
