<svg width="40" height="22" viewBox="0 0 40 22" fill="none" xmlns="http://www.w3.org/2000/svg">
<g id="Group">
<path id="Vector" d="M39.2027 0H0.797119V22H39.2027V0Z" fill="#35393C"/>
<path id="Vector_2" d="M1.57324 0.776367V21.2235L38.426 21.2052V0.776367H1.57324Z" fill="#35393C"/>
<path id="Vector_3" d="M1.88605 1.10583H38.1139V20.8927H1.88605V1.10583ZM1.26111 21.5359H38.7381V0.463867H1.26111V21.5359Z" fill="#FFFAF0"/>
<path id="Vector_4" d="M21.6853 9.01491V9.10783C21.6853 10.1143 21.1101 10.2648 19.6672 10.2648H18.1529C16.6282 10.2648 16.053 9.99846 16.053 8.6792V7.51111C16.053 6.07603 16.4639 5.85616 18.1529 5.85616H20.2417C21.1808 5.85616 21.6146 6.13427 21.6146 6.80502V6.88551H24.2316C24.2433 6.72388 24.2433 6.56159 24.2433 6.41173C24.2433 5.40528 24.0084 4.71097 23.4568 4.29478C22.8351 3.82034 21.826 3.75098 20.336 3.75098H17.4265C14.5165 3.75098 13.4014 4.46819 13.4014 6.99022V9.28059C13.4014 10.4264 13.671 11.1901 14.3875 11.745C15.1263 12.3124 16.0772 12.37 17.4265 12.37H20.336C21.826 12.37 22.8469 12.2771 23.4921 11.8033C24.1026 11.3635 24.3487 10.6699 24.3487 9.62807C24.3487 9.4311 24.3369 9.23478 24.3251 9.01491H21.6853Z" fill="#FFFAF0"/>
<path id="Vector_5" d="M9.1158 3.79688H6.51132H3.49719V5.82614H6.51132V12.4296H9.1158V5.82614H12.1299V3.79688H9.1158Z" fill="#FFFAF0"/>
<path id="Vector_6" d="M26.376 3.79688H28.3012L30.9522 9.28003L31.1216 8.93058C31.3808 8.3966 31.6406 7.86327 31.9004 7.3319V7.32994C32.223 6.67293 32.488 6.13175 32.6811 5.73649C32.9899 5.10108 33.2517 4.5612 33.4559 4.1352L33.6182 3.79753H36.5027L32.2106 12.4172H29.7029L25.4108 3.79753H26.376V3.79688Z" fill="#FFFAF0"/>
<path id="Vector_7" d="M38.2932 15.167H1.7074V21.2142H38.2932V15.167Z" fill="#FFFAF0"/>
<path id="Vector_8" d="M3.72889 19.3475C3.72889 19.4745 3.75834 19.57 3.81658 19.6355C3.87482 19.7009 3.94942 19.7336 4.03973 19.7336C4.13003 19.7336 4.20398 19.7009 4.26222 19.6361C4.31981 19.5713 4.3486 19.4738 4.3486 19.3443C4.3486 19.216 4.32046 19.1205 4.26418 19.0576C4.20791 18.9942 4.13331 18.9627 4.03973 18.9627C3.9468 18.9627 3.87155 18.9948 3.81462 19.0583C3.75768 19.1224 3.72889 19.2186 3.72889 19.3475ZM3.49658 19.3554C3.49658 19.2415 3.5136 19.146 3.54762 19.0681C3.57315 19.0112 3.60783 18.9601 3.65167 18.9143C3.69552 18.8692 3.74394 18.8358 3.79629 18.8135C3.86631 18.7841 3.94615 18.769 4.03711 18.769C4.20202 18.769 4.33355 18.8201 4.43302 18.9228C4.53183 19.0256 4.58156 19.1676 4.58156 19.3501C4.58156 19.5308 4.53248 19.6728 4.43433 19.7742C4.33617 19.8763 4.20463 19.9273 4.04104 19.9273C3.87482 19.9273 3.74263 19.8763 3.64447 19.7748C3.54566 19.6734 3.49658 19.5334 3.49658 19.3554Z" fill="#35393C"/>
<path id="Vector_9" d="M4.75745 19.9073V18.7896H5.52505V18.9787H4.98387V19.2437H5.45176V19.4328H4.98387V19.9073H4.75745Z" fill="#35393C"/>
<path id="Vector_10" d="M5.71094 19.9073V18.7896H6.47854V18.9787H5.93736V19.2437H6.40525V19.4328H5.93736V19.9073H5.71094Z" fill="#35393C"/>
<path id="Vector_11" d="M6.88291 18.7896H6.65649V19.9073H6.88291V18.7896Z" fill="#35393C"/>
<path id="Vector_12" d="M7.81283 19.4948L8.0314 19.5622C7.99802 19.6852 7.94175 19.7768 7.86387 19.8364C7.786 19.8959 7.68719 19.926 7.56678 19.926C7.41823 19.926 7.29651 19.875 7.20032 19.7735C7.10478 19.6721 7.05701 19.5334 7.05701 19.3573C7.05701 19.1715 7.10543 19.0269 7.20097 18.9235C7.29717 18.8207 7.42347 18.769 7.57987 18.769C7.71663 18.769 7.82788 18.8096 7.91295 18.8908C7.96399 18.9385 8.00195 19.0072 8.02747 19.0969L7.80432 19.1499C7.79123 19.0923 7.76375 19.0465 7.72187 19.0125C7.67999 18.9791 7.62895 18.9621 7.56874 18.9621C7.48563 18.9621 7.41823 18.9915 7.36653 19.0511C7.31484 19.1106 7.28932 19.2068 7.28932 19.3397C7.28932 19.4804 7.31484 19.5811 7.36522 19.6413C7.41627 19.7016 7.48236 19.7317 7.56351 19.7317C7.62371 19.7317 7.67541 19.7127 7.7186 19.6747C7.7631 19.6368 7.79385 19.5772 7.81283 19.4948Z" fill="#35393C"/>
<path id="Vector_13" d="M8.44358 18.7896H8.21716V19.9073H8.44358V18.7896Z" fill="#35393C"/>
<path id="Vector_14" d="M9.25191 19.4642L9.09682 19.0507L8.94565 19.4642H9.25191ZM9.66549 19.9073H9.42205L9.32586 19.6527H8.8776L8.78467 19.9073H8.54517L8.97903 18.7896H9.21788L9.66549 19.9073Z" fill="#35393C"/>
<path id="Vector_15" d="M9.79236 19.9072V18.7993H10.0188V19.7187H10.5789V19.9072H9.79236Z" fill="#35393C"/>
<path id="Vector_16" d="M11.3636 18.7896H11.1372V19.9073H11.3636V18.7896Z" fill="#35393C"/>
<path id="Vector_17" d="M11.5757 19.9073V18.7896H11.9147L12.1149 19.5519L12.3125 18.7896H12.6528V19.9073H12.4434L12.4428 19.0278L12.2222 19.9073H12.005L11.7857 19.0278L11.7844 19.9073H11.5757Z" fill="#35393C"/>
<path id="Vector_18" d="M13.105 18.9787V19.2974H13.228C13.317 19.2974 13.3759 19.2915 13.406 19.2797C13.4361 19.2679 13.4596 19.2496 13.476 19.2247C13.493 19.1999 13.5015 19.1711 13.5015 19.1377C13.5015 19.0971 13.4897 19.0631 13.4662 19.0369C13.442 19.0101 13.4125 18.9937 13.3759 18.9872C13.349 18.9819 13.2954 18.9793 13.2142 18.9793H13.105V18.9787ZM12.8785 19.9073V18.7896H13.2404C13.3772 18.7896 13.4668 18.7948 13.5081 18.8059C13.5722 18.8229 13.6259 18.8596 13.669 18.9152C13.7122 18.9715 13.7338 19.0441 13.7338 19.1331C13.7338 19.2018 13.7214 19.2594 13.6965 19.3059C13.6717 19.353 13.6403 19.3896 13.6016 19.4165C13.5637 19.4433 13.5244 19.461 13.4845 19.4695C13.4308 19.4799 13.353 19.4858 13.2509 19.4858H13.1043V19.9073H12.8785Z" fill="#35393C"/>
<path id="Vector_19" d="M14.1055 19.3475C14.1055 19.4745 14.1349 19.57 14.1932 19.6355C14.2514 19.7009 14.326 19.7336 14.4163 19.7336C14.5066 19.7336 14.5806 19.7009 14.6382 19.6361C14.6957 19.5713 14.7245 19.4738 14.7245 19.3443C14.7245 19.216 14.6964 19.1205 14.6401 19.0576C14.5838 18.9942 14.5092 18.9627 14.4157 18.9627C14.3227 18.9627 14.2475 18.9948 14.1905 19.0583C14.1343 19.1224 14.1055 19.2186 14.1055 19.3475ZM13.8732 19.3554C13.8732 19.2415 13.8902 19.146 13.9242 19.0681C13.9497 19.0112 13.9844 18.9601 14.0283 18.9143C14.0721 18.8692 14.1205 18.8358 14.1729 18.8135C14.2429 18.7841 14.3227 18.769 14.4144 18.769C14.5793 18.769 14.7108 18.8201 14.8103 18.9228C14.9091 19.0256 14.9588 19.1676 14.9588 19.3501C14.9588 19.5308 14.9097 19.6728 14.8116 19.7742C14.7134 19.8763 14.5819 19.9273 14.4183 19.9273C14.2521 19.9273 14.1199 19.8763 14.0217 19.7748C13.9222 19.6734 13.8732 19.5334 13.8732 19.3554Z" fill="#35393C"/>
<path id="Vector_20" d="M15.3599 19.2627H15.5268C15.6348 19.2627 15.7022 19.2581 15.7297 19.2489C15.7565 19.2398 15.7781 19.2241 15.7931 19.2018C15.8082 19.1796 15.816 19.1514 15.816 19.1181C15.816 19.0801 15.8056 19.05 15.7859 19.0264C15.7656 19.0035 15.7375 18.9885 15.7009 18.9826C15.6825 18.98 15.6276 18.9787 15.536 18.9787H15.3599V19.2627ZM15.1342 19.9073V18.7896H15.6092C15.7283 18.7896 15.8154 18.7994 15.8697 18.8197C15.924 18.8399 15.9672 18.8753 15.9999 18.9263C16.0326 18.978 16.049 19.0363 16.049 19.1024C16.049 19.1861 16.0248 19.2555 15.975 19.3104C15.926 19.3648 15.8527 19.3994 15.7545 19.4138C15.8029 19.442 15.8435 19.4734 15.8749 19.5074C15.907 19.5414 15.9495 19.6023 16.0032 19.6887L16.1393 19.9066H15.8697L15.7081 19.6625C15.6498 19.5761 15.6106 19.5212 15.589 19.4989C15.5674 19.4767 15.5451 19.461 15.5209 19.4525C15.4967 19.4439 15.4587 19.44 15.4064 19.44H15.3606V19.9066H15.1342V19.9073Z" fill="#35393C"/>
<path id="Vector_21" d="M16.5124 19.9073V18.9787H16.1813V18.7896H17.068V18.9787H16.7388V19.9073H16.5124Z" fill="#35393C"/>
<path id="Vector_22" d="M17.2145 19.9073V18.7896H18.0416V18.9787H17.4409V19.2267H17.9997V19.4158H17.4409V19.7188H18.0632V19.9073H17.2145Z" fill="#35393C"/>
<path id="Vector_23" d="M18.482 19.2627H18.6489C18.7569 19.2627 18.8243 19.2581 18.8518 19.2489C18.8786 19.2398 18.9002 19.2241 18.9152 19.2018C18.9303 19.1796 18.9381 19.1514 18.9381 19.1181C18.9381 19.0801 18.9277 19.05 18.908 19.0264C18.8878 19.0035 18.8596 18.9885 18.823 18.9826C18.8046 18.98 18.7497 18.9787 18.6581 18.9787H18.482V19.2627ZM18.2556 19.9073V18.7896H18.7307C18.8498 18.7896 18.9368 18.7994 18.9912 18.8197C19.0455 18.8399 19.0887 18.8753 19.1214 18.9263C19.1541 18.978 19.1705 19.0363 19.1705 19.1024C19.1705 19.1861 19.1462 19.2555 19.0965 19.3104C19.0474 19.3648 18.9741 19.3994 18.876 19.4138C18.9244 19.442 18.965 19.4734 18.9964 19.5074C19.0285 19.5414 19.071 19.6023 19.1246 19.6887L19.2608 19.9066H18.9912L18.8295 19.6625C18.7713 19.5761 18.732 19.5212 18.7104 19.4989C18.6888 19.4767 18.6666 19.461 18.6424 19.4525C18.6181 19.4439 18.5802 19.44 18.5285 19.44H18.4827V19.9066H18.2556V19.9073Z" fill="#35393C"/>
<path id="Vector_24" d="M20.0023 19.3475C20.0023 19.4745 20.0317 19.57 20.0899 19.6355C20.1482 19.7009 20.2228 19.7336 20.3131 19.7336C20.4034 19.7336 20.4773 19.7009 20.5349 19.6361C20.5925 19.5713 20.6213 19.4738 20.6213 19.3443C20.6213 19.216 20.5932 19.1205 20.5369 19.0576C20.4806 18.9942 20.406 18.9627 20.3124 18.9627C20.2195 18.9627 20.1443 18.9948 20.0873 19.0583C20.031 19.1224 20.0023 19.2186 20.0023 19.3475ZM19.7693 19.3554C19.7693 19.2415 19.7863 19.146 19.8203 19.0681C19.8459 19.0112 19.8805 18.9601 19.9244 18.9143C19.9682 18.8692 20.0166 18.8358 20.069 18.8135C20.139 18.7841 20.2189 18.769 20.3098 18.769C20.4747 18.769 20.6063 18.8201 20.7057 18.9228C20.8045 19.0256 20.8543 19.1676 20.8543 19.3501C20.8543 19.5308 20.8052 19.6728 20.707 19.7742C20.6089 19.8763 20.4773 19.9273 20.3131 19.9273C20.1469 19.9273 20.0147 19.8763 19.9165 19.7748C19.819 19.6734 19.7693 19.5334 19.7693 19.3554Z" fill="#35393C"/>
<path id="Vector_25" d="M21.0303 19.9073V18.7896H21.7985V18.9787H21.2567V19.2437H21.7252V19.4328H21.2567V19.9073H21.0303Z" fill="#35393C"/>
<path id="Vector_26" d="M22.644 19.2627H22.8109C22.9189 19.2627 22.9863 19.2581 23.0138 19.2489C23.0406 19.2398 23.0622 19.2241 23.0772 19.2018C23.0923 19.1796 23.1001 19.1514 23.1001 19.1181C23.1001 19.0801 23.0897 19.05 23.07 19.0264C23.0497 19.0035 23.0216 18.9885 22.985 18.9826C22.9666 18.98 22.9117 18.9787 22.8201 18.9787H22.644V19.2627ZM22.4176 19.9073V18.7896H22.8927C23.0118 18.7896 23.0988 18.7994 23.1531 18.8197C23.2075 18.8399 23.2506 18.8753 23.2834 18.9263C23.3161 18.978 23.3324 19.0363 23.3324 19.1024C23.3324 19.1861 23.3082 19.2555 23.2585 19.3104C23.2094 19.3648 23.1361 19.3994 23.038 19.4138C23.0864 19.442 23.127 19.4734 23.1584 19.5074C23.1904 19.5414 23.233 19.6023 23.2866 19.6887L23.4227 19.9066H23.1531L22.9915 19.6625C22.9333 19.5761 22.894 19.5212 22.8724 19.4989C22.8508 19.4767 22.8286 19.461 22.8043 19.4525C22.7801 19.4439 22.7422 19.44 22.6898 19.44H22.644V19.9066H22.4176V19.9073Z" fill="#35393C"/>
<path id="Vector_27" d="M23.5444 19.9073V18.7896H24.3722V18.9787H23.7709V19.2267H24.3297V19.4158H23.7709V19.7188H24.3938V19.9073H23.5444Z" fill="#35393C"/>
<path id="Vector_28" d="M24.5856 19.9073V18.7896H24.8048L25.2648 19.5388V18.7896H25.4736V19.9073H25.2478L24.795 19.173V19.9073H24.5856Z" fill="#35393C"/>
<path id="Vector_29" d="M26.3061 19.4642L26.151 19.0507L25.9998 19.4642H26.3061ZM26.7197 19.9073H26.4756L26.3787 19.6527H25.9305L25.8375 19.9073H25.598L26.0319 18.7896H26.2707L26.7197 19.9073Z" fill="#35393C"/>
<path id="Vector_30" d="M26.84 18.7896H27.0664V19.3949C27.0664 19.4911 27.069 19.5532 27.0749 19.5814C27.0847 19.6272 27.107 19.6638 27.1429 19.692C27.1789 19.7201 27.228 19.7338 27.2908 19.7338C27.3543 19.7338 27.4021 19.7208 27.4342 19.6946C27.4662 19.6684 27.4859 19.6363 27.4924 19.5984C27.4989 19.5604 27.5022 19.4969 27.5022 19.4086V18.7902H27.7286V19.3779C27.7286 19.512 27.7227 19.6069 27.7103 19.6625C27.6979 19.7181 27.6756 19.7646 27.6429 19.8032C27.6102 19.8412 27.567 19.8719 27.512 19.8942C27.4571 19.9171 27.3857 19.9282 27.2974 19.9282C27.1907 19.9282 27.1102 19.9158 27.0553 19.8915C27.0003 19.8667 26.9571 19.8346 26.925 19.7954C26.893 19.7561 26.872 19.7149 26.8622 19.671C26.8472 19.6069 26.84 19.5127 26.84 19.387V18.7896Z" fill="#35393C"/>
<path id="Vector_31" d="M27.9734 19.9072V18.7993H28.1998V19.7187H28.76V19.9072H27.9734Z" fill="#35393C"/>
<path id="Vector_32" d="M29.0565 19.9073V18.9787H28.7253V18.7896H29.612V18.9787H29.2829V19.9073H29.0565Z" fill="#35393C"/>
<path id="Vector_33" d="M30.443 19.9073V18.9787H30.1125V18.7896H30.9992V18.9787H30.6694V19.9073H30.443Z" fill="#35393C"/>
<path id="Vector_34" d="M31.3716 19.2627H31.5384C31.6464 19.2627 31.7138 19.2581 31.7413 19.2489C31.7681 19.2398 31.7897 19.2241 31.8048 19.2018C31.8198 19.1796 31.8277 19.1514 31.8277 19.1181C31.8277 19.0801 31.8172 19.05 31.7976 19.0264C31.7773 19.0035 31.7491 18.9885 31.7125 18.9826C31.6942 18.98 31.6392 18.9787 31.5476 18.9787H31.3716V19.2627ZM31.1451 19.9073V18.7896H31.6202C31.7393 18.7896 31.8264 18.7994 31.8807 18.8197C31.935 18.8399 31.9782 18.8753 32.0109 18.9263C32.0436 18.978 32.06 19.0363 32.06 19.1024C32.06 19.1861 32.0358 19.2555 31.986 19.3104C31.937 19.3648 31.8637 19.3994 31.7655 19.4138C31.8139 19.442 31.8545 19.4734 31.8859 19.5074C31.9173 19.5414 31.9605 19.6023 32.0142 19.6887L32.1503 19.9066H31.8807L31.719 19.6625C31.6608 19.5761 31.6215 19.5212 31.5999 19.4989C31.5783 19.4767 31.5561 19.461 31.5319 19.4525C31.5077 19.4439 31.4697 19.44 31.4174 19.44H31.3716V19.9066H31.1451V19.9073Z" fill="#35393C"/>
<path id="Vector_35" d="M32.2727 18.7896H32.4991V19.3949C32.4991 19.4911 32.5017 19.5532 32.5076 19.5814C32.5174 19.6272 32.5397 19.6638 32.5757 19.692C32.6117 19.7201 32.6608 19.7338 32.7236 19.7338C32.7871 19.7338 32.8348 19.7208 32.8669 19.6946C32.899 19.6684 32.9186 19.6363 32.9251 19.5984C32.9317 19.5604 32.9349 19.4969 32.9349 19.4086V18.7902H33.1614V19.3779C33.1614 19.512 33.1555 19.6069 33.143 19.6625C33.1306 19.7181 33.1084 19.7646 33.0756 19.8032C33.0429 19.8412 32.9997 19.8719 32.9448 19.8942C32.8898 19.9171 32.8185 19.9282 32.7301 19.9282C32.6235 19.9282 32.543 19.9158 32.488 19.8915C32.433 19.8667 32.3898 19.8346 32.3578 19.7954C32.3257 19.7561 32.3048 19.7149 32.295 19.671C32.2799 19.6069 32.2727 19.5127 32.2727 19.387V18.7896Z" fill="#35393C"/>
<path id="Vector_36" d="M34.1148 19.4948L34.3334 19.5622C34.3 19.6852 34.2437 19.7768 34.1659 19.8364C34.088 19.8959 33.9892 19.926 33.8688 19.926C33.7202 19.926 33.5985 19.875 33.5023 19.7735C33.4068 19.6721 33.359 19.5334 33.359 19.3573C33.359 19.1715 33.4074 19.0269 33.503 18.9235C33.5992 18.8207 33.7255 18.769 33.8819 18.769C34.0186 18.769 34.1299 18.8096 34.215 18.8908C34.266 18.9385 34.304 19.0072 34.3295 19.0969L34.1063 19.1499C34.0932 19.0923 34.0658 19.0465 34.0239 19.0125C33.982 18.9791 33.9309 18.9621 33.8707 18.9621C33.7876 18.9621 33.7202 18.9915 33.6685 19.0511C33.6168 19.1106 33.5913 19.2068 33.5913 19.3397C33.5913 19.4804 33.6168 19.5811 33.6672 19.6413C33.7183 19.7016 33.7844 19.7317 33.8655 19.7317C33.9257 19.7317 33.9774 19.7127 34.0206 19.6747C34.0644 19.6368 34.0959 19.5772 34.1148 19.4948Z" fill="#35393C"/>
<path id="Vector_37" d="M34.5304 19.9073V18.7896H34.7562V19.2849L35.2123 18.7896H35.5159L35.0938 19.2247L35.5375 19.9073H35.2456L34.9381 19.3824L34.7562 19.5696V19.9073H34.5304Z" fill="#35393C"/>
<path id="Vector_38" d="M35.5951 19.5452L35.815 19.5236C35.8281 19.5975 35.8549 19.6512 35.8948 19.6858C35.9354 19.7205 35.9897 19.7375 36.0577 19.7375C36.1297 19.7375 36.1847 19.7225 36.2213 19.6917C36.258 19.661 36.2763 19.625 36.2763 19.5838C36.2763 19.5569 36.2685 19.5347 36.2534 19.5164C36.2384 19.498 36.2109 19.4817 36.1723 19.4679C36.1461 19.4588 36.0859 19.4424 35.9923 19.4189C35.8719 19.3888 35.7875 19.3515 35.7384 19.3076C35.6697 19.2461 35.6357 19.1708 35.6357 19.0818C35.6357 19.0249 35.652 18.9713 35.6841 18.9215C35.7162 18.8718 35.7626 18.8338 35.8235 18.8083C35.8843 18.7821 35.957 18.769 36.0427 18.769C36.1821 18.769 36.2874 18.7998 36.3581 18.862C36.4288 18.9241 36.4661 19.0066 36.4694 19.1106L36.2429 19.1185C36.2331 19.0609 36.2128 19.0197 36.1814 18.9942C36.15 18.9686 36.1029 18.9562 36.0394 18.9562C35.9746 18.9562 35.9236 18.9699 35.887 18.9968C35.8634 19.0144 35.8516 19.0373 35.8516 19.0668C35.8516 19.0936 35.8627 19.1159 35.885 19.1348C35.9131 19.1591 35.9825 19.1839 36.0918 19.2101C36.2011 19.2356 36.2822 19.2631 36.3346 19.2906C36.3869 19.3187 36.4281 19.356 36.4576 19.4045C36.487 19.4529 36.5021 19.5118 36.5021 19.5825C36.5021 19.6466 36.4844 19.7068 36.4484 19.7624C36.4131 19.818 36.3627 19.8599 36.2973 19.8867C36.2325 19.9142 36.1513 19.9273 36.0538 19.9273C35.9125 19.9273 35.8038 19.8946 35.7286 19.8298C35.6546 19.7644 35.6095 19.6695 35.5951 19.5452Z" fill="#35393C"/>
<path id="Vector_39" d="M3.91605 17.4584V16.3865H3.49658V16.168H4.61952V16.3865H4.20267V17.4584H3.91605Z" fill="#35393C"/>
<path id="Vector_40" d="M4.83936 17.4584V16.168H5.88704V16.3865H5.12598V16.6725H5.83338V16.8911H5.12598V17.2405H5.91452V17.4584H4.83936Z" fill="#35393C"/>
<path id="Vector_41" d="M6.85026 16.9848V16.7669H7.46474V17.2819C7.40519 17.3349 7.31815 17.3813 7.20494 17.4219C7.09173 17.4625 6.97656 17.4821 6.86008 17.4821C6.71219 17.4821 6.58327 17.454 6.47333 17.397C6.3634 17.3401 6.28094 17.259 6.22532 17.1536C6.1697 17.0482 6.14221 16.9331 6.14221 16.8087C6.14221 16.6739 6.17297 16.5548 6.23448 16.4495C6.29665 16.3448 6.38695 16.2643 6.5054 16.2087C6.59636 16.1655 6.70892 16.1445 6.84437 16.1445C7.01975 16.1445 7.15717 16.1779 7.25599 16.2453C7.3548 16.3127 7.41828 16.4056 7.44641 16.5247L7.16175 16.5732C7.14212 16.5097 7.10417 16.4593 7.0492 16.4226C6.99423 16.386 6.92617 16.3677 6.84372 16.3677C6.71938 16.3677 6.61992 16.4037 6.54663 16.4763C6.47333 16.5489 6.43603 16.6563 6.43603 16.7983C6.43603 16.9521 6.47333 17.0666 6.54793 17.1431C6.62254 17.2197 6.72004 17.2583 6.8411 17.2583C6.90065 17.2583 6.96086 17.2472 7.02041 17.2262C7.08061 17.2046 7.13231 17.1785 7.1755 17.1484V16.9848H6.85026Z" fill="#35393C"/>
<path id="Vector_42" d="M7.76379 17.4584V16.168H8.81148V16.3865H8.05042V16.6725H8.75781V16.8911H8.05042V17.2405H8.83896V17.4584H7.76379Z" fill="#35393C"/>
<path id="Vector_43" d="M9.43444 17.4584V16.3865H9.01562V16.168H10.1386V16.3865H9.72106V17.4584H9.43444Z" fill="#35393C"/>
<path id="Vector_44" d="M10.9625 16.9467L10.7655 16.469L10.5744 16.9467H10.9625ZM11.4866 17.4584H11.1778L11.0554 17.1646H10.488L10.3702 17.4584H10.0673L10.6169 16.168H10.9199L11.4866 17.4584Z" fill="#35393C"/>
<path id="Vector_45" d="M13.0545 16.9825L13.3313 17.0597C13.2887 17.2017 13.2181 17.3071 13.1192 17.3764C13.0204 17.4451 12.8954 17.4798 12.7436 17.4798C12.5558 17.4798 12.4007 17.4209 12.2797 17.3038C12.1586 17.1867 12.0984 17.0263 12.0984 16.8228C12.0984 16.6082 12.1592 16.4413 12.281 16.3222C12.4027 16.2031 12.5624 16.1436 12.7606 16.1436C12.934 16.1436 13.0747 16.1907 13.1827 16.2836C13.2475 16.3392 13.2953 16.4184 13.3273 16.5218L13.0446 16.5833C13.0276 16.5166 12.9929 16.4636 12.9399 16.4249C12.8863 16.3863 12.8221 16.3667 12.7462 16.3667C12.6409 16.3667 12.5558 16.4007 12.4904 16.4694C12.4249 16.5382 12.3922 16.6494 12.3922 16.8032C12.3922 16.9661 12.4243 17.082 12.4884 17.1513C12.5532 17.2207 12.637 17.2554 12.7397 17.2554C12.8156 17.2554 12.881 17.2338 12.936 17.1893C12.991 17.1461 13.0302 17.0774 13.0545 16.9825Z" fill="#35393C"/>
<path id="Vector_46" d="M13.8457 16.8127C13.8457 16.9592 13.883 17.0698 13.957 17.1458C14.0309 17.221 14.1252 17.259 14.239 17.259C14.3536 17.259 14.4471 17.2217 14.5204 17.1464C14.5937 17.0712 14.6304 16.9592 14.6304 16.8087C14.6304 16.6608 14.595 16.5503 14.523 16.4776C14.4517 16.4043 14.3575 16.3683 14.239 16.3683C14.1212 16.3683 14.0257 16.405 13.9537 16.4789C13.8824 16.5529 13.8457 16.6641 13.8457 16.8127ZM13.5513 16.8212C13.5513 16.6896 13.5729 16.579 13.6161 16.4894C13.6481 16.4233 13.692 16.3644 13.7476 16.3121C13.8032 16.2597 13.8641 16.2211 13.9302 16.1956C14.0185 16.1615 14.1199 16.1445 14.2358 16.1445C14.4445 16.1445 14.6114 16.2034 14.737 16.3219C14.862 16.4403 14.9248 16.6046 14.9248 16.8153C14.9248 17.024 14.8627 17.1876 14.7383 17.3054C14.614 17.4232 14.4478 17.4821 14.2397 17.4821C14.029 17.4821 13.8615 17.4232 13.7371 17.3061C13.6134 17.1889 13.5513 17.0273 13.5513 16.8212Z" fill="#35393C"/>
<path id="Vector_47" d="M15.1787 17.4584V16.168H15.608L15.8612 17.0481L16.1119 16.168H16.5425V17.4584H16.2774L16.2768 16.4428L15.9974 17.4584H15.7219L15.4444 16.4428L15.4437 17.4584H15.1787Z" fill="#35393C"/>
<path id="Vector_48" d="M16.8591 17.4584V16.168H17.2884L17.5423 17.0481L17.7929 16.168H18.2229V17.4584H17.9585L17.9572 16.4428L17.6784 17.4584H17.4029L17.1255 16.4428L17.1242 17.4584H16.8591Z" fill="#35393C"/>
<path id="Vector_49" d="M18.5442 17.4584V16.168H19.5919V16.3865H18.8308V16.6725H19.5382V16.8911H18.8308V17.2405H19.6194V17.4584H18.5442Z" fill="#35393C"/>
<path id="Vector_50" d="M20.1835 16.7144H20.3948C20.5316 16.7144 20.6173 16.7092 20.6514 16.6987C20.6854 16.6882 20.7122 16.6699 20.7312 16.6437C20.7508 16.6175 20.76 16.5855 20.76 16.5469C20.76 16.503 20.7469 16.4683 20.722 16.4415C20.6965 16.4147 20.6605 16.3977 20.6147 16.3911C20.5912 16.3878 20.5218 16.3865 20.406 16.3865H20.1828V16.7144H20.1835ZM19.8969 17.4584V16.168H20.4989C20.6501 16.168 20.76 16.1797 20.8287 16.2027C20.8974 16.2256 20.9524 16.2668 20.9936 16.3263C21.0348 16.3859 21.0558 16.4533 21.0558 16.5298C21.0558 16.6267 21.025 16.7065 20.9622 16.77C20.9 16.8328 20.8071 16.8728 20.6834 16.8891C20.7449 16.9218 20.796 16.9578 20.8359 16.9971C20.8758 17.0363 20.9301 17.1064 20.9982 17.2065L21.171 17.4584H20.8294L20.6245 17.1764C20.5512 17.0763 20.5009 17.0134 20.4734 16.9873C20.4465 16.9611 20.4177 16.9434 20.3876 16.9336C20.3569 16.9238 20.3091 16.9192 20.243 16.9192H20.1848V17.4584H19.8969Z" fill="#35393C"/>
<path id="Vector_51" d="M22.2638 16.9825L22.5406 17.0597C22.4981 17.2017 22.4274 17.3071 22.3286 17.3764C22.2298 17.4451 22.1048 17.4798 21.953 17.4798C21.7652 17.4798 21.6101 17.4209 21.489 17.3038C21.3679 17.1867 21.3077 17.0263 21.3077 16.8228C21.3077 16.6082 21.3686 16.4413 21.4903 16.3222C21.612 16.2031 21.7717 16.1436 21.97 16.1436C22.1434 16.1436 22.2841 16.1907 22.3921 16.2836C22.4569 16.3392 22.5046 16.4184 22.5367 16.5218L22.254 16.5833C22.237 16.5166 22.2023 16.4636 22.1493 16.4249C22.0956 16.3863 22.0315 16.3667 21.9556 16.3667C21.8502 16.3667 21.7652 16.4007 21.6997 16.4694C21.6343 16.5382 21.6016 16.6494 21.6016 16.8032C21.6016 16.9661 21.6336 17.082 21.6984 17.1513C21.7632 17.2207 21.8463 17.2554 21.9497 17.2554C22.0256 17.2554 22.091 17.2338 22.146 17.1893C22.201 17.1461 22.2402 17.0774 22.2638 16.9825Z" fill="#35393C"/>
<path id="Vector_52" d="M23.0968 16.168H22.8102V17.4584H23.0968V16.168Z" fill="#35393C"/>
<path id="Vector_53" d="M24.155 16.9467L23.958 16.469L23.767 16.9467H24.155ZM24.6785 17.4584H24.3697L24.2473 17.1646H23.6799L23.5621 17.4584H23.2592L23.8088 16.168H24.1118L24.6785 17.4584Z" fill="#35393C"/>
<path id="Vector_54" d="M24.8735 17.4585V16.1792H25.1602V17.2406H25.8695V17.4585H24.8735Z" fill="#35393C"/>
<path id="Vector_55" d="M26.9833 17.4584L26.4768 16.168H26.7863L27.1456 17.1234L27.4905 16.168H27.7948L27.2915 17.4584H26.9833Z" fill="#35393C"/>
<path id="Vector_56" d="M27.9734 17.4584V16.168H29.0211V16.3865H28.26V16.6725H28.9681V16.8911H28.26V17.2405H29.0492V17.4584H27.9734Z" fill="#35393C"/>
<path id="Vector_57" d="M29.3267 17.4584V16.168H29.6133V16.6764H30.1702V16.168H30.4568V17.4584H30.1702V16.8943H29.6133V17.4584H29.3267Z" fill="#35393C"/>
<path id="Vector_58" d="M31.0647 16.168H30.7781V17.4584H31.0647V16.168Z" fill="#35393C"/>
<path id="Vector_59" d="M32.2766 16.9825L32.5534 17.0597C32.5109 17.2017 32.4402 17.3071 32.3414 17.3764C32.2426 17.4451 32.1176 17.4798 31.9658 17.4798C31.778 17.4798 31.6229 17.4209 31.5018 17.3038C31.3808 17.1867 31.3206 17.0263 31.3206 16.8228C31.3206 16.6082 31.3814 16.4413 31.5031 16.3222C31.6249 16.2031 31.7845 16.1436 31.9828 16.1436C32.1562 16.1436 32.2969 16.1907 32.4049 16.2836C32.4697 16.3392 32.5174 16.4184 32.5502 16.5218L32.2675 16.5833C32.2504 16.5166 32.2158 16.4636 32.1628 16.4249C32.1091 16.3863 32.045 16.3667 31.9691 16.3667C31.8637 16.3667 31.7786 16.4007 31.7132 16.4694C31.6478 16.5382 31.615 16.6494 31.615 16.8032C31.615 16.9661 31.6471 17.082 31.7119 17.1513C31.7767 17.2207 31.8604 17.2554 31.9632 17.2554C32.0391 17.2554 32.1052 17.2338 32.1595 17.1893C32.2138 17.1461 32.2531 17.0774 32.2766 16.9825Z" fill="#35393C"/>
<path id="Vector_60" d="M32.8413 17.4585V16.1792H33.1279V17.2406H33.8373V17.4585H32.8413Z" fill="#35393C"/>
<path id="Vector_61" d="M34.075 17.4584V16.168H35.1226V16.3865H34.3616V16.6725H35.0696V16.8911H34.3616V17.2405H35.1501V17.4584H34.075Z" fill="#35393C"/>
<path id="Vector_62" d="M35.353 17.0404L35.6318 17.0149C35.6488 17.0999 35.6822 17.1621 35.7332 17.202C35.7843 17.2419 35.853 17.2616 35.94 17.2616C36.0316 17.2616 36.101 17.2439 36.1475 17.2086C36.1939 17.1732 36.2175 17.1314 36.2175 17.0842C36.2175 17.0535 36.2077 17.028 36.188 17.0064C36.1684 16.9848 36.1344 16.9664 36.0853 16.9507C36.0519 16.9396 35.976 16.9213 35.8576 16.8945C35.7051 16.8598 35.5978 16.8172 35.5363 16.7662C35.4499 16.6949 35.4067 16.6085 35.4067 16.5058C35.4067 16.4397 35.427 16.3781 35.4675 16.3206C35.5081 16.263 35.567 16.2198 35.6436 16.1897C35.7201 16.1596 35.8124 16.1445 35.921 16.1445C36.0977 16.1445 36.2312 16.1805 36.3209 16.2519C36.4105 16.3238 36.457 16.4194 36.4616 16.5391L36.1749 16.5483C36.1625 16.4815 36.137 16.4338 36.0971 16.405C36.0572 16.3755 35.9969 16.3611 35.9178 16.3611C35.8353 16.3611 35.7705 16.3768 35.7241 16.4083C35.694 16.4285 35.6789 16.4554 35.6789 16.4887C35.6789 16.5195 35.6933 16.5457 35.7214 16.5673C35.7574 16.5954 35.8445 16.6242 35.9832 16.6543C36.1219 16.6838 36.224 16.7152 36.2908 16.7472C36.3575 16.7793 36.4092 16.8231 36.4472 16.8788C36.4845 16.9344 36.5034 17.0031 36.5034 17.0842C36.5034 17.1582 36.4812 17.2276 36.436 17.2923C36.3909 17.3571 36.3274 17.4049 36.245 17.4363C36.1625 17.4677 36.0598 17.4834 35.9367 17.4834C35.7581 17.4834 35.6207 17.4461 35.5245 17.3702C35.4283 17.2943 35.3714 17.1844 35.353 17.0404Z" fill="#35393C"/>
<path id="Vector_63" d="M36.5035 18.061H3.49658V18.2037H36.5035V18.061Z" fill="#EE3124"/>
</g>
</svg>
