<svg width="48" height="48" viewBox="0 0 48 48" fill="none" xmlns="http://www.w3.org/2000/svg">
<rect width="48" height="48" rx="4" fill="#F7F8F9"/>
<path d="M42.2823 25.1897H5.7179V26.4705H42.2823V25.1897Z" fill="#00BC51"/>
<path d="M6.33917 29.8616H6.9708C6.97478 30.2816 7.13547 30.49 7.49663 30.49C7.81483 30.49 7.97949 30.3134 7.97949 29.9793C7.97949 29.2371 7.09649 29.2331 7.09649 28.1497H7.73607C7.73607 29.0406 8.64294 29.0526 8.64294 29.9793C8.64294 30.6308 8.18394 30.9999 7.5006 30.9999C6.74727 30.9999 6.34633 30.6038 6.33838 29.8616H6.33917Z" fill="#34383E"/>
<path d="M8.93005 30.0183V29.9872C8.93005 29.4765 9.27132 29.175 9.88386 29.0565C10.2609 28.9817 10.4495 28.907 10.4495 28.7304C10.4495 28.6047 10.3556 28.518 10.1631 28.518C9.97057 28.518 9.82181 28.6086 9.8059 28.8242H9.23712C9.26019 28.3414 9.64919 28.1099 10.1639 28.1099C10.7215 28.1099 11.0357 28.3334 11.0357 28.6866C11.0357 28.895 10.926 29.0517 10.6786 29.1416C11.1185 29.2713 11.373 29.5815 11.373 29.9737V30.0055C11.373 30.6101 10.8512 30.9983 10.148 30.9983C9.44474 30.9983 8.93085 30.6093 8.93085 30.0167L8.93005 30.0183ZM10.708 30.0071V29.9912C10.708 29.646 10.4805 29.4336 10.1504 29.4336C9.82022 29.4336 9.59271 29.646 9.59271 29.9872V30.0071C9.59271 30.3524 9.81624 30.5648 10.1504 30.5648C10.4845 30.5648 10.708 30.3492 10.708 30.0071Z" fill="#34383E"/>
<path d="M12.7024 29.0804C12.9339 29.0804 13.1654 29.1742 13.299 29.4574C13.4446 29.1981 13.7031 29.0804 14.0094 29.0804C14.579 29.0804 14.8813 29.4296 14.8813 30.062V30.093C14.8813 30.5011 14.7556 30.8154 14.6689 30.957H14.0213C14.1271 30.7684 14.2369 30.4781 14.2369 30.1599V30.0811C14.2369 29.751 14.1351 29.5632 13.9147 29.5632C13.6944 29.5632 13.5886 29.7558 13.5886 30.0771V30.3993H12.9721V30.0732C12.9721 29.755 12.8702 29.5624 12.6539 29.5624C12.4375 29.5624 12.3237 29.7629 12.3237 30.0843V30.175C12.3237 30.4892 12.4335 30.7676 12.5433 30.9562H11.8918C11.8059 30.8034 11.6802 30.4184 11.6802 29.9157V29.8019C11.6802 28.7852 12.0652 28.2674 13.1717 28.2236L13.4231 28.2157C13.8861 28.1998 14.1693 28.1608 14.3379 28.1099V28.5848C14.1613 28.6516 13.8861 28.6755 13.482 28.6906L13.1876 28.6946C12.4415 28.7296 12.2649 28.9539 12.198 29.3071C12.2879 29.1695 12.4884 29.0796 12.7008 29.0796L12.7024 29.0804Z" fill="#34383E"/>
<path d="M15.3013 29.6769V29.5274C15.3013 28.5927 15.7332 28.1106 16.4826 28.1106C17.232 28.1106 17.6567 28.5895 17.6567 29.5274V29.6801C17.6567 30.1869 17.5231 30.6459 17.3704 30.9561H16.7308C16.9114 30.583 17.0172 30.1511 17.0172 29.6451V29.4995C17.0172 28.9499 16.8676 28.6126 16.4834 28.6126C16.0992 28.6126 15.9416 28.9228 15.9416 29.5035V29.6451C15.9416 30.1439 16.0435 30.6029 16.228 30.9561H15.5845C15.4039 30.6268 15.3021 30.1359 15.3021 29.6761L15.3013 29.6769Z" fill="#34383E"/>
<path d="M11.8942 17C11.2912 17 10.8019 17.1885 10.4877 17.6277C10.0359 17.1758 9.39549 17 8.66681 17C7.33594 17 6.24292 17.6157 6.24292 19.4239V20.8558C6.24292 22.664 7.33514 23.2797 8.66681 23.2797C9.99848 23.2797 11.0907 22.664 11.0907 20.8558V19.361C11.0907 18.6204 11.3548 18.4446 11.7438 18.4446C12.1328 18.4446 12.3969 18.6204 12.3969 19.361V23.1787H13.8407V19.4239C13.8407 17.6157 12.9617 17 11.8942 17ZM9.64607 20.4787C9.64607 21.4834 9.42015 21.8351 8.66681 21.8351C7.91347 21.8351 7.68755 21.4834 7.68755 20.4787V19.801C7.68755 18.7962 7.91347 18.4446 8.66681 18.4446C9.42015 18.4446 9.64607 18.7962 9.64607 19.801V20.4787Z" fill="#34383E"/>
<path d="M17.0226 17C15.6918 17 14.5988 17.6157 14.5988 19.4239H16.0426C16.0426 18.7079 16.3815 18.4446 17.0218 18.4446C17.7752 18.4446 18.0011 18.7962 18.0011 19.801V20.4787C18.0011 21.4834 17.7752 21.8351 17.0218 21.8351C16.2685 21.8351 16.0426 21.4834 16.0426 20.4787H14.5988V20.8558C14.5988 22.664 15.691 23.2797 17.0226 23.2797C18.3543 23.2797 19.4465 22.664 19.4465 20.8558V19.4239C19.4465 17.6157 18.3662 17 17.0226 17Z" fill="#34383E"/>
<path d="M27.8471 17C26.5162 17 25.4232 17.6157 25.4232 19.4239H26.867C26.867 18.7079 27.2059 18.4446 27.8463 18.4446C28.5996 18.4446 28.8256 18.7962 28.8256 19.801V20.4787C28.8256 21.4834 28.5996 21.8351 27.8463 21.8351C27.093 21.8351 26.867 21.4834 26.867 20.4787H25.4232V20.8558C25.4232 22.664 26.5154 23.2797 27.8471 23.2797C29.1788 23.2797 30.271 22.664 30.271 20.8558V19.4239C30.271 17.6157 29.1907 17 27.8471 17Z" fill="#34383E"/>
<path d="M34.3941 17.8791V17.113H32.9749V20.4788H34.3941V19.0851C34.7712 19.2235 34.896 19.6125 34.896 20.3531V20.4788C34.896 21.4835 34.6829 21.8351 33.9287 21.8351H33.4514C32.6981 21.8351 32.4722 21.4835 32.4722 20.4788V18.3938H31.0283V20.8678C31.0283 22.676 32.1205 23.279 33.4522 23.279H33.9295C35.2604 23.279 36.3407 22.6632 36.3407 20.8678V20.2648C36.3407 18.6826 35.499 18.0167 34.3941 17.8791Z" fill="#34383E"/>
<path d="M40.8782 18.9714C40.6141 18.7327 40.5139 18.6452 40.4137 18.5569C39.7104 17.9539 39.4217 17.8283 39.4217 17.3764V17.1123H37.9778V17.4894C37.9778 18.4312 38.304 18.5943 38.9826 19.1719C38.991 19.1803 39.2297 19.3729 39.6985 19.7494C40.1504 20.1137 40.3142 20.2394 40.3142 20.8671C40.3015 21.4828 40.0883 21.8344 39.335 21.8344C38.5816 21.8344 38.3557 21.4828 38.3557 20.4781H36.9119V20.8551C36.9119 22.6633 38.0041 23.279 39.3358 23.279C40.6674 23.279 41.7596 22.6633 41.7596 20.8551V20.6165C41.7596 19.6873 41.3078 19.3731 40.8806 18.9714H40.8782Z" fill="#34383E"/>
<path d="M23.9094 19.3563C24.238 19.1049 24.3907 18.739 24.3907 18.385C24.3907 17.5076 23.6763 17.0056 22.5229 17.0056C21.3694 17.0056 20.4665 17.3692 20.4665 18.7104H21.9079C21.9079 18.3842 22.0209 18.1965 22.4218 18.1965C22.8228 18.1965 22.9485 18.3842 22.9485 18.6356C22.9485 18.9363 22.7106 19.0994 22.3471 19.0994C21.0345 19.1161 20.0146 19.5003 20.0146 21.1931C20.0146 22.886 21.0679 23.2742 22.4346 23.2742C23.8012 23.2742 24.8545 22.8231 24.8545 21.1931C24.8545 20.1773 24.487 19.6332 23.9094 19.3563ZM22.4346 21.8319C21.8332 21.8319 21.4569 21.6561 21.4569 21.1295C21.4569 20.54 21.8332 20.4151 22.4346 20.4151C23.036 20.4151 23.4122 20.5408 23.4122 21.1295C23.4122 21.6561 23.036 21.8319 22.4346 21.8319Z" fill="#34383E"/>
</svg>
