<svg width="40" height="28" viewBox="0 0 40 28" fill="none" xmlns="http://www.w3.org/2000/svg">
<g id="Group 7">
<g id="Group 5">
<path id="Path" d="M8.18377 23.3643H0.920288V24.1792H3.48839V26.2769C3.48839 26.8382 4.01636 27.2932 4.66523 27.2932H5.6155V24.1793L8.18377 24.1792V23.3643Z" fill="#0055B8"/>
<path id="Path_2" d="M14.904 24.1768V23.3643H9.00126C9.00126 23.3643 9.0011 25.8633 9.0011 26.0777C9.0011 26.7358 9.64817 27.2932 10.4323 27.2932H14.904V26.4524H11.469C11.2569 26.4524 11.1282 26.2856 11.1282 26.1351V25.7074H14.6822V24.922H11.1282V24.1768H14.904Z" fill="#0055B8"/>
<path id="Path_3" d="M29.571 27.2931C30.4856 27.2931 30.978 26.7332 30.978 26.1056C30.978 25.3926 30.4567 24.9837 29.5799 24.9184C28.7033 24.8524 26.79 24.7097 26.79 24.7097C26.541 24.6866 26.4486 24.5715 26.4486 24.4262C26.4486 24.2806 26.5773 24.164 26.79 24.163H30.6591V23.3643H25.9793C25.0416 23.3643 24.509 23.8543 24.509 24.4675C24.509 25.1207 24.9968 25.6008 25.9066 25.6554C25.9066 25.6554 28.4218 25.8438 28.6727 25.867C28.9233 25.8901 29.0576 25.9981 29.0576 26.1767C29.0576 26.3416 28.9018 26.4529 28.6559 26.4529H24.682V27.2931H29.571Z" fill="#0055B8"/>
<path id="Shape" d="M34.1942 25.7025L34.9619 24.3786C35.0376 24.2427 35.1809 24.2427 35.2607 24.3786L36.018 25.7025H34.1942ZM36.6892 23.3643H34.6271C33.6649 23.3643 33.1907 23.9335 32.9464 24.3296C32.7022 24.7262 31.1327 27.2932 31.1327 27.2932H33.2702L33.7441 26.4789H36.4681L36.9424 27.2932H39.0796L36.6892 23.3643Z" fill="#0055B8"/>
<path id="Path_4" d="M21.9254 23.3653C21.9009 23.3653 21.8772 23.3678 21.8531 23.3689C21.2411 23.3946 20.6798 23.7201 20.4411 24.2373L19.8082 25.5243L19.1788 24.2373C18.9401 23.7201 18.3788 23.3946 17.7669 23.3689C17.7427 23.3678 17.719 23.3653 17.6949 23.3653C17.6705 23.3653 15.834 23.3643 15.834 23.3643V27.2933H17.7554V24.3736H17.806C17.9283 24.3736 17.9855 24.4137 18.0401 24.5239L19.3337 27.2933H20.2827L21.5762 24.5239C21.6304 24.4137 21.6879 24.3736 21.8096 24.3736H21.8607V27.2933H23.7824V23.3643C23.7824 23.3643 21.9501 23.3653 21.9254 23.3653Z" fill="#0055B8"/>
</g>
<g id="Group 6">
<path id="Shape_2" d="M20.1561 19.6547C14.9412 19.6508 10.7172 15.4927 10.7212 10.3672C10.725 5.24191 14.956 1.09008 20.1708 1.09413C25.3859 1.09787 29.6106 5.25603 29.6064 10.3815C29.6023 15.5068 25.3715 19.6586 20.1561 19.6547ZM27.1189 3.5385C25.261 1.71255 22.791 0.707031 20.1637 0.707031C17.5363 0.707031 15.0661 1.71255 13.2084 3.5385C11.3504 5.36444 10.3273 7.79215 10.3273 10.3744C10.3273 12.9566 11.3504 15.3843 13.2084 17.2102C15.0662 19.0363 17.5363 20.0418 20.1637 20.0418C22.791 20.0418 25.261 19.0363 27.1189 17.2102C28.9768 15.3843 30 12.9566 30 10.3744C30 7.79215 28.9768 5.36444 27.1189 3.5385Z" fill="#0055B8"/>
<path id="Path_5" d="M28.3866 8.78564C28.0256 9.72056 27.4022 9.94055 26.3152 9.94055C25.7753 9.94055 25.3969 9.92408 24.9292 9.92408C23.1829 9.92408 22.0081 11.2519 22.0081 13.1318V18.4045C25.7386 17.5852 28.5271 14.3087 28.5303 10.3949C28.5309 9.84778 28.4833 9.30674 28.3866 8.78564Z" fill="#0055B8"/>
<path id="Shape_3" d="M20.0691 9.94955C19.0044 9.94955 18.1414 9.10297 18.1414 8.05863C18.1414 7.0143 19.0044 6.16772 20.0691 6.16772C21.1337 6.16772 21.9967 7.0143 21.9967 8.05863C21.9967 9.10297 21.1337 9.94955 20.0691 9.94955ZM15.3286 9.94955C14.2639 9.94955 13.4009 9.10297 13.4009 8.05863C13.4009 7.0143 14.2639 6.16772 15.3286 6.16772C16.3931 6.16772 17.2562 7.0143 17.2562 8.05863C17.2562 9.10297 16.3931 9.94955 15.3286 9.94955ZM22.2816 10.0144C22.7635 9.46322 22.9077 8.961 23.0239 8.11354C23.0962 7.58896 23.2091 7.20174 23.5481 6.84383C23.8512 6.52341 24.2608 6.35712 24.7466 6.3235C24.8427 6.31685 24.9503 6.31223 25.0656 6.30798H27.4263C25.9868 3.84291 23.2837 2.18154 20.1841 2.1792C15.5711 2.17566 11.8287 5.84806 11.8252 10.3818C11.8221 14.2636 14.5683 17.5201 18.2518 18.378V13.4009C18.2452 12.4838 18.3954 11.9464 18.7803 11.5826C19.3213 11.0711 20.0263 11.027 20.4832 10.9376C20.8279 10.8702 21.0622 10.8291 21.4811 10.6226C21.6996 10.5148 22.0341 10.2978 22.2816 10.0144Z" fill="#0055B8"/>
</g>
</g>
</svg>
