<?xml version="1.0" encoding="utf-8"?>
<!-- Generator: Adobe Illustrator 26.0.1, SVG Export Plug-In . SVG Version: 6.00 Build 0)  -->
<svg version="1.1" id="Layer_1" xmlns="http://www.w3.org/2000/svg" xmlns:xlink="http://www.w3.org/1999/xlink" x="0px" y="0px"
	 viewBox="0 0 434.85 269.29" style="enable-background:new 0 0 434.85 269.29;" xml:space="preserve">
<style type="text/css">
	.st0{fill:#24255B;}
	.st1{fill:#FAA21E;}
</style>
<path class="st0" d="M87.59,167.13c-0.06-1.4-0.68-1.45-1.91-1.46h-4.24c-0.71,0-1.69-0.11-2.13,0.79
	c-0.25,0.54-0.28,4.28,0.08,4.85c0.6,0.96,1.53,0.83,2.44,0.83h3.31c1.1,0,1.98,0.08,2.42-0.68c0.14-0.25,0.16-0.55,0.19-1.12h3.86
	c0,0.54,0.13,2.94-0.79,3.87c-0.96,1.02-2.42,1.02-3.5,1.02h-6.33c-1.56,0-3.43,0.02-4.6-1.13c-1.18-1.2-1.17-2.57-1.17-4.52v-1.45
	c0-1.61-0.06-3.21,1.12-4.41c1.15-1.13,3.4-1.17,4.74-1.17h6.19c1.59,0,2.9,0.14,3.73,1.59c0.3,0.54,0.41,2.11,0.39,2.98H87.59z"/>
<path class="st0" d="M105.73,173.58c-0.33,0.88-1.01,1.4-1.8,1.64c-0.39,0.11-0.91,0.2-1.84,0.2h-4.47c-0.93,0-1.45-0.09-1.84-0.2
	c-0.79-0.24-1.46-0.76-1.8-1.64c-0.16-0.39-0.28-1.17-0.28-1.98v-1.61c0-0.87,0.13-1.57,0.28-1.98c0.33-0.88,1.01-1.39,1.8-1.62
	c0.39-0.13,0.91-0.2,1.84-0.2h4.47c0.93,0,1.45,0.08,1.84,0.2c0.79,0.24,1.46,0.74,1.8,1.62c0.16,0.41,0.27,1.17,0.27,1.98v1.61
	C106,172.44,105.89,173.19,105.73,173.58 M97.72,168.83c-0.49,0.25-0.63,0.71-0.68,1.2c-0.08,0.71-0.14,2.02,0.5,2.55
	c0.17,0.14,0.63,0.32,1.21,0.32h2.19c0.61-0.03,1.05-0.17,1.21-0.32c0.66-0.54,0.58-1.84,0.52-2.55c-0.05-0.49-0.19-0.94-0.68-1.2
	c-0.19-0.09-0.49-0.19-1.21-0.19h-1.86C98.2,168.64,97.91,168.73,97.72,168.83"/>
<path class="st0" d="M116.53,175.24v-4.58c0-0.42-0.02-1.21-0.6-1.54c-0.63-0.39-3.04-0.47-3.68-0.05
	c-1.01,0.63-0.96,1.28-0.96,3.02v3.15h-3.28v-8.88h3.15v1.31c0.69-1.04,1.46-1.31,2.65-1.43c0.44-0.05,3.75-0.19,4.96,0.9
	c1.2,1.07,1.06,2.61,1.06,3.83v4.28H116.53z"/>
<path class="st0" d="M129.89,168.88c-0.09-0.24-0.3-0.63-0.93-0.65h-2.49c-0.28,0-0.57,0.02-0.8,0.06c-0.17,0.03-0.39,0.08-0.5,0.24
	c-0.13,0.16-0.14,0.35-0.08,0.54c0.09,0.24,0.38,0.28,0.63,0.3c0.32,0.03,0.36,0.03,0.66,0.03h3.18c1.21,0,3.01-0.09,3.87,1.39
	c0.38,0.66,0.33,2.76-0.02,3.35c-0.85,1.4-2.69,1.29-3.72,1.29h-4.19c-0.63,0-2.76-0.13-3.5-1.21c-0.33-0.47-0.38-0.88-0.38-1.68
	h3.45c0,0.17,0,0.36,0.22,0.54c0.39,0.36,0.79,0.32,1.46,0.32h2.03c0.49,0,1.21-0.05,1.42-0.44c0.09-0.14,0.09-0.61,0-0.76
	c-0.28-0.44-0.79-0.44-1.91-0.44h-2.46c-1.51,0-3.07,0.14-3.84-1.31c-0.39-0.72-0.44-2.38-0.05-3.05c0.77-1.29,2.66-1.2,3.75-1.2
	h4.17c1.2,0,2.14,0.2,2.82,0.93c0.38,0.39,0.47,1.04,0.52,1.76H129.89z"/>
<path class="st0" d="M139.56,164.29v2.06h5.18v2.42h-5.18v3.04c0,0.5-0.02,0.9,0.43,1.13c0.28,0.16,1.46,0.16,1.8-0.02
	c0.52-0.31,0.47-0.82,0.47-1.54h2.87c0,1.17,0.16,2.63-1.39,3.5c-1.23,0.69-4.98,0.72-6.22,0c-1.37-0.82-1.23-2.63-1.23-3.83v-2.28
	h-1.68v-2.42h1.68v-2.06H139.56z"/>
<path class="st0" d="M154.12,170.42c0-0.54,0-1.2-0.71-1.51c-0.5-0.24-1.67-0.27-2.2,0.14c-0.76,0.54-0.66,1.76-0.66,2.74v3.45
	h-3.28v-8.88h3.17v1.5c0.55-0.98,1.21-1.51,2.39-1.62c0.87-0.09,2.76-0.14,3.64,1.02c0.57,0.71,0.49,2.19,0.49,3.16H154.12z"/>
<path class="st0" d="M161.62,166.36v3.62c0,1.42-0.06,2.2,0.68,2.65c0.54,0.33,3.12,0.27,3.73-0.09c0.83-0.46,0.71-1.34,0.71-2.69
	v-3.48h3.29v8.88h-3.17v-1.5c-0.39,0.82-0.76,1.29-2.08,1.51c-1.28,0.27-4.14,0.33-5.43-0.74c-1.17-0.98-1.02-2.25-1.02-3.75v-4.41
	H161.62z"/>
<path class="st0" d="M180.54,171.54h3.29c0,0.88-0.03,2-0.72,2.74c-0.93,0.98-2,1.15-3.73,1.15h-2.06c-1.64,0-3.68,0.14-4.76-1.73
	c-0.68-1.21-0.82-4.61-0.03-5.95c0.99-1.65,2.38-1.56,4.6-1.56h2.38c1.37,0,3.09,0.08,3.95,1.46c0.43,0.69,0.38,1.43,0.38,2.2h-3.26
	c-0.03-0.36-0.05-0.85-0.83-1.07c-0.47-0.11-3.23-0.05-3.23-0.05c-0.83,0-1.17,0.58-1.17,1.24c0,0-0.02,0.46-0.02,0.74
	c0,0.3,0.02,0.79,0.02,0.79c0,0.76,0.33,1.24,1.17,1.24c0.36,0.02,3.18,0.09,3.57-0.17C180.4,172.37,180.53,172.17,180.54,171.54"/>
<path class="st0" d="M189.63,164.29v2.06h5.18v2.42h-5.18v3.04c0,0.5-0.02,0.9,0.43,1.13c0.28,0.16,1.46,0.16,1.8-0.02
	c0.52-0.31,0.47-0.82,0.47-1.54h2.87c0,1.17,0.16,2.63-1.39,3.5c-1.23,0.69-4.98,0.72-6.22,0c-1.37-0.82-1.23-2.63-1.23-3.83v-2.28
	h-1.68v-2.42h1.68v-2.06H189.63z"/>
<path class="st0" d="M200.56,165.19h-3.29v-2.63h3.29V165.19z M200.56,175.24h-3.29v-8.88h3.29V175.24z"/>
<path class="st0" d="M214.6,173.58c-0.33,0.88-1.01,1.4-1.8,1.64c-0.39,0.11-0.91,0.2-1.84,0.2h-4.47c-0.93,0-1.45-0.09-1.84-0.2
	c-0.79-0.24-1.46-0.76-1.79-1.64c-0.16-0.39-0.28-1.17-0.28-1.98v-1.61c0-0.87,0.13-1.57,0.28-1.98c0.33-0.88,1.01-1.39,1.79-1.62
	c0.39-0.13,0.91-0.2,1.84-0.2h4.47c0.93,0,1.45,0.08,1.84,0.2c0.79,0.24,1.46,0.74,1.8,1.62c0.16,0.41,0.27,1.17,0.27,1.98v1.61
	C214.87,172.44,214.76,173.19,214.6,173.58 M206.59,168.83c-0.49,0.25-0.63,0.71-0.68,1.2c-0.08,0.71-0.14,2.02,0.5,2.55
	c0.17,0.14,0.63,0.32,1.21,0.32h2.19c0.61-0.03,1.06-0.17,1.21-0.32c0.66-0.54,0.58-1.84,0.52-2.55c-0.05-0.49-0.19-0.94-0.68-1.2
	c-0.19-0.09-0.49-0.19-1.21-0.19h-1.86C207.08,168.64,206.78,168.73,206.59,168.83"/>
<path class="st0" d="M225.41,175.24v-4.58c0-0.42-0.02-1.21-0.6-1.54c-0.63-0.39-3.04-0.47-3.68-0.05
	c-1.01,0.63-0.96,1.28-0.96,3.02v3.15h-3.28v-8.88h3.15v1.31c0.69-1.04,1.46-1.31,2.65-1.43c0.44-0.05,3.75-0.19,4.96,0.9
	c1.2,1.07,1.06,2.61,1.06,3.83v4.28H225.41z"/>
<polygon class="st0" points="247.89,162.56 247.89,165.66 238.02,165.66 238.02,167.66 247.39,167.66 247.39,170.2 238.02,170.2 
	238.02,172.14 248.13,172.14 248.13,175.24 234.18,175.24 234.18,162.56 "/>
<path class="st0" d="M259.03,167.88v-1.53h3.29v11.95h-3.29v-4.63c-0.3,0.91-1.12,1.5-2.14,1.62c-0.58,0.09-2.87,0.13-2.87,0.13
	c-0.93,0.02-1.45-0.09-1.84-0.2c-0.79-0.24-1.46-0.76-1.79-1.64c-0.16-0.39-0.28-1.17-0.28-1.98v-1.61c0-0.87,0.13-1.57,0.28-1.98
	c0.33-0.88,1.01-1.39,1.79-1.62c0.39-0.13,0.91-0.2,1.84-0.2c1.18-0.03,2.28,0.05,2.87,0.13
	C257.91,166.45,258.73,166.97,259.03,167.88 M257.91,168.81c0,0-1.01-0.05-1.65-0.05c-0.69,0-1.8,0.05-1.8,0.05
	c-0.83,0-1.17,0.68-1.17,1.23c0,0-0.02,0.49-0.02,0.82c0,0.33,0.02,0.82,0.02,0.82c0,0.55,0.33,1.23,1.17,1.23
	c0,0,1.13,0.05,1.86,0.05c0.63,0,1.59-0.05,1.59-0.05c0.83,0,1.17-0.68,1.17-1.23c0,0,0.02-0.47,0.02-0.76
	c0-0.35-0.02-0.88-0.02-0.88C259.07,169.49,258.74,168.81,257.91,168.81"/>
<path class="st0" d="M267.62,166.36v3.62c0,1.42-0.06,2.2,0.68,2.65c0.54,0.33,3.12,0.27,3.73-0.09c0.83-0.46,0.71-1.34,0.71-2.69
	v-3.48h3.29v8.88h-3.16v-1.5c-0.39,0.82-0.76,1.29-2.08,1.51c-1.28,0.27-4.14,0.33-5.43-0.74c-1.17-0.98-1.02-2.25-1.02-3.75v-4.41
	H267.62z"/>
<path class="st0" d="M281.34,165.19h-3.29v-2.63h3.29V165.19z M281.34,175.24h-3.29v-8.88h3.29V175.24z"/>
<path class="st0" d="M293.51,166.39c0.8,0.24,1.48,0.74,1.8,1.62c0.17,0.41,0.28,1.12,0.28,1.98v1.61c0,0.82-0.11,1.59-0.28,1.98
	c-0.31,0.88-0.99,1.4-1.8,1.64c-0.39,0.11-0.9,0.22-1.84,0.2c0,0-2.28-0.03-2.85-0.13c-1.04-0.13-1.84-0.71-2.16-1.62v4.63h-3.28
	v-11.95h3.28v1.53c0.31-0.91,1.12-1.43,2.16-1.57c0.57-0.08,1.67-0.16,2.85-0.13C292.61,166.18,293.12,166.26,293.51,166.39
	 M286.61,171.68c0,0.55,0.33,1.23,1.17,1.23c0,0,0.96,0.05,1.59,0.05c0.72,0,1.86-0.05,1.86-0.05c0.85,0,1.17-0.68,1.17-1.23
	c0,0,0.03-0.49,0.03-0.82c0-0.33-0.03-0.82-0.03-0.82c0-0.55-0.31-1.23-1.17-1.23c0,0-1.09-0.05-1.79-0.05
	c-0.65,0-1.65,0.05-1.65,0.05c-0.83,0-1.17,0.68-1.17,1.23c0,0-0.02,0.54-0.02,0.88C286.6,171.21,286.61,171.68,286.61,171.68"/>
<path class="st0" d="M309.98,166.36c1.09-0.31,4.05-0.27,5.16,0.57c1.45,1.09,1.35,2.79,1.35,4.42v3.89h-3.29v-3.4
	c0-1.37,0.08-2.42-0.65-2.79c-0.54-0.28-2.72-0.28-3.24,0.03c-0.71,0.47-0.61,1.59-0.61,2.2v3.95h-3.29v-3.61
	c0-1.29,0.09-2.24-0.63-2.57c-0.38-0.16-2.82-0.25-3.24,0c-0.76,0.47-0.69,1.42-0.69,2.82v3.35h-3.29v-8.88h3.13v1.59
	c0.39-0.83,1.02-1.5,2.16-1.69c0.72-0.08,3.5-0.31,4.71,1.01c0.33,0.33,0.49,0.66,0.68,1.01
	C308.49,167.41,308.86,166.69,309.98,166.36"/>
<path class="st0" d="M321.76,171.4c0,0.68,0.03,1.51,0.58,1.81c0.49,0.27,3.46,0.24,3.95-0.02c0.33-0.13,0.47-0.33,0.47-0.79h3.12
	c-0.16,2.85-2.24,3.02-4.33,3.02h-1.79c-2.28,0-3.75,0.19-4.82-1.65c-0.55-0.98-0.63-5.05-0.02-6.08c0.94-1.61,2.93-1.51,3.57-1.51
	h3.59c0.66,0,2.08,0.11,2.96,1.04c0.82,0.87,0.82,2.44,0.82,3.61v0.57H321.76z M322.3,168.44c-0.63,0.35-0.54,0.69-0.54,1.07h4.87
	c0-0.44-0.05-0.91-0.6-1.07C325.63,168.33,322.59,168.28,322.3,168.44"/>
<path class="st0" d="M340.47,175.24v-4.58c0-0.42-0.02-1.21-0.6-1.54c-0.63-0.39-3.04-0.47-3.68-0.05
	c-1.01,0.63-0.96,1.28-0.96,3.02v3.15h-3.28v-8.88h3.15v1.31c0.69-1.04,1.46-1.31,2.65-1.43c0.44-0.05,3.75-0.19,4.96,0.9
	c1.2,1.07,1.05,2.61,1.05,3.83v4.28H340.47z"/>
<path class="st0" d="M349.51,164.29v2.06h5.18v2.42h-5.18v3.04c0,0.5-0.02,0.9,0.42,1.13c0.28,0.16,1.46,0.16,1.8-0.02
	c0.52-0.31,0.47-0.82,0.47-1.54h2.87c0,1.17,0.16,2.63-1.39,3.5c-1.23,0.69-4.98,0.72-6.22,0c-1.37-0.82-1.23-2.63-1.23-3.83v-2.28
	h-1.68v-2.42h1.68v-2.06H349.51z"/>
<polygon class="st0" points="56.93,122.31 40.9,122.31 40.9,150.48 29.59,150.48 29.59,122.31 13.88,122.31 13.88,113.18 
	56.93,113.18 "/>
<polygon class="st0" points="101.83,113.18 101.83,122.31 72.78,122.31 72.78,128.19 100.35,128.19 100.35,135.65 72.78,135.65 
	72.78,141.35 102.53,141.35 102.53,150.48 61.47,150.48 61.47,113.18 "/>
<path class="st0" d="M144.74,126.01c-0.37-4.03-2.13-3.71-5.7-3.71h-9.78c-4.54,0-7.55-0.32-9.08,2.55
	c-0.88,1.62-0.93,12.88,0.14,14.46c1.58,2.32,4.45,2.04,6.26,2.04h12.47c1.25,0,4.17,0.28,5.28-1.62c0.46-0.83,0.32-1.71,0.32-3.01
	H130.7v-7.55h25.35v8.02c0,2.13,0.32,7.69-2.46,10.57c-2.5,2.55-9.55,2.69-11.12,2.73h-19.6c-2.73,0-8.16,0.42-11.54-3.1
	c-3.15-3.29-3.15-8.06-3.15-11.91v-7.69c0-3.2-0.28-8.06,2.97-11.31c3.29-3.2,9.73-3.2,12.98-3.29h18.63
	c2.73,0,9.04,0.23,11.72,4.54c1.3,2.18,1.3,5.14,1.3,8.29H144.74z"/>
<polygon class="st0" points="202.39,113.18 202.39,122.31 173.33,122.31 173.33,128.19 200.9,128.19 200.9,135.65 173.33,135.65 
	173.33,141.35 203.08,141.35 203.08,150.48 162.02,150.48 162.02,113.18 "/>
<polygon class="st0" points="250.35,122.31 234.31,122.31 234.31,150.48 223.01,150.48 223.01,122.31 207.3,122.31 207.3,113.18 
	250.35,113.18 "/>
<path class="st0" d="M275.69,113.18l20.2,37.3h-12.37l-3.71-6.72h-22.89l-3.38,6.72h-12.51l19.88-37.3H275.69z M275.56,135.93
	l-7.28-13.81l-7.04,13.81H275.56z"/>
<g>
	<path class="st1" d="M301.28,108.21v47.09h115.24v-47.09H301.28z M354.08,122.25H319.6c-1.17,0-1.8,0.63-1.8,1.8v13.05
		c0,2.34,1.8,4.14,4.14,4.14h32.14v9.18h-36.91c-6.39,0-10.98-4.59-10.98-10.98v-14.4c0-1.53,1.26-2.79,2.79-2.79H316
		c1.17,0,1.8-0.63,1.8-1.8v-4.59c0-1.53,1.26-2.79,2.79-2.79h33.49V122.25z M411.33,122.25h-34.84c-0.9,0-1.71,0.81-1.71,1.71v9.9
		h0.81l6.75-6.66h28.99v9.18h-34.84c-0.9,0-1.71,0.81-1.71,1.71v9.99h0.9l6.66-6.75h28.99v9.27h-45.19c-1.53,0-2.79-1.26-2.79-2.79
		v-31.96c0-1.53,1.26-2.79,2.79-2.79h5.85c1.53,0,2.79,1.26,2.79,2.79v3.87h0.81l6.75-6.66h28.99V122.25z"/>
</g>
<g>
	<path class="st0" d="M317.8,115.86v4.59c0,1.17-0.63,1.8-1.8,1.8h-7.02c-1.53,0-2.79,1.26-2.79,2.79v14.4
		c0,6.39,4.59,10.98,10.98,10.98h36.91v-9.18h-32.14c-2.34,0-4.14-1.8-4.14-4.14v-13.05c0-1.17,0.63-1.8,1.8-1.8h34.48v-9.18h-33.49
		C319.06,113.07,317.8,114.33,317.8,115.86z"/>
	<path class="st0" d="M375.59,119.73h-0.81v-3.87c0-1.53-1.26-2.79-2.79-2.79h-5.85c-1.53,0-2.79,1.26-2.79,2.79v31.96
		c0,1.53,1.26,2.79,2.79,2.79h45.19v-9.27h-28.99l-6.66,6.75h-0.9v-9.99c0-0.9,0.81-1.71,1.71-1.71h34.84v-9.18h-28.99l-6.75,6.66
		h-0.81v-9.9c0-0.9,0.81-1.71,1.71-1.71h34.84v-9.18h-28.99L375.59,119.73z"/>
</g>
</svg>
