<svg width="56" height="36" viewBox="0 0 56 36" fill="none" xmlns="http://www.w3.org/2000/svg">
<path id="Vector" d="M28 0C12.537 0 0 8.05873 0 17.9954C0 27.9389 12.537 36 28 36C43.463 36 56 27.9413 56 17.9954C56 8.04946 43.463 0 28 0ZM28 28.2751C25.6993 28.2751 23.8233 23.7728 23.7067 18.109C26.5634 18.3575 29.4366 18.3575 32.2933 18.109C32.1767 23.7705 30.3007 28.2751 28 28.2751ZM23.989 13.6136C24.6143 9.60974 26.1753 6.76739 28 6.76739C29.8247 6.76739 31.3833 9.60974 32.011 13.6136C29.3422 13.849 26.6577 13.849 23.989 13.6136ZM28 2.60124C24.997 2.60124 22.435 7.0711 21.49 13.3099C15.7967 12.4289 11.823 10.4165 11.823 8.0796C11.823 4.92658 19.0657 2.37403 28 2.37403C36.9367 2.37403 44.177 4.9289 44.177 8.0796C44.177 10.4165 40.2033 12.4289 34.51 13.3099C33.565 7.07342 31.003 2.60356 28 2.60356V2.60124ZM4.01333 17.323C4.01333 14.2743 5.19633 11.4111 7.252 8.95363C7.231 9.12519 7.217 9.30139 7.217 9.47759C7.217 13.3192 13.0153 16.5951 21.1073 17.8006C21.1003 18.0788 21.1003 18.3617 21.1003 18.6445C21.1003 25.8083 23.121 31.8709 25.914 33.9297C13.6407 33.1947 4.01333 26.0402 4.01333 17.323ZM30.086 33.9297C32.879 31.8709 34.8997 25.806 34.8997 18.6445C34.8997 18.3594 34.895 18.0811 34.8927 17.8029C42.98 16.5974 48.783 13.3238 48.783 9.47759C48.783 9.30139 48.769 9.12519 48.748 8.95363C50.8037 11.4181 51.9843 14.2743 51.9843 17.323C51.9843 26.0402 42.3593 33.1947 30.086 33.9297Z" fill="black"/>
</svg>
