<svg width="38" height="16" viewBox="0 0 38 16" fill="none" xmlns="http://www.w3.org/2000/svg">
<g id="Group">
<path id="Vector" d="M38 9.23608H-0.00012207V10.5671H38V9.23608Z" fill="#FFC400"/>
<g id="Group_2">
<path id="Vector_2" d="M3.68874 12.7942C3.36218 12.7942 3.22329 13.0472 3.22329 13.6102V13.8343C3.22329 14.728 2.7785 15.2744 1.97078 15.2744C1.16306 15.2744 0.722412 14.728 0.722412 13.8954V13.6549C0.722412 12.786 1.18704 12.2717 1.97078 12.2717C2.40316 12.2717 2.68922 12.4553 2.88433 12.7694C3.05959 12.4553 3.36549 12.2717 3.76976 12.2717C4.46339 12.2717 4.78582 12.757 4.78582 13.6218V13.8789C4.78582 14.303 4.67586 14.9231 4.49233 15.229H3.79456C4.02274 14.8784 4.12112 14.2699 4.12112 13.8789V13.6094C4.12112 13.0464 3.99463 12.7934 3.68874 12.7934V12.7942ZM2.53379 13.8996V13.6301C2.53379 13.096 2.35025 12.7934 1.97492 12.7934C1.59958 12.7934 1.41191 13.0786 1.41191 13.6375V13.8987C1.41191 14.4659 1.62851 14.747 1.97905 14.747C2.36679 14.747 2.53379 14.4576 2.53379 13.8987V13.8996Z" fill="#34383E"/>
<path id="Vector_3" d="M6.26316 13.2796C6.50374 13.2796 6.74432 13.3772 6.88321 13.6715C7.03451 13.402 7.30319 13.2796 7.62149 13.2796C8.21343 13.2796 8.52759 13.6425 8.52759 14.2998V14.332C8.52759 14.7562 8.39697 15.0827 8.30768 15.2299H7.63472C7.74467 15.0339 7.85876 14.7322 7.85876 14.4015V14.3197C7.85876 13.9766 7.75294 13.7814 7.52393 13.7814C7.29493 13.7814 7.18497 13.9815 7.18497 14.3155V14.6503H6.54425V14.3114C6.54425 13.9807 6.43843 13.7806 6.21356 13.7806C5.98869 13.7806 5.87046 13.989 5.87046 14.323V14.4172C5.87046 14.7438 5.98455 15.0331 6.09864 15.2291H5.42155C5.33143 15.0703 5.20081 14.6702 5.20081 14.1477V14.0295C5.20081 12.9729 5.60095 12.4347 6.75094 12.3892L7.01218 12.381C7.49334 12.3644 7.78766 12.3239 7.96293 12.271V12.7646C7.7794 12.834 7.49417 12.8588 7.07336 12.8745L6.76747 12.8786C5.99199 12.915 5.80846 13.1482 5.73901 13.5152C5.83326 13.3722 6.04077 13.2788 6.26151 13.2788L6.26316 13.2796Z" fill="#34383E"/>
<path id="Vector_4" d="M8.83359 14.0914H9.49002C9.49415 14.5279 9.66115 14.7445 10.0365 14.7445C10.3672 14.7445 10.5383 14.561 10.5383 14.2137C10.5383 13.4424 9.62064 13.4383 9.62064 12.3123H10.2853C10.2853 13.2382 11.2278 13.2506 11.2278 14.2137C11.2278 14.8908 10.7508 15.2745 10.0406 15.2745C9.25771 15.2745 8.84103 14.8627 8.83276 14.0914H8.83359Z" fill="#34383E"/>
<path id="Vector_5" d="M13.7989 12.3124V14.2171C13.7989 14.8942 13.3301 15.2737 12.6406 15.2737C11.9511 15.2737 11.5229 14.8413 11.5063 14.2254H12.1347C12.1388 14.5189 12.2818 14.7636 12.6365 14.7636C12.9912 14.7636 13.1383 14.5718 13.1383 14.1799V13.5558C13.1383 13.2581 13.0325 13.0663 12.7547 13.0663C12.4769 13.0663 12.367 13.254 12.367 13.564V13.6698H11.7676V13.564C11.7676 12.9688 11.9718 12.5769 12.5348 12.5769C12.8407 12.5769 13.0366 12.6993 13.1383 12.8621V12.3115H13.7989V12.3124Z" fill="#34383E"/>
<path id="Vector_6" d="M17.3813 14.6338L17.8665 15.229H17.1117L16.8993 14.9678C16.7157 15.1348 16.4793 15.2695 16.1039 15.2695C15.512 15.2695 15.1168 14.9471 15.1168 14.4172C15.1168 14.0129 15.3698 13.7525 15.7658 13.5607C15.6228 13.3647 15.5616 13.1729 15.5616 13.0101C15.5616 12.5372 15.9576 12.2842 16.4181 12.2842C16.8422 12.2842 17.2093 12.5206 17.2093 12.9373C17.2093 13.268 17.001 13.5044 16.6132 13.6673L17.0704 14.2262L17.3316 13.7161H17.8541L17.3813 14.6338ZM16.5942 14.5891L16.0395 13.9162C15.8642 14.0063 15.7377 14.1245 15.7377 14.3527C15.7377 14.6139 15.9006 14.7851 16.1908 14.7851C16.3462 14.7851 16.4842 14.7197 16.595 14.5891H16.5942ZM16.3329 13.4061C16.5777 13.292 16.6835 13.1696 16.6835 12.9695C16.6835 12.8183 16.5777 12.7083 16.4264 12.7083C16.2635 12.7083 16.137 12.8141 16.137 13.0183C16.137 13.1407 16.2106 13.2589 16.3329 13.4061Z" fill="#34383E"/>
<path id="Vector_7" d="M19.0007 14.1855V14.1533C19.0007 13.5696 19.4207 13.1703 20.0209 13.0802C20.0126 12.7131 19.6208 12.819 19.6208 12.313H20.2855C20.2855 12.6759 20.6815 12.5949 20.6815 13.0843V13.0926C21.1916 13.2232 21.538 13.611 21.538 14.1409V14.174C21.538 14.8511 20.9915 15.2752 20.2648 15.2752C19.5381 15.2752 18.9999 14.8428 18.9999 14.1855H19.0007ZM20.8493 14.169V14.1525C20.8493 13.773 20.6211 13.5564 20.2697 13.5564C19.9184 13.5564 19.6902 13.773 19.6902 14.1525V14.169C19.6902 14.5402 19.9101 14.7684 20.2697 14.7684C20.6294 14.7684 20.8493 14.5402 20.8493 14.169Z" fill="#34383E"/>
<path id="Vector_8" d="M21.7555 14.0914H22.4119C22.416 14.5279 22.583 14.7445 22.9584 14.7445C23.2891 14.7445 23.4602 14.561 23.4602 14.2137C23.4602 13.4424 22.5425 13.4383 22.5425 12.3123H23.2072C23.2072 13.2382 24.1497 13.2506 24.1497 14.2137C24.1497 14.8908 23.6727 15.2745 22.9625 15.2745C22.1796 15.2745 21.7629 14.8627 21.7546 14.0914H21.7555Z" fill="#34383E"/>
<path id="Vector_9" d="M26.5447 13.1778C26.4959 13.2555 26.4835 13.3332 26.4835 13.4059C26.4835 13.716 26.9118 13.8102 26.9118 14.336V14.3567C26.9118 14.9519 26.4348 15.2744 25.7651 15.2744C25.031 15.2744 24.5531 14.9032 24.5531 14.169V12.313H25.2178V14.1492C25.2178 14.5452 25.4013 14.7452 25.7684 14.7452C26.095 14.7452 26.2702 14.6022 26.2702 14.3253V14.3087C26.2702 13.9582 25.8544 13.8317 25.8544 13.4274C25.8544 13.3497 25.8668 13.2604 25.9156 13.1786H26.5439L26.5447 13.1778Z" fill="#34383E"/>
</g>
<g id="Group_3">
<path id="Vector_10" d="M6.41866 0.724854C5.792 0.724854 5.28356 0.920791 4.957 1.37715C4.48741 0.907563 3.82189 0.724854 3.0646 0.724854C1.68147 0.724854 0.545532 1.36475 0.545532 3.24392V4.73204C0.545532 6.61121 1.68064 7.25111 3.0646 7.25111C4.44855 7.25111 5.58366 6.61121 5.58366 4.73204V3.17861C5.58366 2.40891 5.85814 2.22621 6.26241 2.22621C6.66668 2.22621 6.94116 2.40891 6.94116 3.17861V7.14611H8.44169V3.24392C8.44169 1.36475 7.52814 0.724854 6.41866 0.724854ZM4.08231 4.34017C4.08231 5.38434 3.84752 5.74975 3.0646 5.74975C2.28168 5.74975 2.04688 5.38434 2.04688 4.34017V3.63579C2.04688 2.59162 2.28168 2.22621 3.0646 2.22621C3.84752 2.22621 4.08231 2.59162 4.08231 3.63579V4.34017Z" fill="#34383E"/>
<path id="Vector_11" d="M11.7486 0.724854C10.3654 0.724854 9.22949 1.36475 9.22949 3.24392H10.73C10.73 2.49986 11.0822 2.22621 11.7477 2.22621C12.5306 2.22621 12.7654 2.59162 12.7654 3.63579V4.34017C12.7654 5.38434 12.5306 5.74975 11.7477 5.74975C10.9648 5.74975 10.73 5.38434 10.73 4.34017H9.22949V4.73204C9.22949 6.61121 10.3646 7.25111 11.7486 7.25111C13.1325 7.25111 14.2676 6.61121 14.2676 4.73204V3.24392C14.2676 1.36475 13.1449 0.724854 11.7486 0.724854Z" fill="#34383E"/>
<path id="Vector_12" d="M22.9979 0.724854C21.6148 0.724854 20.4789 1.36475 20.4789 3.24392H21.9794C21.9794 2.49986 22.3316 2.22621 22.9971 2.22621C23.78 2.22621 24.0148 2.59162 24.0148 3.63579V4.34017C24.0148 5.38434 23.78 5.74975 22.9971 5.74975C22.2142 5.74975 21.9794 5.38434 21.9794 4.34017H20.4789V4.73204C20.4789 6.61121 21.614 7.25111 22.9979 7.25111C24.3819 7.25111 25.517 6.61121 25.517 4.73204V3.24392C25.517 1.36475 24.3943 0.724854 22.9979 0.724854Z" fill="#34383E"/>
<path id="Vector_13" d="M29.802 1.63819V0.842041H28.3271V4.33996H29.802V2.89152C30.1939 3.03537 30.3237 3.43964 30.3237 4.20933V4.33996C30.3237 5.38413 30.1021 5.74954 29.3184 5.74954H28.8223C28.0394 5.74954 27.8046 5.38413 27.8046 4.33996V2.17309H26.3041V4.74423C26.3041 6.6234 27.4392 7.25007 28.8231 7.25007H29.3192C30.7023 7.25007 31.825 6.61018 31.825 4.74423V4.11757C31.825 2.47319 30.9503 1.78121 29.802 1.63819Z" fill="#34383E"/>
<path id="Vector_14" d="M36.5408 2.77412C36.2663 2.5261 36.1622 2.43516 36.058 2.34339C35.3272 1.71673 35.0271 1.5861 35.0271 1.11652V0.842041H33.5265V1.23391C33.5265 2.21277 33.8655 2.38225 34.5707 2.98246C34.5795 2.99128 34.8275 3.19135 35.3148 3.58267C35.7843 3.96132 35.9547 4.09194 35.9547 4.74423C35.9414 5.38413 35.7199 5.74954 34.9369 5.74954C34.154 5.74954 33.9192 5.38413 33.9192 4.33996H32.4187V4.73183C32.4187 6.611 33.5538 7.2509 34.9378 7.2509C36.3217 7.2509 37.4568 6.611 37.4568 4.73183V4.48381C37.4568 3.51818 36.9872 3.19162 36.5433 2.77412H36.5408Z" fill="#34383E"/>
<path id="Vector_15" d="M18.9055 3.17323C19.2469 2.91198 19.4057 2.53168 19.4057 2.16378C19.4057 1.25189 18.6633 0.730225 17.4645 0.730225C16.2657 0.730225 15.3274 1.10804 15.3274 2.50192H16.8254C16.8254 2.16296 16.9428 1.96785 17.3595 1.96785C17.7762 1.96785 17.9068 2.16296 17.9068 2.42421C17.9068 2.73671 17.6596 2.90619 17.2818 2.90619C15.9177 2.92356 14.8578 3.32287 14.8578 5.08216C14.8578 6.84146 15.9524 7.2449 17.3727 7.2449C18.7931 7.2449 19.8876 6.77614 19.8876 5.08216C19.8876 4.02642 19.5057 3.46093 18.9055 3.17323ZM17.3727 5.74603C16.7477 5.74603 16.3567 5.56332 16.3567 5.01602C16.3567 4.40341 16.7477 4.27361 17.3727 4.27361C17.9977 4.27361 18.3888 4.40424 18.3888 5.01602C18.3888 5.56332 17.9977 5.74603 17.3727 5.74603Z" fill="#34383E"/>
</g>
</g>
</svg>
