<svg width="64" height="10" viewBox="0 0 64 10" fill="none" xmlns="http://www.w3.org/2000/svg">
<g id="Group">
<path id="Vector" d="M27.5068 7.81283V9.06649H39.011V5.28444H37.7047C37.6415 6.47489 36.9883 7.70748 35.3027 7.81283H33.2695V2.07127H35.229V0.807069H27.5384V2.07127H29.4347V7.81283H27.5068ZM21.1437 9.24559C17.9937 9.24559 15.3389 7.63373 15.3389 5.05266C15.3389 2.17662 17.9832 0.754395 21.1437 0.754395C24.6729 0.754395 26.9274 2.36625 26.9274 5.05266C26.9274 7.61266 24.3885 9.24559 21.1437 9.24559ZM21.1437 7.84443C22.2393 7.84443 23.0505 6.5697 23.0505 5.04213C23.0505 3.346 22.3131 2.0818 21.1437 2.0818C19.9743 2.0818 19.2579 3.346 19.2579 5.04213C19.2579 6.75933 19.9743 7.84443 21.1437 7.84443ZM0 0.817605V2.0818H1.9279L5.73103 9.05596H10.2716L14.159 2.0818H16.0764V0.817605H10.2611V2.0818H11.9256L9.12329 7.13859L6.35259 2.0818H8.38584V0.817605H0ZM37.1042 0.817605H45.5006V2.0818H43.4568L46.2275 7.13859L49.0509 2.0818H47.3653V0.817605H53.17V2.0818H51.2632L47.3653 9.05596H42.8247L39.0216 2.0818H37.1042V0.817605ZM58.2163 9.24559C61.4611 9.24559 64 7.61266 64 5.05266C64 2.36625 61.735 0.754395 58.2163 0.754395C55.0663 0.754395 52.4115 2.17662 52.4115 5.05266C52.4115 7.63373 55.0663 9.24559 58.2163 9.24559ZM58.2163 7.84443C57.0469 7.84443 56.3411 6.75933 56.3411 5.04213C56.3411 3.346 57.0574 2.0818 58.2163 2.0818C59.3751 2.0818 60.1231 3.346 60.1231 5.04213C60.1231 6.5697 59.3225 7.84443 58.2163 7.84443Z" fill="black"/>
</g>
</svg>
