<?xml version="1.0" encoding="utf-8"?>
<!-- Generator: Adobe Illustrator 26.0.1, SVG Export Plug-In . SVG Version: 6.00 Build 0)  -->
<svg version="1.1" id="Layer_1" xmlns="http://www.w3.org/2000/svg" xmlns:xlink="http://www.w3.org/1999/xlink" x="0px" y="0px"
	 viewBox="0 0 500 500" style="enable-background:new 0 0 500 500;" xml:space="preserve">
<style type="text/css">
	.st0{opacity:0.61;}
	.st1{fill:#FFFFFF;}
	.st2{fill:#003277;}
	.st3{fill:#848283;}
</style>
<g id="watermark_1_">
	<g>
		<g id="watermark" class="st0">
			<g>
				<g>
					<g>
						<g>
							<polygon class="st1" points="213.76,461.17 208.2,474.02 205.27,474.02 199.73,461.17 202.94,461.17 206.85,470.35 
								210.81,461.17 							"/>
						</g>
						<g>
							<path class="st1" d="M223.51,469.74h-7.47c0.27,1.23,1.32,1.98,2.83,1.98c1.05,0,1.8-0.31,2.48-0.95l1.52,1.65
								c-0.92,1.05-2.29,1.6-4.07,1.6c-3.41,0-5.63-2.15-5.63-5.08c0-2.95,2.26-5.08,5.27-5.08c2.9,0,5.14,1.95,5.14,5.12
								C223.56,469.19,223.53,469.5,223.51,469.74 M216,468.07h4.86c-0.2-1.25-1.14-2.05-2.42-2.05
								C217.14,466.02,216.2,466.8,216,468.07"/>
						</g>
						<g>
							<path class="st1" d="M224.74,468.93c0-2.97,2.29-5.08,5.51-5.08c2.07,0,3.71,0.9,4.42,2.51l-2.22,1.19
								c-0.53-0.94-1.32-1.36-2.22-1.36c-1.45,0-2.59,1.01-2.59,2.73s1.14,2.73,2.59,2.73c0.9,0,1.69-0.4,2.22-1.36l2.22,1.21
								c-0.72,1.58-2.35,2.49-4.42,2.49C227.03,474.02,224.74,471.91,224.74,468.93"/>
						</g>
						<g>
							<path class="st1" d="M242.83,473.39c-0.59,0.42-1.45,0.62-2.33,0.62c-2.33,0-3.69-1.19-3.69-3.54v-4.05h-1.52v-2.2h1.52v-2.4
								h2.86v2.4h2.46v2.2h-2.46v4.02c0,0.84,0.46,1.3,1.23,1.3c0.42,0,0.84-0.13,1.16-0.37L242.83,473.39z"/>
						</g>
					</g>
					<g>
						<path class="st1" d="M262.47,464v2.64c-0.24-0.02-0.42-0.04-0.64-0.04c-1.58,0-2.62,0.86-2.62,2.75v4.66h-2.86v-9.87h2.73v1.3
							C259.78,464.49,260.95,464,262.47,464"/>
					</g>
					<g>
						<path class="st1" d="M263.3,472.53l1.01-2.24c1.08,0.79,2.7,1.34,4.24,1.34c1.76,0,2.48-0.59,2.48-1.38
							c0-2.4-7.47-0.75-7.47-5.52c0-2.18,1.76-4,5.41-4c1.61,0,3.27,0.39,4.46,1.14l-0.92,2.26c-1.19-0.68-2.42-1.01-3.56-1.01
							c-1.76,0-2.44,0.66-2.44,1.47c0,2.37,7.47,0.73,7.47,5.45c0,2.15-1.78,3.98-5.45,3.98
							C266.49,474.02,264.44,473.41,263.3,472.53"/>
					</g>
					<g>
						<path class="st1" d="M285.43,469.74h-7.47c0.27,1.23,1.32,1.98,2.83,1.98c1.05,0,1.8-0.31,2.48-0.95l1.52,1.65
							c-0.92,1.05-2.29,1.6-4.07,1.6c-3.41,0-5.63-2.15-5.63-5.08c0-2.95,2.26-5.08,5.27-5.08c2.9,0,5.14,1.95,5.14,5.12
							C285.48,469.19,285.45,469.5,285.43,469.74 M277.92,468.07h4.86c-0.2-1.25-1.14-2.05-2.42-2.05
							C279.06,466.02,278.12,466.8,277.92,468.07"/>
					</g>
					<g>
						<path class="st1" d="M297.01,469.74h-7.47c0.27,1.23,1.32,1.98,2.83,1.98c1.05,0,1.8-0.31,2.48-0.95l1.52,1.65
							c-0.92,1.05-2.29,1.6-4.07,1.6c-3.41,0-5.63-2.15-5.63-5.08c0-2.95,2.26-5.08,5.27-5.08c2.9,0,5.14,1.95,5.14,5.12
							C297.06,469.19,297.02,469.5,297.01,469.74 M289.5,468.07h4.86c-0.2-1.25-1.14-2.05-2.42-2.05
							C290.64,466.02,289.7,466.8,289.5,468.07"/>
					</g>
					<g>
						<polygon class="st1" points="303.21,470.14 301.83,471.5 301.83,474.02 298.97,474.02 298.97,460.4 301.83,460.4 
							301.83,468.11 306.02,464.14 309.43,464.14 305.32,468.33 309.8,474.02 306.33,474.02 						"/>
					</g>
					<g>
						<path class="st1" d="M256.6,475.36L256.6,475.36l-2.86-2.86c-0.43,0.51-0.95,0.94-1.53,1.28c-0.09,0.07-0.19,0.14-0.28,0.2
							l3.03,3.03c0.46,0.46,1.19,0.46,1.65,0C257.06,476.55,257.06,475.82,256.6,475.36"/>
					</g>
					<g>
						<path class="st1" d="M249.98,463.24c0.22-0.17,0.49-0.28,0.8-0.28c0.04,0,0.08,0,0.12,0.01c-0.21-0.16-0.48-0.25-0.76-0.25
							c-0.4,0-0.74,0.18-0.98,0.46c-0.05,0-0.1,0.01-0.15,0.01c0.04-0.08,0.06-0.16,0.06-0.26c0-0.23-0.14-0.43-0.35-0.52
							c0.09,0.13,0.14,0.28,0.14,0.45c0,0.12-0.03,0.24-0.08,0.34c-2.81,0.2-5.03,2.54-5.03,5.4c0,2.99,2.43,5.42,5.42,5.42
							c2.99,0,5.42-2.43,5.42-5.42C254.6,465.88,252.59,463.64,249.98,463.24 M247.98,464.66c0.43,0,0.84,0.11,1.2,0.31
							c0.37-0.24,0.82-0.39,1.3-0.39c0.71,0,1.35,0.31,1.78,0.81c-0.43-0.38-1-0.61-1.63-0.61c-0.45,0-0.87,0.12-1.23,0.33
							c-0.08,0.05-0.16,0.1-0.23,0.15c-0.07-0.05-0.13-0.09-0.2-0.13c-0.37-0.22-0.8-0.34-1.26-0.34c-0.3,0-0.59,0.05-0.85,0.15
							C247.2,464.75,247.58,464.66,247.98,464.66 M251.77,469.1c0.12,0.3,0.18,0.63,0.18,0.98c0,1.53-1.24,2.78-2.78,2.78
							s-2.78-1.24-2.78-2.78c0-0.35,0.07-0.67,0.18-0.98c-0.62-0.38-1.04-1.06-1.04-1.85c0-1.2,0.97-2.17,2.17-2.17
							c0.57,0,1.08,0.22,1.46,0.57c0.39-0.35,0.9-0.57,1.46-0.57c1.2,0,2.17,0.97,2.17,2.17
							C252.81,468.03,252.39,468.72,251.77,469.1"/>
					</g>
					<g>
						<path class="st1" d="M251.67,467.06c0,0.5-0.4,0.9-0.9,0.9s-0.9-0.4-0.9-0.9s0.4-0.9,0.9-0.9c0.1,0,0.2,0.02,0.29,0.05
							c-0.03,0.06-0.04,0.13-0.04,0.2c0,0.27,0.22,0.49,0.49,0.49c0.05,0,0.1-0.01,0.15-0.02
							C251.66,466.94,251.67,467,251.67,467.06"/>
					</g>
					<g>
						<path class="st1" d="M248.26,467.06c0,0.38-0.3,0.68-0.68,0.68s-0.68-0.3-0.68-0.68s0.3-0.68,0.68-0.68
							c0.08,0,0.15,0.01,0.22,0.04c-0.02,0.05-0.03,0.1-0.03,0.15c0,0.21,0.17,0.37,0.37,0.37c0.04,0,0.07-0.01,0.11-0.02
							C248.25,466.97,248.26,467.02,248.26,467.06"/>
					</g>
					<g>
						<g>
							<g>
								<rect x="242.91" y="467.83" class="st1" width="0.62" height="0.62"/>
							</g>
							<g>
								<rect x="254.83" y="467.83" class="st1" width="0.62" height="0.62"/>
							</g>
							<g>
								<path class="st1" d="M255.21,468.08h-0.14c0-3.25-2.64-5.89-5.89-5.89s-5.89,2.64-5.89,5.89h-0.14
									c0-1.61,0.63-3.12,1.77-4.26s2.65-1.77,4.26-1.77c1.61,0,3.12,0.63,4.26,1.77C254.58,464.96,255.21,466.47,255.21,468.08"/>
							</g>
						</g>
						<g>
							<rect x="248.87" y="461.81" class="st1" width="0.62" height="0.62"/>
						</g>
						<g>
							<rect x="244.95" y="462.05" class="st1" width="8.45" height="0.14"/>
						</g>
						<g>
							<path class="st1" d="M245.17,462.15c0,0.11-0.09,0.2-0.2,0.2s-0.2-0.09-0.2-0.2s0.09-0.2,0.2-0.2
								C245.09,461.95,245.17,462.04,245.17,462.15"/>
						</g>
						<g>
							<path class="st1" d="M253.6,462.15c0,0.11-0.09,0.2-0.2,0.2s-0.2-0.09-0.2-0.2s0.09-0.2,0.2-0.2
								C253.51,461.95,253.6,462.04,253.6,462.15"/>
						</g>
					</g>
				</g>
				<g>
					<path class="st1" d="M314.36,473.41c0,1.56-2.36,1.56-2.36,0C311.99,471.85,314.36,471.85,314.36,473.41z"/>
				</g>
				<g>
					<g>
						<g>
							<path class="st1" d="M161.74,466.55l1.77,6.09l1.85-6.09h2.21l-2.82,8.14h-2.33l-0.84-2.4l-0.72-2.71l-0.72,2.71l-0.84,2.4
								h-2.33l-2.84-8.14h2.23l1.85,6.09l1.76-6.09H161.74z"/>
						</g>
						<g>
							<path class="st1" d="M176.71,466.55l1.77,6.09l1.85-6.09h2.21l-2.82,8.14h-2.33l-0.84-2.4l-0.72-2.71l-0.72,2.71l-0.84,2.4
								h-2.33l-2.84-8.14h2.23l1.85,6.09l1.76-6.09H176.71z"/>
						</g>
						<g>
							<path class="st1" d="M191.69,466.55l1.77,6.09l1.85-6.09h2.21l-2.82,8.14h-2.33l-0.84-2.4l-0.72-2.71l-0.72,2.71l-0.84,2.4
								h-2.33l-2.84-8.14h2.23l1.85,6.09l1.76-6.09H191.69z"/>
						</g>
					</g>
					<g>
						<path class="st1" d="M200.91,473.52c0,1.56-2.36,1.56-2.36,0C198.54,471.96,200.91,471.96,200.91,473.52z"/>
					</g>
					<g>
						<path class="st1" d="M322.71,473.41c-0.93,0.92-1.92,1.28-3.12,1.28c-2.35,0-4.3-1.41-4.3-4.28s1.95-4.28,4.3-4.28
							c1.15,0,2.04,0.33,2.92,1.2l-1.26,1.33c-0.48-0.43-1.07-0.64-1.62-0.64c-1.35,0-2.33,0.98-2.33,2.4c0,1.54,1.05,2.36,2.3,2.36
							c0.64,0,1.28-0.18,1.77-0.67L322.71,473.41z"/>
					</g>
					<g>
						<path class="st1" d="M331.8,470.47c0,2.33-1.59,4.22-4.22,4.22s-4.2-1.89-4.2-4.22c0-2.31,1.61-4.22,4.18-4.22
							C330.15,466.26,331.8,468.16,331.8,470.47z M325.39,470.47c0,1.23,0.74,2.38,2.2,2.38s2.2-1.15,2.2-2.38
							c0-1.21-0.85-2.4-2.2-2.4C326.14,468.08,325.39,469.26,325.39,470.47z"/>
					</g>
					<g>
						<path class="st1" d="M338.57,474.69v-4.33c0-1.07-0.56-2.04-1.66-2.04c-1.08,0-1.72,0.97-1.72,2.04v4.33h-2v-8.11h1.86
							l0.15,0.98c0.43-0.82,1.36-1.12,2.13-1.12c0.97,0,1.94,0.39,2.4,1.51c0.72-1.15,1.66-1.48,2.71-1.48
							c2.3,0,3.43,1.41,3.43,3.84v4.36h-2v-4.36c0-1.07-0.44-1.97-1.53-1.97c-1.08,0-1.76,0.93-1.76,2v4.33L338.57,474.69
							L338.57,474.69z"/>
					</g>
				</g>
			</g>
		</g>
		<g class="st0">
			<g>
				<g>
					<path class="st1" d="M345.99,431.3c-0.01-1.22-0.96-2.12-2.19-2.14c-0.92-0.01-0.83,0.12-0.83-0.87c0-1.1-0.01-2.19,0-3.29
						c0-0.38-0.11-0.69-0.36-0.98c-2.34-2.67-4.68-5.34-7.02-8.01c-0.12-0.14-0.27-0.24-0.41-0.37c-6.21,0-12.43,0-18.64,0
						c-0.79,0.29-1.14,0.87-1.14,1.71c0.01,3.75,0,7.5,0,11.24c0,0.56,0,0.59-0.55,0.55c-1.5-0.1-2.52,0.99-2.5,2.49
						c0.04,3.48,0.01,6.95,0.01,10.43c0,1.58,0.87,2.44,2.45,2.45c0.58,0,0.58,0,0.58,0.6c0,2.22,0,4.44,0,6.66
						c0,1.19,0.58,1.77,1.77,1.77c8.01,0,16.03,0,24.04,0c1.17,0,1.76-0.58,1.76-1.74c0-2.26,0-4.51,0-6.77c0-0.51,0-0.51,0.52-0.52
						c0.27,0,0.54,0.01,0.81-0.06c1-0.25,1.69-1.04,1.69-2.07C346,438.7,346.01,435,345.99,431.3z M317.54,417.16
						c5.34,0,10.67,0,16.01,0c0.55,0,0.55,0.01,0.55,0.56c0,2.24,0,4.49,0,6.73c0,0.81,0.25,1.06,1.06,1.06c1.91,0,3.82,0,5.73,0
						c0.46,0,0.48,0.02,0.48,0.48c0,0.89,0,1.77,0,2.66c0,0.48-0.02,0.5-0.5,0.5c-3.89,0-7.79,0-11.68,0c-3.88,0-7.77,0-11.65,0
						c-0.55,0-0.55,0-0.55-0.56c0-3.62,0-7.25,0-10.87C316.99,417.17,316.99,417.16,317.54,417.16z M340.82,451.58
						c-3.88,0-7.77,0-11.65,0c-3.87,0-7.74,0-11.61,0c-0.57,0-0.57,0-0.57-0.58c0-2,0-3.99,0-5.99c0-0.46,0.02-0.49,0.48-0.49
						c7.8,0,15.61,0,23.41,0c0.48,0,0.5,0.02,0.5,0.5c0,2,0,3.99,0,5.99C341.38,451.57,341.37,451.58,340.82,451.58z"/>
				</g>
				<g>
					<g>
						<rect x="327.42" y="417.05" class="st1" width="1.76" height="1.05"/>
					</g>
					<g>
						<rect x="325.66" y="418.11" class="st1" width="1.76" height="1.05"/>
					</g>
					<g>
						<rect x="327.42" y="419.16" class="st1" width="1.76" height="1.05"/>
					</g>
					<g>
						<rect x="325.66" y="420.21" class="st1" width="1.76" height="1.05"/>
					</g>
					<g>
						<rect x="327.42" y="421.27" class="st1" width="1.76" height="1.05"/>
					</g>
					<g>
						<rect x="325.66" y="422.32" class="st1" width="1.76" height="1.05"/>
					</g>
					<g>
						<rect x="327.42" y="423.38" class="st1" width="1.76" height="1.05"/>
					</g>
					<g>
						<rect x="325.66" y="424.43" class="st1" width="1.76" height="1.05"/>
					</g>
					<g>
						<rect x="327.42" y="425.49" class="st1" width="1.76" height="1.05"/>
					</g>
					<g>
						<rect x="325.66" y="426.54" class="st1" width="1.76" height="1.05"/>
					</g>
					<g>
						<rect x="327.42" y="427.59" class="st1" width="1.76" height="1.05"/>
					</g>
					<g>
						<rect x="325.66" y="428.65" class="st1" width="1.76" height="1.05"/>
					</g>
				</g>
			</g>
			<g>
				<path class="st1" d="M187.64,431.3c-0.01-1.22-0.96-2.12-2.19-2.14c-0.92-0.01-0.83,0.12-0.83-0.87c0-1.1-0.01-2.19,0-3.29
					c0-0.38-0.11-0.69-0.36-0.98c-2.34-2.67-4.68-5.34-7.02-8.01c-0.12-0.14-0.27-0.24-0.41-0.37c-6.21,0-12.43,0-18.64,0
					c-0.79,0.29-1.14,0.87-1.14,1.71c0.01,3.75,0,7.5,0,11.24c0,0.56,0,0.59-0.55,0.55c-1.5-0.1-2.52,0.99-2.5,2.49
					c0.04,3.48,0.01,6.95,0.01,10.43c0,1.58,0.87,2.44,2.45,2.45c0.58,0,0.58,0,0.58,0.6c0,2.22,0,4.44,0,6.66
					c0,1.19,0.58,1.77,1.77,1.77c8.01,0,16.03,0,24.04,0c1.17,0,1.76-0.58,1.76-1.74c0-2.26,0-4.51,0-6.77c0-0.51,0-0.51,0.52-0.52
					c0.27,0,0.54,0.01,0.81-0.06c1-0.25,1.69-1.04,1.69-2.07C187.65,438.7,187.65,435,187.64,431.3z M159.19,417.16
					c5.34,0,10.67,0,16.01,0c0.55,0,0.55,0.01,0.55,0.56c0,2.24,0,4.49,0,6.73c0,0.81,0.25,1.06,1.06,1.06c1.91,0,3.82,0,5.73,0
					c0.46,0,0.48,0.02,0.48,0.48c0,0.89,0,1.77,0,2.66c0,0.48-0.02,0.5-0.5,0.5c-3.9,0-7.79,0-11.68,0c-3.88,0-7.76,0-11.65,0
					c-0.55,0-0.55,0-0.55-0.56c0-3.62,0-7.25,0-10.87C158.64,417.17,158.64,417.16,159.19,417.16z M182.47,451.58
					c-3.88,0-7.77,0-11.65,0c-3.87,0-7.74,0-11.61,0c-0.57,0-0.57,0-0.57-0.58c0-2,0-3.99,0-5.99c0-0.46,0.02-0.49,0.48-0.49
					c7.8,0,15.61,0,23.41,0c0.48,0,0.5,0.02,0.5,0.5c0,2,0,3.99,0,5.99C183.02,451.57,183.02,451.58,182.47,451.58z"/>
			</g>
			<g>
				<path class="st1" d="M159.78,440.67v-7.9h2.78c0.38,0,0.73,0.06,1.05,0.18s0.61,0.29,0.85,0.51c0.24,0.22,0.43,0.48,0.57,0.79
					c0.14,0.3,0.21,0.64,0.21,1.01c0,0.38-0.07,0.71-0.21,1.02s-0.33,0.57-0.57,0.79c-0.24,0.22-0.53,0.39-0.85,0.51
					s-0.68,0.18-1.05,0.18h-1.29v2.9L159.78,440.67L159.78,440.67z M162.58,436.36c0.39,0,0.68-0.11,0.88-0.33
					c0.2-0.22,0.3-0.47,0.3-0.76c0-0.14-0.02-0.28-0.07-0.41s-0.12-0.25-0.22-0.35c-0.1-0.1-0.22-0.18-0.37-0.24
					c-0.15-0.06-0.32-0.09-0.52-0.09h-1.31v2.17L162.58,436.36L162.58,436.36z"/>
				<path class="st1" d="M166.31,432.77h1.73l3.18,5.29h0.09l-0.09-1.52v-3.77h1.48v7.9h-1.57l-3.35-5.59h-0.09l0.09,1.52v4.07
					h-1.47L166.31,432.77L166.31,432.77z"/>
				<path class="st1" d="M177.92,436.33h3.87c0.02,0.09,0.04,0.2,0.05,0.32c0.01,0.12,0.02,0.25,0.02,0.38
					c0,0.51-0.08,0.98-0.23,1.43s-0.4,0.85-0.73,1.2c-0.35,0.38-0.78,0.67-1.27,0.87c-0.49,0.21-1.05,0.31-1.69,0.31
					c-0.57,0-1.11-0.1-1.62-0.31c-0.51-0.21-0.95-0.49-1.32-0.86c-0.38-0.37-0.67-0.8-0.89-1.31s-0.33-1.05-0.33-1.65
					c0-0.6,0.11-1.14,0.33-1.65s0.52-0.94,0.89-1.31c0.38-0.37,0.82-0.65,1.32-0.86s1.05-0.31,1.62-0.31c0.64,0,1.21,0.11,1.71,0.33
					s0.93,0.53,1.3,0.92l-1.02,1c-0.26-0.27-0.54-0.48-0.86-0.62c-0.32-0.14-0.7-0.21-1.14-0.21c-0.36,0-0.7,0.07-1.03,0.19
					c-0.32,0.13-0.61,0.31-0.85,0.55c-0.24,0.23-0.44,0.52-0.58,0.86c-0.14,0.33-0.21,0.71-0.21,1.12c0,0.41,0.07,0.79,0.21,1.12
					c0.14,0.33,0.34,0.62,0.58,0.86c0.25,0.23,0.53,0.42,0.85,0.55c0.32,0.13,0.67,0.19,1.04,0.19c0.42,0,0.77-0.06,1.06-0.18
					c0.29-0.12,0.54-0.28,0.74-0.47c0.15-0.13,0.27-0.3,0.38-0.5c0.11-0.2,0.19-0.43,0.25-0.68h-2.48L177.92,436.33L177.92,436.33z"
					/>
			</g>
			<g>
				<path class="st1" d="M224.02,431.3c-0.01-1.22-0.96-2.12-2.19-2.14c-0.92-0.01-0.83,0.12-0.83-0.87c0-1.1-0.01-2.19,0-3.29
					c0-0.38-0.11-0.69-0.36-0.98c-2.34-2.67-4.68-5.34-7.02-8.01c-0.12-0.14-0.27-0.24-0.41-0.37c-6.21,0-12.43,0-18.64,0
					c-0.79,0.29-1.14,0.87-1.14,1.71c0.01,3.75,0,7.5,0,11.24c0,0.56,0,0.59-0.55,0.55c-1.5-0.1-2.52,0.99-2.5,2.49
					c0.04,3.48,0.01,6.95,0.01,10.43c0,1.58,0.87,2.44,2.45,2.45c0.58,0,0.58,0,0.58,0.6c0,2.22,0,4.44,0,6.66
					c0,1.19,0.58,1.77,1.77,1.77c8.01,0,16.03,0,24.04,0c1.17,0,1.76-0.58,1.76-1.74c0-2.26,0-4.51,0-6.77c0-0.51,0-0.51,0.52-0.52
					c0.27,0,0.54,0.01,0.81-0.06c1-0.25,1.69-1.04,1.69-2.07C224.03,438.7,224.04,435,224.02,431.3z M195.57,417.16
					c5.34,0,10.67,0,16.01,0c0.55,0,0.55,0.01,0.55,0.56c0,2.24,0,4.49,0,6.73c0,0.81,0.25,1.06,1.06,1.06c1.91,0,3.82,0,5.73,0
					c0.46,0,0.48,0.02,0.48,0.48c0,0.89,0,1.77,0,2.66c0,0.48-0.02,0.5-0.5,0.5c-3.9,0-7.79,0-11.68,0c-3.88,0-7.76,0-11.65,0
					c-0.55,0-0.55,0-0.55-0.56c0-3.62,0-7.25,0-10.87C195.02,417.17,195.02,417.16,195.57,417.16z M218.85,451.58
					c-3.88,0-7.77,0-11.65,0c-3.87,0-7.74,0-11.61,0c-0.57,0-0.57,0-0.57-0.58c0-2,0-3.99,0-5.99c0-0.46,0.02-0.49,0.48-0.49
					c7.8,0,15.61,0,23.41,0c0.48,0,0.5,0.02,0.5,0.5c0,2,0,3.99,0,5.99C219.41,451.57,219.4,451.58,218.85,451.58z"/>
			</g>
			<g>
				<path class="st1" d="M205.11,432.77h1.7l2.97,7.9h-1.64l-0.65-1.89h-3.04l-0.65,1.89h-1.64L205.11,432.77z M207,437.42
					l-0.71-1.97l-0.29-0.96h-0.09l-0.29,0.96l-0.71,1.97H207z"/>
				<path class="st1" d="M211.33,434.54c-0.12,0-0.24-0.02-0.36-0.07s-0.21-0.11-0.3-0.2c-0.08-0.08-0.15-0.18-0.2-0.29
					c-0.05-0.11-0.07-0.23-0.07-0.36s0.02-0.25,0.07-0.36c0.05-0.11,0.11-0.21,0.2-0.29c0.08-0.08,0.18-0.15,0.3-0.2
					c0.11-0.05,0.23-0.07,0.36-0.07c0.26,0,0.48,0.09,0.66,0.27c0.18,0.18,0.28,0.4,0.28,0.66s-0.09,0.48-0.28,0.66
					C211.81,434.45,211.59,434.54,211.33,434.54z M210.62,440.67v-5.4h1.45v5.4H210.62z"/>
			</g>
			<g>
				<path class="st1" d="M261.04,431.3c-0.01-1.22-0.96-2.12-2.19-2.14c-0.92-0.01-0.83,0.12-0.83-0.87c0-1.1-0.01-2.19,0-3.29
					c0-0.38-0.11-0.69-0.36-0.98c-2.34-2.67-4.68-5.34-7.02-8.01c-0.12-0.14-0.27-0.24-0.41-0.37c-6.21,0-12.43,0-18.64,0
					c-0.79,0.29-1.14,0.87-1.14,1.71c0.01,3.75,0,7.5,0,11.24c0,0.56,0,0.59-0.55,0.55c-1.5-0.1-2.52,0.99-2.5,2.49
					c0.04,3.48,0.01,6.95,0.01,10.43c0,1.58,0.87,2.44,2.45,2.45c0.58,0,0.58,0,0.58,0.6c0,2.22,0,4.44,0,6.66
					c0,1.19,0.58,1.77,1.77,1.77c8.01,0,16.03,0,24.04,0c1.17,0,1.76-0.58,1.76-1.74c0-2.26,0-4.51,0-6.77c0-0.51,0-0.51,0.52-0.52
					c0.27,0,0.54,0.01,0.81-0.06c1-0.25,1.69-1.04,1.69-2.07C261.06,438.7,261.06,435,261.04,431.3z M232.59,417.16
					c5.34,0,10.67,0,16.01,0c0.55,0,0.55,0.01,0.55,0.56c0,2.24,0,4.49,0,6.73c0,0.81,0.25,1.06,1.06,1.06c1.91,0,3.82,0,5.73,0
					c0.46,0,0.48,0.02,0.48,0.48c0,0.89,0,1.77,0,2.66c0,0.48-0.02,0.5-0.5,0.5c-3.9,0-7.79,0-11.68,0c-3.88,0-7.76,0-11.65,0
					c-0.55,0-0.55,0-0.55-0.56c0-3.62,0-7.25,0-10.87C232.04,417.17,232.05,417.16,232.59,417.16z M255.88,451.58
					c-3.88,0-7.77,0-11.65,0c-3.87,0-7.74,0-11.61,0c-0.57,0-0.57,0-0.57-0.58c0-2,0-3.99,0-5.99c0-0.46,0.02-0.49,0.48-0.49
					c7.8,0,15.61,0,23.41,0c0.48,0,0.5,0.02,0.5,0.5c0,2,0,3.99,0,5.99C256.43,451.57,256.43,451.58,255.88,451.58z"/>
			</g>
			<g>
				<path class="st1" d="M236.36,440.85c-0.34,0-0.66-0.05-0.97-0.14c-0.31-0.1-0.59-0.24-0.85-0.43c-0.26-0.19-0.48-0.42-0.67-0.7
					c-0.19-0.28-0.34-0.6-0.45-0.96l1.4-0.55c0.1,0.4,0.28,0.73,0.54,0.99c0.26,0.26,0.6,0.39,1.01,0.39c0.15,0,0.3-0.02,0.45-0.06
					c0.14-0.04,0.27-0.1,0.39-0.18s0.2-0.17,0.27-0.29c0.07-0.12,0.1-0.25,0.1-0.41c0-0.15-0.03-0.28-0.08-0.4
					c-0.05-0.12-0.14-0.23-0.26-0.33c-0.12-0.1-0.28-0.2-0.48-0.3c-0.2-0.1-0.43-0.2-0.72-0.3l-0.49-0.18
					c-0.21-0.07-0.43-0.17-0.65-0.3c-0.22-0.12-0.41-0.28-0.59-0.45s-0.32-0.38-0.44-0.62c-0.11-0.24-0.17-0.51-0.17-0.81
					c0-0.31,0.06-0.6,0.18-0.87c0.12-0.27,0.29-0.5,0.52-0.71c0.22-0.2,0.49-0.36,0.8-0.47s0.66-0.17,1.04-0.17
					c0.4,0,0.74,0.05,1.03,0.16s0.54,0.24,0.74,0.41c0.2,0.17,0.37,0.35,0.49,0.55c0.12,0.2,0.22,0.39,0.28,0.56l-1.31,0.55
					c-0.07-0.22-0.21-0.42-0.4-0.6c-0.2-0.18-0.46-0.27-0.8-0.27c-0.32,0-0.59,0.08-0.8,0.23s-0.32,0.35-0.32,0.59
					c0,0.23,0.1,0.44,0.31,0.6c0.21,0.17,0.53,0.33,0.98,0.48l0.5,0.17c0.32,0.11,0.6,0.24,0.87,0.38c0.26,0.14,0.49,0.31,0.67,0.51
					c0.19,0.2,0.33,0.42,0.43,0.68c0.1,0.25,0.15,0.55,0.15,0.88c0,0.41-0.08,0.77-0.25,1.06c-0.16,0.3-0.38,0.54-0.63,0.73
					c-0.26,0.19-0.55,0.33-0.87,0.43C236.99,440.8,236.67,440.85,236.36,440.85z"/>
				<path class="st1" d="M239.52,432.77h1.61l1.63,4.75l0.29,1.02h0.09l0.31-1.02l1.7-4.75h1.61l-2.88,7.9h-1.57L239.52,432.77z"/>
				<path class="st1" d="M251.1,436.33h3.87c0.02,0.09,0.04,0.2,0.05,0.32s0.02,0.25,0.02,0.38c0,0.51-0.08,0.98-0.23,1.43
					c-0.15,0.45-0.4,0.85-0.73,1.2c-0.35,0.38-0.77,0.67-1.27,0.87c-0.49,0.21-1.05,0.31-1.69,0.31c-0.57,0-1.11-0.1-1.62-0.31
					s-0.95-0.49-1.32-0.86c-0.38-0.37-0.67-0.8-0.89-1.31c-0.22-0.5-0.33-1.05-0.33-1.65c0-0.6,0.11-1.14,0.33-1.65
					s0.52-0.94,0.89-1.31c0.38-0.37,0.82-0.65,1.32-0.86c0.51-0.21,1.05-0.31,1.62-0.31c0.64,0,1.21,0.11,1.71,0.33
					s0.94,0.53,1.3,0.92l-1.03,1c-0.26-0.27-0.54-0.48-0.86-0.62c-0.32-0.14-0.69-0.21-1.14-0.21c-0.36,0-0.7,0.07-1.03,0.19
					c-0.32,0.13-0.61,0.31-0.85,0.55c-0.24,0.23-0.44,0.52-0.58,0.86c-0.14,0.33-0.21,0.71-0.21,1.12c0,0.41,0.07,0.79,0.21,1.12
					c0.14,0.33,0.34,0.62,0.59,0.86c0.25,0.23,0.53,0.42,0.85,0.55c0.32,0.13,0.67,0.19,1.04,0.19c0.42,0,0.77-0.06,1.06-0.18
					s0.54-0.28,0.74-0.47c0.15-0.13,0.27-0.3,0.38-0.5c0.11-0.2,0.19-0.43,0.25-0.68h-2.48L251.1,436.33L251.1,436.33z"/>
			</g>
			<g>
				<path class="st1" d="M297.3,431.3c-0.01-1.22-0.96-2.12-2.19-2.14c-0.92-0.01-0.83,0.12-0.83-0.87c0-1.1-0.01-2.19,0-3.29
					c0-0.38-0.11-0.69-0.36-0.98c-2.34-2.67-4.68-5.34-7.02-8.01c-0.12-0.14-0.27-0.24-0.41-0.37c-6.21,0-12.43,0-18.64,0
					c-0.79,0.29-1.14,0.87-1.14,1.71c0.01,3.75,0,7.5,0,11.24c0,0.56,0,0.59-0.55,0.55c-1.5-0.1-2.52,0.99-2.5,2.49
					c0.04,3.48,0.01,6.95,0.01,10.43c0,1.58,0.87,2.44,2.45,2.45c0.58,0,0.58,0,0.58,0.6c0,2.22,0,4.44,0,6.66
					c0,1.19,0.58,1.77,1.77,1.77c8.01,0,16.03,0,24.04,0c1.17,0,1.76-0.58,1.76-1.74c0-2.26,0-4.51,0-6.77c0-0.51,0-0.51,0.52-0.52
					c0.27,0,0.54,0.01,0.81-0.06c1-0.25,1.69-1.04,1.69-2.07C297.32,438.7,297.32,435,297.3,431.3z M268.85,417.16
					c5.34,0,10.67,0,16.01,0c0.55,0,0.55,0.01,0.55,0.56c0,2.24,0,4.49,0,6.73c0,0.81,0.25,1.06,1.06,1.06c1.91,0,3.82,0,5.73,0
					c0.46,0,0.48,0.02,0.48,0.48c0,0.89,0,1.77,0,2.66c0,0.48-0.02,0.5-0.5,0.5c-3.89,0-7.79,0-11.68,0c-3.88,0-7.77,0-11.65,0
					c-0.55,0-0.55,0-0.55-0.56c0-3.62,0-7.25,0-10.87C268.3,417.17,268.3,417.16,268.85,417.16z M292.14,451.58
					c-3.88,0-7.77,0-11.65,0c-3.87,0-7.74,0-11.61,0c-0.57,0-0.57,0-0.57-0.58c0-2,0-3.99,0-5.99c0-0.46,0.02-0.49,0.48-0.49
					c7.8,0,15.61,0,23.41,0c0.48,0,0.5,0.02,0.5,0.5c0,2,0,3.99,0,5.99C292.69,451.57,292.68,451.58,292.14,451.58z"/>
			</g>
			<g>
				<path class="st1" d="M272.97,434.18v1.83h3.17v1.41h-3.17v1.83h3.52v1.41h-5.01v-7.9h5.01v1.41L272.97,434.18L272.97,434.18z"/>
				<path class="st1" d="M277.85,440.67v-7.9h2.78c0.38,0,0.73,0.06,1.05,0.18s0.61,0.29,0.86,0.51s0.43,0.48,0.57,0.79
					c0.14,0.3,0.21,0.64,0.21,1.01c0,0.38-0.07,0.71-0.21,1.02c-0.14,0.3-0.33,0.57-0.57,0.79s-0.53,0.39-0.86,0.51
					s-0.68,0.18-1.05,0.18h-1.29v2.9L277.85,440.67L277.85,440.67z M280.65,436.36c0.39,0,0.68-0.11,0.88-0.33
					c0.2-0.22,0.3-0.47,0.3-0.76c0-0.14-0.02-0.28-0.07-0.41s-0.12-0.25-0.22-0.35c-0.1-0.1-0.22-0.18-0.37-0.24
					c-0.15-0.06-0.32-0.09-0.52-0.09h-1.31v2.17L280.65,436.36L280.65,436.36z"/>
				<path class="st1" d="M286.8,440.85c-0.34,0-0.66-0.05-0.97-0.14c-0.31-0.1-0.59-0.24-0.85-0.43c-0.26-0.19-0.48-0.42-0.67-0.7
					c-0.19-0.28-0.34-0.6-0.45-0.96l1.4-0.55c0.1,0.4,0.28,0.73,0.54,0.99c0.26,0.26,0.6,0.39,1.02,0.39c0.15,0,0.3-0.02,0.45-0.06
					c0.14-0.04,0.27-0.1,0.39-0.18c0.11-0.08,0.2-0.17,0.27-0.29c0.07-0.12,0.1-0.25,0.1-0.41c0-0.15-0.03-0.28-0.08-0.4
					c-0.05-0.12-0.14-0.23-0.26-0.33c-0.12-0.1-0.28-0.2-0.47-0.3c-0.2-0.1-0.44-0.2-0.72-0.3l-0.48-0.18
					c-0.21-0.07-0.43-0.17-0.64-0.3c-0.22-0.12-0.41-0.28-0.59-0.45s-0.32-0.38-0.44-0.62c-0.11-0.24-0.17-0.51-0.17-0.81
					c0-0.31,0.06-0.6,0.18-0.87c0.12-0.27,0.29-0.5,0.52-0.71c0.22-0.2,0.49-0.36,0.8-0.47c0.31-0.11,0.66-0.17,1.04-0.17
					c0.4,0,0.74,0.05,1.03,0.16s0.54,0.24,0.74,0.41c0.2,0.17,0.36,0.35,0.49,0.55c0.12,0.2,0.22,0.39,0.28,0.56l-1.31,0.55
					c-0.07-0.22-0.21-0.42-0.4-0.6c-0.2-0.18-0.46-0.27-0.8-0.27c-0.32,0-0.59,0.08-0.8,0.23c-0.21,0.15-0.32,0.35-0.32,0.59
					c0,0.23,0.1,0.44,0.31,0.6s0.53,0.33,0.98,0.48l0.5,0.17c0.32,0.11,0.61,0.24,0.87,0.38c0.26,0.14,0.48,0.31,0.67,0.51
					c0.19,0.2,0.33,0.42,0.43,0.68c0.1,0.25,0.15,0.55,0.15,0.88c0,0.41-0.08,0.77-0.25,1.06c-0.17,0.3-0.38,0.54-0.63,0.73
					c-0.26,0.19-0.55,0.33-0.87,0.43C287.42,440.8,287.11,440.85,286.8,440.85z"/>
			</g>
			<g>
				<path class="st1" d="M321.39,439.17l4-4.98h-3.83v-1.41h5.56v1.5l-3.96,4.98h4v1.41h-5.78L321.39,439.17L321.39,439.17z"/>
				<path class="st1" d="M328.41,432.77h1.49v7.9h-1.49V432.77z"/>
				<path class="st1" d="M331.49,440.67v-7.9h2.78c0.38,0,0.73,0.06,1.05,0.18s0.61,0.29,0.86,0.51s0.43,0.48,0.57,0.79
					c0.14,0.3,0.21,0.64,0.21,1.01c0,0.38-0.07,0.71-0.21,1.02c-0.14,0.3-0.33,0.57-0.57,0.79s-0.53,0.39-0.86,0.51
					s-0.68,0.18-1.05,0.18h-1.29v2.9L331.49,440.67L331.49,440.67z M334.29,436.36c0.39,0,0.68-0.11,0.88-0.33
					c0.2-0.22,0.3-0.47,0.3-0.76c0-0.14-0.02-0.28-0.07-0.41s-0.12-0.25-0.22-0.35c-0.1-0.1-0.22-0.18-0.37-0.24
					c-0.15-0.06-0.32-0.09-0.52-0.09h-1.31v2.17L334.29,436.36L334.29,436.36z"/>
			</g>
		</g>
		<g class="st0">
			<path class="st1" d="M300.13,433.27h9.07v2.24h-9.07V433.27z M300.13,437.14h9.07v2.24h-9.07V437.14z"/>
		</g>
	</g>
	<g class="st0">
		<path class="st1" d="M156.76,478.88h1.61c1.26,0,2.11,0.81,2.11,1.97c0,1.16-0.85,1.97-2.11,1.97h-1.61V478.88z M158.34,482.46
			c1.05,0,1.73-0.67,1.73-1.61s-0.68-1.61-1.73-1.61h-1.17v3.23H158.34z"/>
		<path class="st1" d="M165.14,480.85c0-1.15,0.88-2.01,2.07-2.01c1.18,0,2.07,0.85,2.07,2.01c0,1.16-0.88,2.01-2.07,2.01
			C166.02,482.86,165.14,482,165.14,480.85z M168.87,480.85c0-0.94-0.71-1.64-1.65-1.64c-0.95,0-1.66,0.69-1.66,1.64
			c0,0.94,0.71,1.64,1.66,1.64C168.16,482.49,168.87,481.79,168.87,480.85z"/>
		<path class="st1" d="M179.6,478.88l-1.33,3.95h-0.44l-1.16-3.37l-1.16,3.37h-0.43l-1.33-3.95h0.43l1.14,3.39l1.18-3.39h0.39
			l1.16,3.41l1.16-3.41H179.6z"/>
		<path class="st1" d="M187.73,478.88v3.95h-0.34l-2.54-3.2v3.2h-0.42v-3.95h0.34l2.54,3.2v-3.2H187.73z"/>
		<path class="st1" d="M193.09,478.88h0.42v3.59h2.21v0.36h-2.63L193.09,478.88L193.09,478.88z"/>
		<path class="st1" d="M200.06,480.85c0-1.15,0.88-2.01,2.07-2.01c1.18,0,2.07,0.85,2.07,2.01c0,1.16-0.88,2.01-2.07,2.01
			C200.94,482.86,200.06,482,200.06,480.85z M203.79,480.85c0-0.94-0.71-1.64-1.65-1.64c-0.95,0-1.66,0.69-1.66,1.64
			c0,0.94,0.71,1.64,1.66,1.64C203.08,482.49,203.79,481.79,203.79,480.85z"/>
		<path class="st1" d="M211.64,481.77h-2.2l-0.47,1.05h-0.43l1.8-3.95h0.41l1.8,3.95h-0.44L211.64,481.77z M211.48,481.43
			l-0.95-2.12l-0.95,2.12H211.48z"/>
		<path class="st1" d="M217.28,478.88h1.61c1.26,0,2.11,0.81,2.11,1.97c0,1.16-0.85,1.97-2.11,1.97h-1.61V478.88z M218.86,482.46
			c1.05,0,1.73-0.67,1.73-1.61s-0.68-1.61-1.73-1.61h-1.17v3.23H218.86z"/>
		<path class="st1" d="M234.04,481.77h-2.2l-0.47,1.05h-0.43l1.8-3.95h0.41l1.8,3.95h-0.44L234.04,481.77z M233.89,481.43
			l-0.95-2.12l-0.95,2.12H233.89z"/>
		<path class="st1" d="M239.68,478.88h0.42v3.59h2.21v0.36h-2.63L239.68,478.88L239.68,478.88z"/>
		<path class="st1" d="M247.08,478.88h0.42v3.59h2.21v0.36h-2.63L247.08,478.88L247.08,478.88z"/>
		<path class="st1" d="M260.45,479.24v1.55h2.04v0.36h-2.04v1.67h-0.42v-3.95h2.71v0.36L260.45,479.24L260.45,479.24z"/>
		<path class="st1" d="M267.68,478.88h0.42v3.95h-0.42V478.88z"/>
		<path class="st1" d="M273.46,478.88h0.42v3.59h2.21v0.36h-2.63L273.46,478.88L273.46,478.88z"/>
		<path class="st1" d="M283.64,482.46v0.36h-2.79v-3.95h2.71v0.36h-2.29v1.4h2.04V481h-2.04v1.47H283.64z"/>
		<path class="st1" d="M294.67,479.24v1.55h2.04v0.36h-2.04v1.67h-0.42v-3.95h2.71v0.36L294.67,479.24L294.67,479.24z"/>
		<path class="st1" d="M301.5,480.85c0-1.15,0.88-2.01,2.08-2.01c1.18,0,2.07,0.85,2.07,2.01c0,1.16-0.89,2.01-2.07,2.01
			C302.38,482.86,301.5,482,301.5,480.85z M305.23,480.85c0-0.94-0.7-1.64-1.65-1.64c-0.95,0-1.66,0.69-1.66,1.64
			c0,0.94,0.71,1.64,1.66,1.64C304.52,482.49,305.23,481.79,305.23,480.85z"/>
		<path class="st1" d="M313.35,482.83l-0.9-1.27c-0.1,0.01-0.2,0.02-0.32,0.02h-1.06v1.25h-0.42v-3.95h1.48c1,0,1.61,0.51,1.61,1.35
			c0,0.62-0.33,1.05-0.9,1.24l0.96,1.35L313.35,482.83L313.35,482.83z M313.33,480.23c0-0.63-0.42-0.99-1.21-0.99h-1.05v1.98h1.05
			C312.91,481.22,313.33,480.85,313.33,480.23z"/>
		<path class="st1" d="M322.91,478.88v3.95h-0.4v-3.16l-1.55,2.66h-0.2l-1.55-2.64v3.14h-0.4v-3.95h0.34l1.71,2.93l1.7-2.93
			L322.91,478.88L322.91,478.88z"/>
		<path class="st1" d="M330.74,481.77h-2.2l-0.47,1.05h-0.43l1.8-3.95h0.41l1.8,3.95h-0.44L330.74,481.77z M330.59,481.43
			l-0.95-2.12l-0.95,2.12H330.59z"/>
		<path class="st1" d="M336.96,479.24h-1.39v-0.36h3.19v0.36h-1.39v3.59h-0.42L336.96,479.24L336.96,479.24z"/>
		<path class="st1" d="M343.06,482.35l0.16-0.32c0.28,0.28,0.78,0.48,1.3,0.48c0.74,0,1.06-0.31,1.06-0.7
			c0-1.08-2.43-0.42-2.43-1.88c0-0.58,0.45-1.08,1.45-1.08c0.45,0,0.91,0.13,1.22,0.35l-0.14,0.33c-0.34-0.22-0.73-0.33-1.08-0.33
			c-0.72,0-1.04,0.32-1.04,0.72c0,1.08,2.43,0.43,2.43,1.87c0,0.58-0.46,1.08-1.47,1.08C343.94,482.86,343.36,482.65,343.06,482.35z
			"/>
	</g>
</g>
<g>
	<path class="st2" d="M128.98,203.48c-0.87-2.51-3.04-4.51-5.59-5.23c-1.92-0.47-3.91-0.3-5.86-0.32c-27.8,0-55.59,0.01-83.38-0.01
		c-1.15,0.01-2.32,0.1-3.42,0.44c-2.67,0.89-4.86,3.21-5.46,5.97c-0.35,1.49-0.25,3.04-0.27,4.56c0.02,28.26-0.01,56.51,0.02,84.77
		c-0.17,4.44,3.74,8.54,8.21,8.42c29.48-0.01,58.96,0.02,88.44-0.01c4.32-0.11,7.96-4.14,7.82-8.42c-0.01-28.09-0.01-56.18,0-84.26
		C129.46,207.41,129.7,205.37,128.98,203.48z M54.49,289.02c-7.48-13.04-15.06-26.04-22.57-39.07c3.73-6.37,7.43-12.76,11.16-19.14
		c11.24,19.42,22.52,38.81,33.76,58.24C69.39,289.04,61.94,289.08,54.49,289.02z M43.35,230.35c3.77-6.46,7.53-12.94,11.31-19.4
		c15.09,0.04,30.19-0.05,45.28,0.07c3.78,6.42,7.47,12.88,11.2,19.32C88.54,230.37,65.94,230.36,43.35,230.35z M99.81,289.15
		c-7.48,0.08-14.95-0.11-22.43-0.13c11.26-19.55,22.55-39.1,33.78-58.67c3.76,6.62,7.63,13.17,11.4,19.78
		C114.96,263.13,107.4,276.15,99.81,289.15z"/>
	<path class="st3" d="M400.33,232.41c8.42-4.74,18-6.97,27.54-7.98c8.1-0.69,16.44-0.13,24.09,2.78c8.25,3.11,15.71,8.93,19.8,16.84
		c-8.79,3.17-17.64,6.16-26.46,9.22c-3.84-2.91-8.46-4.91-13.32-5.03c-4.86-0.05-9.84,1.74-13.2,5.33
		c-3.81,4.09-5.72,10.13-4.17,15.61c1.63,5.76,7.33,9.92,13.26,10.14c4.52,0.17,8.92-1.42,12.82-3.58
		c-5.04-0.13-10.08,0.03-15.1-0.09c1.13-6.14,2.57-12.23,3.91-18.33c15.05-0.04,30.09-0.02,45.14-0.01
		c1.17,8.76-0.42,18.02-5.09,25.59c-3.6,5.89-9.14,10.46-15.35,13.38c-8.32,3.96-17.61,5.33-26.74,5.69
		c-10.12,0.25-20.66-1.31-29.4-6.72c-6.24-3.78-11.09-9.59-14.12-16.18c-0.57,7.26-0.95,14.53-1.38,21.8
		c-7.07,0.33-14.14,0.06-21.2,0.15c-2.41,0-4.81,0.06-7.22-0.12c0.49-9.58,0.98-19.16,1.47-28.73
		c-5.88,9.65-11.78,19.27-17.64,28.93c-6.58,0.1-13.17,0.08-19.76,0.01c-1.28-9.66-2.57-19.32-3.79-28.99
		c-3.48,9.17-7.06,18.29-10.55,27.44c-0.3,0.53-0.45,1.53-1.26,1.44c-9.43,0.06-18.86,0.03-28.29,0.01c0.21-1.03,0.39-2.05,0.7-3.05
		c2.04-5.05,4.31-10.01,6.38-15.05c0.94-2.4,2.24-4.68,2.74-7.23c0.35-2.03,1.27-3.89,1.98-5.8c5.14-13.36,10.33-26.7,15.46-40.07
		c0.45-1.05,0.69-2.25,1.45-3.13c6.99-0.15,13.98,0,20.97-0.05c2.85,0.01,5.7-0.09,8.54,0.12c1.6,11.74,3.05,23.5,4.54,35.26
		c7.13-11.52,14.24-23.06,21.38-34.57c0.53-1.08,1.9-0.74,2.88-0.83c5.77,0.14,11.56-0.04,17.34,0.05c2.77,0.05,5.55-0.22,8.32,0.1
		c0.21,0.71,0.08,1.46,0.06,2.18c-0.46,5.69-0.68,11.39-1.11,17.08C389.45,240.32,394.5,235.66,400.33,232.41L400.33,232.41z"/>
	<path class="st2" d="M263.57,226.29c11.49-1.53,23.27-0.74,34.51,2.02c-2.65,6.91-5.66,13.66-8.41,20.53
		c-0.34,0.78-0.6,1.62-1.16,2.28c-5.73-1.04-11.6-1.74-17.42-1.09c-4.95,0.42-10.04,1.82-13.9,5.07c-3.52,2.95-5.49,7.57-5.46,12.13
		c0.09,3.23,2.32,6.05,5.19,7.36c4.68,2.17,9.98,2.43,15.07,2.35c4.06-0.12,8.1-0.59,12.11-1.28c-0.5,2.55-1.81,4.83-2.74,7.23
		c-2.07,5.04-4.34,10-6.38,15.05c-0.31,0.77-0.63,1.52-0.97,2.27c-9.84,2.27-20.23,2.54-30.04,0c-7.96-1.99-15.41-6.27-20.81-12.48
		c-3.9-4.46-6.59-10.03-7.36-15.93c-0.46-4.66,0.01-9.47,1.82-13.82c3.61-7.46,8.82-14.19,15.32-19.36
		C241.68,231.64,252.55,227.72,263.57,226.29L263.57,226.29z"/>
	<path class="st3" d="M150.03,226.58c2.99-0.09,5.99-0.05,8.99-0.03c7.74,11.9,15.44,23.82,23.13,35.75
		c-13.81,12.72-27.81,25.23-41.68,37.89c-0.97,1.08-2.49,0.8-3.79,0.84c-2.86-0.06-5.71,0.05-8.56-0.1
		c1.59-2.03,3.68-3.56,5.54-5.32c12.57-11.43,25.26-22.72,37.75-34.22c-6.76-10.79-13.38-21.66-20.13-32.46
		C150.82,228.17,150.42,227.37,150.03,226.58L150.03,226.58z"/>
	<path class="st3" d="M163.49,226.77c6.25-0.36,12.52-0.07,18.77-0.16c2.72-0.01,5.43-0.04,8.14,0.15c2.53,3.71,4.94,7.5,7.52,11.18
		c3.3-3.13,6.66-6.22,9.96-9.36c0.91-0.76,1.72-1.97,3.05-1.94c3.25-0.04,6.53-0.18,9.76,0.2c-1.48,1.57-3.18,2.9-4.79,4.33
		c-10.64,9.26-21.28,18.53-31.93,27.78c-6.23-9.41-12.14-19.04-18.25-28.52C164.95,229.22,164.2,228.01,163.49,226.77L163.49,226.77
		z"/>
	<path class="st3" d="M224.49,227.42c0.74-0.81,1.87-0.82,2.88-0.82c5.32,0.03,10.63,0.03,15.94,0c0.79-0.03,1.57,0.16,2.32,0.42
		c-10.28,5.26-19.97,12.29-26.62,21.86c-5.11,7.34-7.85,16.64-6.11,25.53c1.91,9.51,8.53,17.36,16.15,23.03
		c1.49,1.22,3.39,1.94,4.59,3.5c-7.68,0.22-15.36-0.14-23.04-0.1c-8.24-12.69-16.43-25.41-24.56-38.16
		C198.85,250.91,211.69,239.19,224.49,227.42L224.49,227.42z"/>
	<path class="st3" d="M177.67,269.95c1.87-1.71,3.68-3.5,5.69-5.06c7.54,11.99,15.24,23.9,22.64,35.97c-3.02,0.17-6.09,0.32-9.1,0
		c-2.97-4.1-5.53-8.49-8.36-12.7c-4.6,4.02-9.12,8.15-13.7,12.2c-0.94,0.93-2.35,0.6-3.53,0.67c-9.02-0.15-18.06,0.2-27.08-0.18
		c1.77-2.07,3.94-3.73,5.9-5.61C159.3,286.8,168.49,278.37,177.67,269.95L177.67,269.95z"/>
</g>
</svg>
