<svg width="38" height="10" viewBox="0 0 38 10" fill="none" xmlns="http://www.w3.org/2000/svg">
<path id="Vector" fill-rule="evenodd" clip-rule="evenodd" d="M38 4.9826C38 4.9826 36.8904 5.62092 36.3515 5.8627C36.0345 6.00777 35.7386 6.09481 35.3899 6.17219C34.9989 6.25923 34.3543 6.32693 33.9633 6.30758C33.53 6.27857 32.5684 6.14317 32.1986 6.1335C31.8604 6.12383 31.0573 6.09481 30.5606 6.34627C30.1802 6.5397 29.8526 7.0136 29.6201 7.3521C29.3665 7.70994 29.0918 8.25154 28.8699 8.62872C28.6057 9.05426 28.035 9.97305 28.035 9.97305H25.6257L28.2675 5.75632C28.2675 5.75632 27.8131 5.83369 27.4961 5.83369C27.1897 5.83369 27.0311 5.81434 26.8409 5.78533C26.6507 5.75632 26.3126 5.69829 26.3126 5.69829C26.3126 5.69829 26.3443 6.10449 26.2492 6.62674C26.1858 6.95557 26.0484 7.37144 25.9004 7.67125C25.7314 8.02909 25.4355 8.47398 25.1607 8.77379C24.9388 9.01558 24.6007 9.28638 24.3048 9.46046C23.9983 9.64422 23.5545 9.80863 23.1952 9.886C22.7937 9.96337 22.2547 9.96337 21.8532 9.89567C21.0395 9.7506 20.9233 9.57652 20.2152 9.00591C20.2152 9.00591 19.4967 9.37342 19.1796 9.52816C18.8626 9.67323 18.4294 9.80863 18.0806 9.886C17.6051 9.99239 16.9605 10.0311 16.4744 9.97305C16.1891 9.94403 15.8615 9.83765 15.6185 9.70225C15.4177 9.58619 15.0161 9.209 15.0161 9.209C15.0161 9.209 14.3715 9.48948 14.0545 9.60553C13.7375 9.72159 13.262 9.87633 12.9027 9.92469C12.5539 9.97305 12.0784 9.99239 11.7191 9.97305C11.455 9.96337 11.1062 9.886 10.8632 9.78929C10.6518 9.71192 10.3348 9.5475 10.1974 9.42177C10.0601 9.29605 9.92269 9.17999 9.92269 9.17999C9.92269 9.17999 9.33092 9.38309 9.08787 9.4798C8.78142 9.60553 8.39043 9.71192 8.05228 9.77962C7.7564 9.83765 7.302 9.93436 7.00612 9.9537C6.58343 9.97304 6.08676 9.96337 5.67464 9.87633C5.34705 9.80863 4.95606 9.56685 4.73415 9.42177C4.51224 9.28638 4.25862 9.05426 4.25862 9.05426C4.25862 9.05426 3.61402 9.4121 3.37097 9.5475C3.12792 9.67323 2.8426 9.78929 2.62069 9.886C2.41991 9.97305 1.97608 10.0021 1.78587 9.98272C1.46885 9.9537 1.22581 9.80863 1.04616 9.64422C0.845384 9.46046 0.66574 9.31539 0.570634 9.04459C0.443827 8.67708 0.359288 8.16449 0.454393 7.79698C0.517797 7.52618 0.739711 7.19735 0.951057 7.00393C1.20467 6.77181 1.59566 6.61707 1.95495 6.53003C2.30367 6.44298 2.85317 6.39463 3.20189 6.42364C3.55061 6.45266 4.30089 6.62674 4.30089 6.62674L5.67464 5.26307H4.18465L5.12514 4.04448H6.93215L8.17909 2.69048C8.17909 2.69048 7.16463 2.7195 6.1713 2.60344C5.66407 2.54541 5.23081 2.4487 4.53337 2.43902C4.14238 2.43902 3.69855 2.43903 3.24416 2.54541C3.05395 2.5841 2.56785 2.7195 2.36707 2.83555C2.08176 2.99997 1.70133 3.33847 1.46885 3.58992C1.28921 3.78335 0.887653 4.29593 0.887653 4.29593L0 3.61894C0 3.61894 0.982759 2.381 1.47942 1.91677C1.93382 1.49123 2.55729 0.959301 3.11735 0.669159C3.57175 0.427374 4.16352 0.18559 4.71301 0.0792042C5.0406 0.0211758 5.61123 -0.00783868 5.94939 0.00183272C6.39321 0.0115041 6.91101 0.127561 7.42881 0.214603C7.94661 0.301646 8.79199 0.485402 9.40489 0.553102C9.84872 0.601459 10.4405 0.640145 10.8843 0.601459C11.0851 0.582116 11.3598 0.543431 11.5395 0.456388C11.624 0.417703 11.772 0.282303 11.772 0.282303L12.5857 1.17207C12.5857 1.17207 12.163 1.19141 11.9622 1.37517C11.1802 2.11987 9.35206 4.06382 9.35206 4.06382L10.4722 4.07349L9.48943 5.33077L8.05228 5.3211L5.93882 7.46815C5.93882 7.46815 6.27697 7.88402 6.47775 8.00008C6.67853 8.11614 6.93215 8.22252 7.16463 8.26121C7.50278 8.31924 7.80923 8.31924 8.16852 8.30956C8.58064 8.29989 8.89767 8.17416 9.47887 7.98074C9.47887 7.98074 9.42603 7.16834 9.52113 6.83951C9.62681 6.42364 9.83815 5.9981 10.1023 5.64993C10.356 5.31143 10.7681 4.85687 11.1274 4.59575C11.4761 4.33462 12.0044 4.04448 12.4377 3.90908C12.8815 3.77368 13.5578 3.72532 14.0228 3.83171C14.4032 3.91875 14.8682 4.11218 15.0795 4.41199C15.2803 4.68279 15.2803 5.15669 15.2697 5.47585C15.2592 5.69829 15.1007 6.11416 14.9844 6.34627C14.8682 6.57838 14.6251 6.82984 14.4244 7.0136C14.1919 7.22637 13.9383 7.4198 13.6529 7.60355C13.3676 7.78731 12.5222 8.17416 12.5222 8.17416C12.5222 8.17416 12.797 8.38694 13.4099 8.33858C14.0122 8.29022 14.287 8.18384 14.5617 8.03877C14.8365 7.89369 14.9527 7.76797 15.1958 7.52618C15.4388 7.2844 17.4572 4.54739 17.4572 4.54739H16.2102L17.0979 3.29978H18.3448L19.1162 2.12954H21.3671L20.6696 3.29978H21.8743L21.1029 4.50871H19.9405C19.9405 4.50871 18.8098 6.23989 18.0384 7.42947C17.8904 7.66158 17.7531 7.87435 17.827 8.02909C17.9221 8.24187 18.2075 8.25154 18.4822 8.26121C18.8309 8.27088 19.1162 8.28055 19.391 8.17416C19.7186 8.04844 19.8348 7.95172 20.0567 7.77764C20.0567 7.77764 20.099 6.96524 20.2152 6.63641C20.3315 6.30759 20.6168 5.83369 20.8493 5.56289C21.1029 5.27275 21.5256 4.9826 21.8637 4.7795C22.1913 4.58608 22.688 4.36363 23.0684 4.26692C23.3854 4.18955 24.104 4.18955 24.104 4.18955L24.1568 5.33077C24.1568 5.33077 23.3537 5.41782 23.1001 5.54354C22.8042 5.68862 22.4555 6.02711 22.297 6.29791C22.1491 6.53003 22.0857 6.8782 22.1596 7.13933C22.2336 7.39078 22.371 7.60355 22.762 7.70027C23.0684 7.77764 23.4594 7.70994 23.7447 7.56487C23.9983 7.43914 24.2942 7.17801 24.4527 6.95557C24.6429 6.68477 24.7592 6.37529 24.8226 6.12383C24.8754 5.89172 24.886 5.50486 24.886 5.35979C24.886 5.21472 24.7909 4.17988 24.7909 4.17988L26.1435 3.99612C26.1435 3.99612 26.4711 4.36363 26.6402 4.47969C26.8304 4.61509 27.2953 4.65378 27.5384 4.66345C27.9294 4.68279 28.257 4.63443 28.574 4.52805C28.9121 4.42166 29.3665 4.00579 29.3665 4.00579H31.8076L31.0679 5.06965C31.0679 5.06965 31.6174 4.88589 31.9555 4.75049C32.3042 4.61509 32.7058 4.5087 33.0756 4.42166C33.4349 4.34429 33.8471 4.25725 34.4811 4.24758C34.8192 4.23791 35.2736 4.33462 35.6118 4.39265C35.8865 4.441 36.2247 4.48936 36.5946 4.48936C36.9221 4.48936 37.5456 4.36363 37.5456 4.36363L38 4.9826ZM11.6452 7.17801C11.6452 7.17801 11.624 6.51068 11.7086 6.23021C11.7931 5.95941 12.0044 5.5919 12.2264 5.3888C12.3849 5.24373 12.5857 5.10833 12.797 5.05997C13.0083 5.02129 13.2725 5.01162 13.5367 5.15669C13.6107 5.19537 13.6424 5.27275 13.6635 5.35012C13.6952 5.4565 13.6424 5.68862 13.5895 5.82401C13.5261 5.97876 13.3465 6.19153 13.2091 6.31726C13.0717 6.45266 12.797 6.6074 12.6279 6.71378C12.4377 6.82984 12.3003 6.90721 12.0996 7.00393C11.9622 7.06195 11.6452 7.17801 11.6452 7.17801Z" fill="#DB261D"/>
</svg>
